<svg version="1.2" xmlns="http://www.w3.org/2000/svg" viewBox="0 0 62 84" width="62" height="84"><defs><linearGradient id="P" gradientUnits="userSpaceOnUse"/><radialGradient id="g1" cx="0" cy="0" r="1" href="#P" gradientTransform="matrix(111.619,0,0,111.619,29.073,-24.241)"><stop offset=".62" stop-color="#fff"/><stop offset="1" stop-color="#ababab"/></radialGradient><radialGradient id="g2" cx="0" cy="0" r="1" href="#P" gradientTransform="matrix(79.983,0,0,79.983,30.177,73.307)"><stop offset=".62" stop-color="#fff"/><stop offset="1" stop-color="#ababab"/></radialGradient><radialGradient id="g3" cx="0" cy="0" r="1" href="#P" gradientTransform="matrix(88.809,0,0,88.809,-0.001,2.04)"><stop offset=".1" stop-color="#fff"/><stop offset="1" stop-color="#ababab"/></radialGradient><radialGradient id="g4" cx="0" cy="0" r="1" href="#P" gradientTransform="matrix(75.641,0,0,75.641,17.418,24.539)"><stop stop-color="#fff"/><stop offset="1" stop-color="#fff"/></radialGradient><radialGradient id="g5" cx="0" cy="0" r="1" href="#P" gradientTransform="matrix(-23.534,0,0,-23.534,2.412,40.931)"><stop offset=".1" stop-color="#fff"/><stop offset="1" stop-color="#ababab"/></radialGradient></defs><style>.a{fill:#fff}.b{fill:#f1f1f1}.c{fill:#e2e2e2}.d{fill:#d4d4d4}.e{fill:#c5c5c5}.f{fill:#b7b7b7}.g{fill:#a8a8a8}.h{fill:#9a9a9a}.i{fill:#8b8b8b}.j{fill:#7d7d7d}.k{fill:#6e6e6e}.l{fill:#606060}.m{mix-blend-mode:multiply;fill:url(#g1)}.n{mix-blend-mode:multiply;fill:url(#g2)}.o{fill:url(#g3)}.p{mix-blend-mode:screen;fill:url(#g4)}.q{fill:url(#g5)}</style><g style="mix-blend-mode:multiply"><path class="a" d="m57.8 2.4h-50.9q0 0-0.1 0c-1.6 0-4.1 1.4-4.1 5v2.6q0 0 0 0.1v66.5q0 0.1 0 0.1v2.1c0 3.6 2.5 4.9 4.1 5q0.1 0 0.1 0h50.9q0 0 0 0c0.3 0 2-0.2 3.2-1.7q1-1.3 1-3.3v-71.4c0-3.6-2.5-5-4.2-5q0 0 0 0z"/><path class="b" d="m57.5 2.2h-50.8q-0.1 0-0.1 0c-1.7 0-4.2 1.4-4.2 4.9v2.7q0 0 0 0v66.6q0 0 0 0.1v2.1c0 3.5 2.5 4.9 4.2 5q0 0 0.1 0h50.8q0.1 0 0.1 0c0.3-0.1 2-0.2 3.2-1.7q1-1.3 1-3.3v-71.5c0-3.5-2.5-4.9-4.2-4.9q0 0-0.1 0z"/><path class="c" d="m57.3 1.9h-50.8q-0.1 0-0.1 0c-1.7 0.1-4.2 1.4-4.2 5v2.6q0 0.1 0 0.1v66.6q0 0 0 0.1v2c0 3.6 2.5 5 4.2 5q0 0 0.1 0h50.8q0.1 0 0.1 0c0.3 0 2-0.1 3.1-1.6q1.1-1.3 1.1-3.4v-71.4c0-3.6-2.5-4.9-4.2-5q0 0-0.1 0z"/><path class="d" d="m57.1 1.7h-50.9q0 0 0 0c-1.7 0.1-4.2 1.4-4.2 5v2.6q0 0.1 0 0.1v66.6q0 0 0 0v2.1c0 3.6 2.5 5 4.2 5q0 0 0 0h50.9q0 0 0.1 0c0.3 0 1.9-0.1 3.1-1.6q1-1.4 1-3.4v-71.4c0-3.6-2.5-4.9-4.1-5q-0.1 0-0.1 0z"/><path class="e" d="m56.9 1.5h-50.9q0 0 0 0c-1.7 0-4.2 1.4-4.2 5v2.6q0 0 0 0.1v66.5q0 0.1 0 0.1v2.1c0 3.6 2.5 4.9 4.2 5q0 0 0 0h50.9q0 0 0 0c0.4 0 2-0.1 3.2-1.7q1-1.3 1-3.3v-71.4c0-3.6-2.5-5-4.2-5q0 0 0 0z"/><path class="f" d="m56.7 1.3h-50.9q0 0-0.1 0c-1.6 0-4.1 1.4-4.1 5v2.6q0 0 0 0.1v66.5q0 0.1 0 0.1v2.1c0 3.6 2.5 4.9 4.1 5q0.1 0 0.1 0h50.9q0 0 0 0c0.3 0 2-0.2 3.2-1.7q1-1.3 1-3.3v-71.4c0-3.6-2.5-5-4.2-5q0 0 0 0z"/><path class="g" d="m56.5 1.1h-50.9q0 0-0.1 0c-1.7 0-4.2 1.4-4.2 4.9v2.7q0 0 0 0v66.6q0 0 0 0.1v2.1c0 3.5 2.5 4.9 4.2 5q0.1 0 0.1 0h50.9q0 0 0 0c0.3 0 2-0.2 3.2-1.7q1-1.3 1-3.3v-71.5c0-3.5-2.5-4.9-4.2-4.9q0 0 0 0z"/><path class="h" d="m56.2 0.8h-50.8q-0.1 0-0.1 0c-1.7 0.1-4.2 1.5-4.2 5v2.6q0 0.1 0 0.1v66.6q0 0 0 0.1v2.1c0 3.5 2.5 4.9 4.2 4.9q0 0 0.1 0h50.8q0.1 0 0.1 0c0.3 0 2-0.1 3.1-1.6q1.1-1.3 1.1-3.3v-71.5c0-3.5-2.5-4.9-4.2-5q0 0-0.1 0z"/><path class="i" d="m56 0.6h-50.9q0 0 0 0c-1.7 0.1-4.2 1.4-4.2 5v2.6q0 0.1 0 0.1v66.6q0 0 0 0.1v2c0 3.6 2.5 5 4.2 5q0 0 0 0h50.9q0 0 0.1 0c0.3 0 1.9-0.1 3.1-1.6q1.1-1.4 1.1-3.4v-71.4c0-3.6-2.5-4.9-4.2-5q-0.1 0-0.1 0z"/><path class="j" d="m55.8 0.4h-50.9q0 0 0 0c-1.7 0.1-4.2 1.4-4.2 5v2.6q0 0 0 0.1v66.5q0 0.1 0 0.1v2.1c0 3.6 2.5 5 4.2 5q0 0 0 0h50.9q0 0 0.1 0c0.3 0 1.9-0.1 3.1-1.7q1-1.3 1-3.3v-71.4c0-3.6-2.5-4.9-4.1-5q-0.1 0-0.1 0z"/><path class="k" d="m55.6 0.2h-50.9q0 0 0 0c-1.7 0-4.2 1.4-4.2 5v2.6q0 0 0 0.1v66.5q0 0.1 0 0.1v2.1c0 3.6 2.5 4.9 4.2 5q0 0 0 0h50.9q0 0 0 0c0.4 0 2-0.1 3.2-1.7q1-1.3 1-3.3v-71.4c0-3.6-2.5-5-4.2-5q0 0 0 0z"/><path class="l" d="m55.4 0h-50.9q0 0-0.1 0c-1.6 0-4.1 1.4-4.1 5v2.6q0 0 0 0.1v66.5q0 0.1 0 0.1v2.1c0 3.6 2.5 4.9 4.1 5q0.1 0 0.1 0h50.9q0 0 0 0c0.3 0 2-0.2 3.2-1.7q1-1.3 1-3.3v-71.4c0-3.6-2.5-5-4.2-5q0 0 0 0z"/></g><path class="a" d="m55.4 0h-50.9q0 0-0.1 0c-1.6 0-4.1 1.4-4.1 5v2.6q0 0 0 0.1v66.5q0 0.1 0 0.1v2.1c0 3.6 2.5 4.9 4.1 5q0.1 0 0.1 0h50.9q0 0 0 0c0.3 0 2-0.2 3.2-1.7q1-1.3 1-3.3v-71.4c0-3.6-2.5-5-4.2-5q0 0 0 0z"/><path class="a" d="m55.4 2.1h-24.4-2.1-24.4c0 0-2.1 0-2.1 2.9v19.2 32.9 19.3c0 2.8 2.1 2.9 2.1 2.9h24.4 2.1 24.4c0 0 2.1-0.1 2.1-2.9v-19.3-32.9-19.2c0-2.9-2.1-2.9-2.1-2.9z"/><path class="m" d="m34.9 43.7q-16.3 0-32.5 0v32.7c0 2.8 2.1 2.9 2.1 2.9h50.9c0 0 2.1-0.1 2.1-2.9v-32.7q-11.3 0-22.6 0z"/><path class="n" d="m2.4 40.6q6.9 0 13.9 0 20 0 40.1 0 0.5 0 1.1 0v-35.6c0-2.9-2.1-2.9-2.1-2.9h-50.9c0 0-2.1 0-2.1 2.9v19.2z"/><path class="o" d="m57.4 5v19.2 32.8 19.3c0 2.8-2.2 2.9-2.2 2.9h-24.4-2.1-24.4c0 0-0.4-0.1-0.9-0.4 0.5 0.4 1.1 0.5 1.1 0.5h24.4 2.1 24.4c0 0 2.1-0.1 2.1-2.9v-19.3-32.9-19.2c0-2.9-2.1-2.9-2.1-2.9h-0.2c0 0 2.2 0 2.2 2.9z"/><path class="p" d="m2.5 76.4v-19.2-32.9-19.2c0-2.9 2.1-2.9 2.1-2.9h24.4 2.1 24.4c0 0 0.5 0 1 0.3-0.6-0.4-1.1-0.4-1.1-0.4h-24.4-2.1-24.4c0 0-2.1 0-2.1 2.9v19.2 32.9 19.3c0 2.8 2.1 2.9 2.1 2.9h0.1c0 0-2.1-0.1-2.1-2.9z"/><path class="q" d="m2.4 7.7v66.5q0-0.2 0.1-0.4v-16.8-48.1q-0.1-0.6-0.1-1.2z"/><path  d="m7.9 16.9c-0.2 1.4-1 2.4-1 2.4h1 0.9c0 0-0.8-1-0.9-2.4z"/><path  d="m9.6 14.8c-1.2-0.8-1.7-1.7-1.7-1.7-0.1 0-0.6 0.9-1.8 1.7-1.1 0.8-1.4 1.8-1 2.5 0.4 0.8 2.1 1.2 2.8-0.3 0.6 1.5 2.3 1.1 2.7 0.3 0.4-0.7 0.2-1.7-1-2.5z"/><path  d="m6.5 10.8q0 0.3 0 0.5 0 0.1 0.1 0.2 0.1 0.1 0.2 0.1 0.2 0.1 0.4 0.1 0.2 0.1 0.6 0.1v0.3h-3.6v-0.3q0.5-0.1 0.8-0.1 0.2 0 0.3-0.1 0.2-0.1 0.2-0.3 0.1-0.1 0.1-0.5v-3.9q0-0.2-0.1-0.3-0.1-0.1-0.2-0.1-0.2 0-0.4 0.2-0.3 0.1-0.8 0.4l-0.2-0.4 2.3-1.3h0.3q0 0.5 0 1.3z"/><path fill-rule="evenodd" d="m9.6 12.2q-1 0-1.6-0.8-0.5-0.9-0.5-2.5 0-0.9 0.2-1.6 0.1-0.7 0.4-1.1 0.3-0.4 0.7-0.6 0.4-0.2 0.9-0.2 1 0 1.6 0.8 0.5 0.8 0.5 2.5 0 1.7-0.6 2.6-0.5 0.9-1.6 0.9zm-1.1-3.5q0 1.6 0.3 2.3 0.3 0.8 0.9 0.8 0.6 0 0.9-0.7 0.2-0.7 0.2-2.2 0-1.1-0.1-1.8-0.2-0.7-0.4-1-0.3-0.3-0.6-0.3-0.4 0-0.6 0.2-0.2 0.2-0.4 0.6-0.1 0.4-0.2 0.9 0 0.5 0 1.2z"/><path  d="m52.1 64.3c0.2-1.4 1-2.4 1-2.4h-1-0.9c0 0 0.8 1 0.9 2.4z"/><path  d="m50.4 66.4c1.2 0.8 1.7 1.7 1.7 1.7 0.1 0 0.6-0.9 1.8-1.7 1.1-0.8 1.4-1.8 1-2.5-0.4-0.8-2.1-1.2-2.8 0.3-0.6-1.5-2.3-1.1-2.7-0.3-0.4 0.7-0.2 1.7 1 2.5z"/><path  d="m53.6 70.4q0-0.3-0.1-0.5 0-0.1-0.1-0.2-0.1-0.1-0.2-0.1-0.2-0.1-0.4-0.1-0.2 0-0.6-0.1v-0.3h3.6v0.3q-0.5 0.1-0.8 0.1-0.2 0.1-0.3 0.1-0.2 0.1-0.2 0.3-0.1 0.1-0.1 0.5v3.9q0 0.2 0.1 0.3 0.1 0.1 0.2 0.1 0.2 0 0.4-0.2 0.3-0.1 0.8-0.4l0.2 0.4-2.3 1.3h-0.3q0.1-0.4 0.1-1.3z"/><path fill-rule="evenodd" d="m50.4 69q1 0 1.6 0.8 0.5 0.9 0.5 2.6 0 0.8-0.2 1.5-0.1 0.7-0.4 1.1-0.3 0.4-0.7 0.6-0.4 0.2-0.9 0.2-1 0-1.6-0.8-0.5-0.8-0.5-2.5 0-1.7 0.6-2.6 0.5-0.9 1.6-0.9zm1.1 3.5q0-1.6-0.3-2.3-0.3-0.8-0.9-0.8-0.6 0-0.9 0.7-0.2 0.7-0.2 2.2 0 1.1 0.1 1.8 0.2 0.7 0.4 1 0.3 0.3 0.6 0.3 0.4 0 0.6-0.2 0.2-0.2 0.4-0.6 0.1-0.3 0.2-0.9 0-0.5 0-1.2z"/><path  d="m40 46.5c0.2-2.9 1.9-4.9 1.9-4.9h-1.9-1.8c0 0 1.6 2 1.8 4.9z"/><path  d="m36.6 50.7c2.2 1.6 3.4 3.2 3.4 3.2 0 0 1.2-1.6 3.4-3.2 2.4-1.6 2.9-3.6 2.1-5.1-0.9-1.5-4.2-2.3-5.5 0.7-1.3-3-4.6-2.2-5.4-0.7-0.9 1.5-0.3 3.5 2 5.1z"/><path  d="m40 60.6c-0.2-2.8-1.8-4.8-1.8-4.8h1.8 1.9c0 0-1.7 2-1.9 4.8z"/><path  d="m43.4 64.9c-2.2 1.5-3.4 3.2-3.4 3.2 0 0-1.2-1.7-3.4-3.2-2.3-1.6-2.9-3.6-2-5.1 0.8-1.5 4.1-2.3 5.4 0.7 1.3-3 4.6-2.2 5.5-0.7 0.8 1.5 0.3 3.5-2.1 5.1z"/><path  d="m40 20.7c-0.2 2.9-1.8 4.9-1.8 4.9h1.8 1.9c0 0-1.7-2-1.9-4.9z"/><path  d="m43.4 16.5c-2.2-1.6-3.4-3.2-3.4-3.3 0 0.1-1.2 1.7-3.4 3.3-2.3 1.6-2.9 3.6-2 5.1 0.8 1.5 4.1 2.2 5.4-0.7 1.3 2.9 4.6 2.2 5.5 0.7 0.8-1.5 0.3-3.5-2.1-5.1z"/><path  d="m40 34.9c-0.2 2.9-1.8 4.9-1.8 4.9h1.8 1.9c0 0-1.7-2-1.9-4.9z"/><path  d="m43.4 30.7c-2.2-1.6-3.4-3.2-3.4-3.3 0 0.1-1.2 1.7-3.4 3.3-2.3 1.6-2.9 3.6-2 5.1 0.8 1.5 4.1 2.2 5.4-0.8 1.3 3 4.6 2.3 5.5 0.8 0.8-1.5 0.3-3.5-2.1-5.1z"/><path  d="m19.8 46.5c0.3-2.9 1.9-4.9 1.9-4.9h-1.9-1.8c0 0 1.6 2 1.8 4.9z"/><path  d="m16.4 50.7c2.3 1.6 3.4 3.2 3.4 3.2 0.1 0 1.2-1.6 3.5-3.2 2.3-1.6 2.8-3.6 2-5.1-0.8-1.5-4.1-2.3-5.5 0.7-1.3-3-4.6-2.2-5.4-0.7-0.8 1.5-0.3 3.5 2 5.1z"/><path  d="m19.8 60.6c-0.2-2.8-1.8-4.8-1.8-4.8h1.8 1.9c0 0-1.6 2-1.9 4.8z"/><path  d="m23.3 64.9c-2.3 1.5-3.4 3.2-3.5 3.2 0 0-1.1-1.7-3.4-3.2-2.3-1.6-2.8-3.6-2-5.1 0.8-1.5 4.1-2.3 5.4 0.7 1.4-3 4.7-2.2 5.5-0.7 0.8 1.5 0.3 3.5-2 5.1z"/><path  d="m19.8 20.7c-0.2 2.9-1.8 4.9-1.8 4.9h1.8 1.9c0 0-1.6-2-1.9-4.9z"/><path  d="m23.3 16.5c-2.3-1.6-3.4-3.2-3.5-3.3 0 0.1-1.1 1.7-3.4 3.3-2.3 1.6-2.8 3.6-2 5.1 0.8 1.5 4.1 2.2 5.4-0.7 1.4 2.9 4.7 2.2 5.5 0.7 0.8-1.5 0.3-3.5-2-5.1z"/><path  d="m19.8 34.9c-0.2 2.9-1.8 4.9-1.8 4.9h1.8 1.9c0 0-1.6-2-1.9-4.9z"/><path  d="m23.3 30.7c-2.3-1.6-3.4-3.2-3.5-3.3 0 0.1-1.1 1.7-3.4 3.3-2.3 1.6-2.8 3.6-2 5.1 0.8 1.5 4.1 2.2 5.4-0.8 1.4 3 4.7 2.3 5.5 0.8 0.8-1.5 0.3-3.5-2-5.1z"/><path  d="m29.9 27.4c-0.2 2.9-1.8 4.9-1.8 4.9h1.8 1.9c0 0-1.6-2-1.9-4.9z"/><path  d="m33.4 23.2c-2.3-1.6-3.4-3.2-3.5-3.3 0 0.1-1.1 1.7-3.4 3.3-2.3 1.6-2.9 3.6-2 5.1 0.8 1.5 4.1 2.2 5.4-0.8 1.3 3 4.7 2.3 5.5 0.8 0.8-1.5 0.3-3.5-2-5.1z"/><path  d="m29.9 52.9c-0.2-2.8-1.8-4.8-1.8-4.8h1.8 1.9c0 0-1.6 2-1.9 4.8z"/><path  d="m33.4 57.1c-2.3 1.6-3.4 3.3-3.5 3.3 0 0-1.1-1.7-3.4-3.3-2.3-1.6-2.9-3.6-2-5.1 0.8-1.5 4.1-2.2 5.4 0.8 1.3-3 4.7-2.3 5.5-0.8 0.8 1.5 0.3 3.5-2 5.1z"/></svg>