<svg version="1.2" xmlns="http://www.w3.org/2000/svg" viewBox="0 0 63 85" width="63" height="85"><defs><linearGradient id="P" gradientUnits="userSpaceOnUse"/><radialGradient id="g1" cx="0" cy="0" r="1" href="#P" gradientTransform="matrix(111.619,0,0,111.619,29.099,-23.408)"><stop offset=".62" stop-color="#fff"/><stop offset="1" stop-color="#ababab"/></radialGradient><radialGradient id="g2" cx="0" cy="0" r="1" href="#P" gradientTransform="matrix(79.983,0,0,79.983,30.204,74.139)"><stop offset=".62" stop-color="#fff"/><stop offset="1" stop-color="#ababab"/></radialGradient><radialGradient id="g3" cx="0" cy="0" r="1" href="#P" gradientTransform="matrix(88.809,0,0,88.809,.026,2.872)"><stop offset=".1" stop-color="#fff"/><stop offset="1" stop-color="#ababab"/></radialGradient><radialGradient id="g4" cx="0" cy="0" r="1" href="#P" gradientTransform="matrix(75.641,0,0,75.641,17.445,25.371)"><stop stop-color="#fff"/><stop offset="1" stop-color="#fff"/></radialGradient><radialGradient id="g5" cx="0" cy="0" r="1" href="#P" gradientTransform="matrix(-23.534,0,0,-23.534,2.438,41.764)"><stop offset=".1" stop-color="#fff"/><stop offset="1" stop-color="#ababab"/></radialGradient></defs><style>.a{fill:#fff}.b{fill:#f1f1f1}.c{fill:#e2e2e2}.d{fill:#d4d4d4}.e{fill:#c5c5c5}.f{fill:#b7b7b7}.g{fill:#a8a8a8}.h{fill:#9a9a9a}.i{fill:#8b8b8b}.j{fill:#7d7d7d}.k{fill:#6e6e6e}.l{fill:#606060}.m{mix-blend-mode:multiply;fill:url(#g1)}.n{mix-blend-mode:multiply;fill:url(#g2)}.o{fill:url(#g3)}.p{mix-blend-mode:screen;fill:url(#g4)}.q{fill:url(#g5)}</style><g style="mix-blend-mode:multiply"><path class="a" d="m6.9 84.6q0 0 0 0h50.9q0 0 0 0c0.4 0 2-0.1 3.2-1.7q1-1.3 1-3.3v-71.4c0-3.6-2.5-5-4.2-5q0 0 0 0h-50.9q0 0 0 0c-1.7 0-4.2 1.4-4.2 5v2.6q0 0 0 0.1v66.5q0 0.1 0 0.1v2.1c0 3.6 2.5 5 4.2 5z"/><path class="b" d="m6.6 84.4q0.1 0 0.1 0h50.9q0 0 0 0c0.3 0 2-0.1 3.2-1.7q1-1.3 1-3.3v-71.4c0-3.6-2.5-5-4.2-5q0 0 0 0h-50.9q0 0-0.1 0c-1.6 0-4.1 1.4-4.1 5v2.6q0 0 0 0.1v66.5q0 0.1 0 0.1v2.1c0 3.6 2.5 4.9 4.1 5z"/><path class="c" d="m6.4 84.2q0.1 0 0.1 0h50.9q0 0 0 0c0.3 0 2-0.2 3.2-1.7q1-1.3 1-3.3v-71.4c0-3.6-2.5-5-4.2-5q0 0 0 0h-50.9q0 0-0.1 0c-1.7 0-4.2 1.4-4.2 5v2.6q0 0 0 0v66.6q0 0.1 0 0.1v2.1c0 3.6 2.5 4.9 4.2 5z"/><path class="d" d="m6.2 83.9q0 0 0.1 0h50.8q0.1 0 0.1 0c0.3 0 2-0.1 3.1-1.6q1.1-1.3 1.1-3.3v-71.5c0-3.5-2.5-4.9-4.2-5q0 0-0.1 0h-50.8q-0.1 0-0.1 0c-1.7 0.1-4.2 1.5-4.2 5v2.6q0 0.1 0 0.1v66.6q0 0 0 0.1v2.1c0 3.5 2.5 4.9 4.2 4.9z"/><path class="e" d="m6 83.7q0 0 0 0h50.9q0 0 0.1 0c0.3 0 1.9-0.1 3.1-1.6q1.1-1.3 1.1-3.4v-71.4c0-3.6-2.5-4.9-4.2-5q-0.1 0-0.1 0h-50.9q0 0 0 0c-1.7 0.1-4.2 1.4-4.2 5v2.6q0 0.1 0 0.1v66.6q0 0 0 0.1v2c0 3.6 2.5 5 4.2 5z"/><path class="f" d="m5.8 83.5q0 0 0 0h50.9q0 0 0.1 0c0.3 0 1.9-0.1 3.1-1.6q1-1.4 1-3.4v-71.4c0-3.6-2.5-4.9-4.1-5q-0.1 0-0.1 0h-50.9q0 0 0 0c-1.7 0.1-4.2 1.4-4.2 5v2.6q0 0.1 0 0.1v66.6q0 0 0 0v2.1c0 3.6 2.5 5 4.2 5z"/><path class="g" d="m5.6 83.3q0 0 0 0h50.9q0 0 0 0c0.4 0 2-0.1 3.2-1.7q1-1.3 1-3.3v-71.4c0-3.6-2.5-5-4.2-5q0 0 0 0h-50.9q0 0 0 0c-1.7 0-4.2 1.4-4.2 5v2.6q0 0 0 0.1v66.5q0 0.1 0 0.1v2.1c0 3.6 2.5 4.9 4.2 5z"/><path class="h" d="m5.3 83.1q0.1 0 0.1 0h50.9q0 0 0 0c0.3 0 2-0.2 3.2-1.7q1-1.3 1-3.3v-71.4c0-3.6-2.5-5-4.2-5q0 0 0 0h-50.9q0 0-0.1 0c-1.6 0-4.1 1.4-4.1 5v2.6q0 0 0 0.1v66.5q0 0.1 0 0.1v2.1c0 3.6 2.5 4.9 4.1 5z"/><path class="i" d="m5.1 82.9q0 0 0.1 0h50.8q0.1 0 0.1 0c0.3-0.1 2-0.2 3.2-1.7q1-1.3 1-3.3v-71.5c0-3.5-2.5-4.9-4.2-4.9q0 0-0.1 0h-50.8q-0.1 0-0.1 0c-1.7 0-4.2 1.4-4.2 4.9v2.7q0 0 0 0v66.6q0 0 0 0.1v2.1c0 3.5 2.5 4.9 4.2 5z"/><path class="j" d="m4.9 82.6q0 0 0.1 0h50.8q0.1 0 0.1 0c0.3 0 2-0.1 3.1-1.6q1.1-1.3 1.1-3.3v-71.5c0-3.5-2.5-4.9-4.2-5q0 0-0.1 0h-50.8q-0.1 0-0.1 0c-1.7 0.1-4.2 1.5-4.2 5v2.6q0 0.1 0 0.1v66.6q0 0 0 0.1v2.1c0 3.5 2.5 4.9 4.2 4.9z"/><path class="k" d="m4.7 82.4q0 0 0 0h50.9q0 0 0.1 0c0.3 0 1.9-0.1 3.1-1.6q1-1.4 1-3.4v-71.4c0-3.6-2.5-4.9-4.1-5q-0.1 0-0.1 0h-50.9q0 0 0 0c-1.7 0.1-4.2 1.4-4.2 5v2.6q0 0.1 0 0.1v66.6q0 0 0 0.1v2c0 3.6 2.5 5 4.2 5z"/><path class="l" d="m4.5 82.2q0 0 0 0h50.9q0 0 0 0c0.4 0 2-0.1 3.2-1.7q1-1.3 1-3.3v-71.4c0-3.6-2.5-5-4.2-5q0 0 0 0h-50.9q0 0 0 0c-1.7 0-4.2 1.4-4.2 5v2.6q0 0 0 0.1v66.5q0 0.1 0 0.1v2.1c0 3.6 2.5 5 4.2 5z"/></g><path class="a" d="m4.5 82.2q0 0 0 0h50.9q0 0 0 0c0.4 0 2-0.1 3.2-1.7q1-1.3 1-3.3v-71.4c0-3.6-2.5-5-4.2-5q0 0 0 0h-50.9q0 0 0 0c-1.7 0-4.2 1.4-4.2 5v2.6q0 0 0 0.1v66.5q0 0.1 0 0.1v2.1c0 3.6 2.5 5 4.2 5z"/><path class="a" d="m55.4 2.9h-24.4-2.1-24.4c0 0-2.1 0.1-2.1 2.9v19.2 33 19.2c0 2.8 2.1 2.9 2.1 2.9h24.4 2.1 24.4c0 0 2.1-0.1 2.1-2.9v-19.2-33-19.2c0-2.8-2.1-2.9-2.1-2.9z"/><path class="m" d="m34.9 44.6q-16.3 0-32.5 0v32.6c0 2.8 2.1 2.9 2.1 2.9h50.9c0 0 2.1-0.1 2.1-2.9v-32.6q-11.3 0-22.6 0z"/><path class="n" d="m2.4 41.4q6.9 0 13.9 0 20.1 0 40.1 0 0.6 0 1.1 0v-35.6c0-2.8-2.1-2.9-2.1-2.9h-50.9c0 0-2.1 0.1-2.1 2.9v19.2z"/><path class="o" d="m57.4 5.8v19.2 32.9 19.2c0 2.8-2.1 2.9-2.1 2.9h-24.4-2.1-24.4c0 0-0.5 0-1-0.3 0.5 0.4 1.1 0.4 1.1 0.4h24.4 2.1 24.4c0 0 2.1-0.1 2.1-2.9v-19.2-33-19.2c0-2.8-2.1-2.9-2.1-2.9h-0.1c0 0 2.1 0.1 2.1 2.9z"/><path class="p" d="m2.5 77.2v-19.2-32.9-19.2c0-2.8 2.1-2.9 2.1-2.9h24.5 2 24.5c0 0 0.4 0 0.9 0.3-0.5-0.4-1.1-0.4-1.1-0.4h-24.4-2.1-24.4c0 0-2.1 0.1-2.1 2.9v19.2 33 19.2c0 2.8 2.1 2.9 2.1 2.9h0.1c0 0-2.1-0.1-2.1-2.9z"/><path class="q" d="m2.4 8.5v66.5q0-0.2 0.1-0.4v-16.7-48.2q-0.1-0.6-0.1-1.2z"/><path  d="m6.6 17.7c-0.1 1.5-1 2.5-1 2.5h1 0.9c0 0-0.8-1-0.9-2.5z"/><path  d="m8.3 15.6c-1.1-0.8-1.7-1.6-1.7-1.6 0 0-0.6 0.8-1.8 1.6-1.1 0.8-1.4 1.8-1 2.6 0.4 0.7 2.1 1.1 2.8-0.4 0.6 1.5 2.3 1.1 2.7 0.4 0.4-0.8 0.2-1.8-1-2.6z"/><path  d="m4.6 7.7v-1q0.6-0.2 1.1-0.4 0.5-0.1 0.9-0.1 0.6 0 1 0.2 0.4 0.2 0.6 0.5 0.3 0.3 0.3 0.7 0 0.5-0.2 0.8-0.2 0.3-0.5 0.5-0.3 0.3-0.7 0.5 0.3 0.1 0.5 0.2 0.3 0.1 0.5 0.3 0.2 0.2 0.4 0.5 0.1 0.3 0.1 0.7 0 0.5-0.3 1-0.2 0.4-0.7 0.7-0.5 0.2-1.2 0.2-0.5 0-0.9-0.1-0.5-0.1-0.9-0.2v-1.1h0.5q0.2 0.6 0.5 0.8 0.3 0.2 0.8 0.2 0.6 0 0.9-0.3 0.3-0.4 0.3-1.1 0-0.7-0.4-1-0.4-0.4-1.2-0.4h-0.5v-0.4q0.7-0.1 1.1-0.3 0.5-0.2 0.7-0.6 0.2-0.3 0.2-0.7 0-0.5-0.3-0.8-0.3-0.3-0.8-0.3-0.5 0-0.8 0.2-0.2 0.3-0.4 0.8z"/><path  d="m53.2 65.1c0.1-1.4 0.9-2.4 0.9-2.4h-0.9-1c0 0 0.8 1 1 2.4z"/><path  d="m51.4 67.3c1.2 0.8 1.7 1.6 1.8 1.6 0 0 0.5-0.8 1.7-1.6 1.2-0.8 1.4-1.8 1-2.6-0.4-0.8-2.1-1.1-2.7 0.4-0.7-1.5-2.4-1.2-2.8-0.4-0.4 0.8-0.1 1.8 1 2.6z"/><path  d="m55.1 75.2v0.9q-0.6 0.3-1.1 0.4-0.5 0.2-0.9 0.2-0.6 0-1-0.2-0.4-0.2-0.6-0.5-0.2-0.3-0.2-0.8 0-0.4 0.1-0.7 0.2-0.3 0.5-0.5 0.3-0.3 0.8-0.5v-0.1q-0.3 0-0.6-0.1-0.3-0.2-0.5-0.4-0.2-0.2-0.3-0.5-0.2-0.2-0.2-0.6 0-0.6 0.3-1 0.2-0.5 0.7-0.7 0.5-0.3 1.3-0.3 0.4 0 0.9 0.1 0.5 0.1 0.9 0.3v1h-0.6q-0.2-0.5-0.5-0.7-0.2-0.2-0.7-0.2-0.7 0-1 0.3-0.3 0.3-0.3 1 0 0.7 0.4 1.1 0.4 0.4 1.3 0.4h0.4v0.4q-0.6 0.1-1.1 0.3-0.4 0.2-0.7 0.5-0.2 0.4-0.2 0.8 0 0.5 0.3 0.8 0.3 0.3 0.8 0.3 0.5 0 0.8-0.2 0.3-0.3 0.4-0.8z"/><path  d="m30 21.6c-0.3 2.8-1.9 4.8-1.9 4.8h1.9 1.8c0 0-1.6-2-1.8-4.8z"/><path  d="m33.4 17.3c-2.3-1.5-3.4-3.2-3.4-3.2-0.1 0-1.2 1.7-3.5 3.2-2.3 1.6-2.8 3.6-2 5.1 0.8 1.5 4.1 2.3 5.5-0.7 1.3 3 4.6 2.2 5.4 0.7 0.8-1.5 0.3-3.5-2-5.1z"/><path  d="m30 42.8c-0.3 2.9-1.9 4.9-1.9 4.9h1.9 1.8c0 0-1.6-2-1.8-4.9z"/><path  d="m33.4 38.6c-2.3-1.6-3.4-3.2-3.4-3.2-0.1 0-1.2 1.6-3.5 3.2-2.3 1.6-2.8 3.6-2 5.1 0.8 1.5 4.1 2.3 5.5-0.7 1.3 3 4.6 2.2 5.4 0.7 0.8-1.5 0.3-3.5-2-5.1z"/><path  d="m30 61.5c-0.3-2.9-1.9-4.9-1.9-4.9h1.9 1.8c0 0-1.6 2-1.8 4.9z"/><path  d="m33.4 65.7c-2.3 1.6-3.4 3.2-3.4 3.3-0.1-0.1-1.2-1.7-3.5-3.3-2.3-1.6-2.8-3.6-2-5.1 0.8-1.5 4.1-2.2 5.5 0.8 1.3-3 4.6-2.3 5.4-0.8 0.8 1.5 0.3 3.5-2 5.1z"/></svg>