<svg version="1.2" xmlns="http://www.w3.org/2000/svg" viewBox="0 0 63 84" width="63" height="84"><defs><linearGradient id="P" gradientUnits="userSpaceOnUse"/><radialGradient id="g1" cx="0" cy="0" r="1" href="#P" gradientTransform="matrix(111.619,0,0,111.619,29.126,-24.241)"><stop offset=".62" stop-color="#fff"/><stop offset="1" stop-color="#ababab"/></radialGradient><radialGradient id="g2" cx="0" cy="0" r="1" href="#P" gradientTransform="matrix(79.983,0,0,79.983,30.23,73.307)"><stop offset=".62" stop-color="#fff"/><stop offset="1" stop-color="#ababab"/></radialGradient><radialGradient id="g3" cx="0" cy="0" r="1" href="#P" gradientTransform="matrix(88.809,0,0,88.809,.052,2.04)"><stop offset=".1" stop-color="#fff"/><stop offset="1" stop-color="#ababab"/></radialGradient><radialGradient id="g4" cx="0" cy="0" r="1" href="#P" gradientTransform="matrix(75.641,0,0,75.641,17.471,24.539)"><stop stop-color="#fff"/><stop offset="1" stop-color="#fff"/></radialGradient><radialGradient id="g5" cx="0" cy="0" r="1" href="#P" gradientTransform="matrix(-23.536,0,0,-23.536,2.465,40.931)"><stop offset=".1" stop-color="#fff"/><stop offset="1" stop-color="#ababab"/></radialGradient></defs><style>.a{fill:#fff}.b{fill:#f1f1f1}.c{fill:#e2e2e2}.d{fill:#d4d4d4}.e{fill:#c5c5c5}.f{fill:#b7b7b7}.g{fill:#a8a8a8}.h{fill:#9a9a9a}.i{fill:#8b8b8b}.j{fill:#7d7d7d}.k{fill:#6e6e6e}.l{fill:#606060}.m{mix-blend-mode:multiply;fill:url(#g1)}.n{mix-blend-mode:multiply;fill:url(#g2)}.o{fill:url(#g3)}.p{mix-blend-mode:screen;fill:url(#g4)}.q{fill:url(#g5)}</style><g style="mix-blend-mode:multiply"><path class="a" d="m57.8 2.4h-50.9q0 0 0 0c-1.7 0-4.2 1.4-4.2 5v2.6q0 0 0 0.1v66.5q0 0.1 0 0.1v2.1c0 3.6 2.5 4.9 4.2 5q0 0 0 0h50.9q0 0 0.1 0c0.3 0 1.9-0.2 3.1-1.7q1.1-1.3 1.1-3.3v-71.4c0-3.6-2.5-5-4.2-5q-0.1 0-0.1 0z"/><path class="b" d="m57.6 2.2h-50.9q0 0 0 0c-1.7 0-4.2 1.4-4.2 4.9v2.7q0 0 0 0v66.6q0 0 0 0.1v2.1c0 3.5 2.5 4.9 4.2 5q0 0 0 0h50.9q0 0 0.1 0c0.3-0.1 1.9-0.2 3.1-1.7q1-1.3 1-3.3v-71.5c0-3.5-2.5-4.9-4.1-4.9q-0.1 0-0.1 0z"/><path class="c" d="m57.4 1.9h-50.9q0 0 0 0c-1.7 0.1-4.2 1.4-4.2 5v2.6q0 0.1 0 0.1v66.6q0 0 0 0.1v2c0 3.6 2.5 5 4.2 5q0 0 0 0h50.9q0 0 0 0c0.4 0 2-0.1 3.2-1.6q1-1.3 1-3.4v-71.4c0-3.6-2.5-4.9-4.2-5q0 0 0 0z"/><path class="d" d="m57.2 1.7h-50.9q0 0-0.1 0c-1.6 0.1-4.1 1.4-4.1 5v2.6q0 0.1 0 0.1v66.6q0 0 0 0v2.1c0 3.6 2.5 5 4.1 5q0.1 0 0.1 0h50.9q0 0 0 0c0.3 0 2-0.1 3.2-1.6q1-1.4 1-3.4v-71.4c0-3.6-2.5-4.9-4.2-5q0 0 0 0z"/><path class="e" d="m56.9 1.5h-50.8q-0.1 0-0.1 0c-1.7 0-4.2 1.4-4.2 5v2.6q0 0 0 0.1v66.5q0 0.1 0 0.1v2.1c0 3.6 2.5 4.9 4.2 5q0 0 0.1 0h50.8q0.1 0 0.1 0c0.3 0 2-0.1 3.2-1.7q1-1.3 1-3.3v-71.4c0-3.6-2.5-5-4.2-5q0 0-0.1 0z"/><path class="f" d="m56.7 1.3h-50.8q-0.1 0-0.1 0c-1.7 0-4.2 1.4-4.2 5v2.6q0 0 0 0.1v66.5q0 0.1 0 0.1v2.1c0 3.6 2.5 4.9 4.2 5q0 0 0.1 0h50.8q0.1 0 0.1 0c0.3 0 2-0.2 3.1-1.7q1.1-1.3 1.1-3.3v-71.4c0-3.6-2.5-5-4.2-5q0 0-0.1 0z"/><path class="g" d="m56.5 1.1h-50.9q0 0 0 0c-1.7 0-4.2 1.4-4.2 4.9v2.7q0 0 0 0v66.6q0 0 0 0.1v2.1c0 3.5 2.5 4.9 4.2 5q0 0 0 0h50.9q0 0 0.1 0c0.3 0 1.9-0.2 3.1-1.7q1-1.3 1-3.3v-71.5c0-3.5-2.5-4.9-4.1-4.9q-0.1 0-0.1 0z"/><path class="h" d="m56.3 0.8h-50.9q0 0 0 0c-1.7 0.1-4.2 1.5-4.2 5v2.6q0 0.1 0 0.1v66.6q0 0 0 0.1v2.1c0 3.5 2.5 4.9 4.2 4.9q0 0 0 0h50.9q0 0 0 0c0.4 0 2-0.1 3.2-1.6q1-1.3 1-3.3v-71.5c0-3.5-2.5-4.9-4.2-5q0 0 0 0z"/><path class="i" d="m56.1 0.6h-50.9q0 0-0.1 0c-1.6 0.1-4.1 1.4-4.1 5v2.6q0 0.1 0 0.1v66.6q0 0 0 0.1v2c0 3.6 2.5 5 4.1 5q0.1 0 0.1 0h50.9q0 0 0 0c0.3 0 2-0.1 3.2-1.6q1-1.4 1-3.4v-71.4c0-3.6-2.5-4.9-4.2-5q0 0 0 0z"/><path class="j" d="m55.8 0.4h-50.8q0 0-0.1 0c-1.7 0.1-4.2 1.4-4.2 5v2.6q0 0 0 0.1v66.5q0 0.1 0 0.1v2.1c0 3.6 2.5 5 4.2 5q0.1 0 0.1 0h50.8q0.1 0 0.1 0c0.3 0 2-0.1 3.2-1.6q1-1.4 1-3.4v-71.4c0-3.6-2.5-4.9-4.2-5q0 0-0.1 0z"/><path class="k" d="m55.6 0.2h-50.8q-0.1 0-0.1 0c-1.7 0-4.2 1.4-4.2 5v2.6q0 0 0 0.1v66.5q0 0.1 0 0.1v2.1c0 3.6 2.5 4.9 4.2 5q0 0 0.1 0h50.8q0.1 0 0.1 0c0.3 0 2-0.1 3.1-1.7q1.1-1.3 1.1-3.3v-71.4c0-3.6-2.5-5-4.2-5q0 0-0.1 0z"/><path class="l" d="m55.4 0h-50.9q0 0 0 0c-1.7 0-4.2 1.4-4.2 5v2.6q0 0 0 0.1v66.5q0 0.1 0 0.1v2.1c0 3.6 2.5 4.9 4.2 5q0 0 0 0h50.9q0 0 0.1 0c0.3 0 1.9-0.2 3.1-1.7q1-1.3 1.1-3.3v-71.4c0-3.6-2.5-5-4.2-5q-0.1 0-0.1 0z"/></g><path class="a" d="m55.4 0h-50.9q0 0 0 0c-1.7 0-4.2 1.4-4.2 5v2.6q0 0 0 0.1v66.5q0 0.1 0 0.1v2.1c0 3.6 2.5 4.9 4.2 5q0 0 0 0h50.9q0 0 0.1 0c0.3 0 1.9-0.2 3.1-1.7q1-1.3 1.1-3.3v-71.4c0-3.6-2.5-5-4.2-5q-0.1 0-0.1 0z"/><path class="a" d="m55.4 2.1h-24.4-2.1-24.4c0 0-2.1 0-2.1 2.9v19.2 32.9 19.3c0 2.8 2.1 2.9 2.1 2.9h24.4 2.1 24.4c0 0 2.1-0.1 2.1-2.9v-19.3-32.9-19.2c0-2.9-2.1-2.9-2.1-2.9z"/><path class="m" d="m34.9 43.7q-16.2 0-32.5 0v32.7c0 2.8 2.1 2.9 2.1 2.9h50.9c0 0 2.1-0.1 2.1-2.9v-32.7q-11.3 0-22.6 0z"/><path class="n" d="m2.4 40.6q7 0 13.9 0 20.1 0 40.1 0 0.6 0 1.1 0v-35.6c0-2.9-2.1-2.9-2.1-2.9h-50.9c0 0-2.1 0-2.1 2.9v19.2z"/><path class="o" d="m57.4 5v19.2 32.8 19.3c0 2.8-2.1 2.9-2.1 2.9h-24.4-2.1-24.4c0 0-0.5-0.1-1-0.4 0.6 0.4 1.1 0.5 1.1 0.5h24.4 2.1 24.4c0 0 2.1-0.1 2.1-2.9v-19.3-32.9-19.2c0-2.9-2.1-2.9-2.1-2.9h-0.1c0 0 2.1 0 2.1 2.9z"/><path class="p" d="m2.5 76.4v-19.2-32.9-19.2c0-2.9 2.2-2.9 2.2-2.9h24.4 2.1 24.4c0 0 0.4 0 0.9 0.3-0.5-0.4-1.1-0.4-1.1-0.4h-24.4-2.1-24.4c0 0-2.1 0-2.1 2.9v19.2 32.9 19.3c0 2.8 2.1 2.9 2.1 2.9h0.2c0 0-2.2-0.1-2.2-2.9z"/><path class="q" d="m2.4 7.7v66.5q0.1-0.2 0.1-0.4v-16.8-48.1q0-0.6-0.1-1.2z"/><path  d="m6.5 16.9c-0.1 1.4-0.9 2.4-0.9 2.4h0.9 1c0 0-0.9-1-1-2.4z"/><path  d="m8.3 14.8c-1.2-0.8-1.8-1.7-1.8-1.7 0 0-0.6 0.9-1.7 1.7-1.2 0.8-1.4 1.8-1 2.5 0.4 0.8 2.1 1.2 2.7-0.3 0.7 1.5 2.4 1.1 2.8 0.3 0.4-0.7 0.1-1.7-1-2.5z"/><path fill-rule="evenodd" d="m8.1 5.7v0.2q-0.7 0-1.3 0.3-0.6 0.3-1 1-0.3 0.6-0.5 1.4v0.1q0.5-0.3 0.9-0.5 0.4-0.1 0.8-0.1 0.6 0 1 0.2 0.3 0.3 0.5 0.7 0.2 0.5 0.2 1 0 0.7-0.2 1.2-0.3 0.4-0.8 0.7-0.5 0.3-1.2 0.3-1.1 0-1.6-0.7-0.6-0.6-0.6-1.9 0-0.9 0.3-1.6 0.3-0.8 0.8-1.4 0.5-0.5 1.1-0.9 0.7-0.3 1.4-0.3zm-1.4 2.9q-0.3 0-0.5 0.1-0.2 0-0.4 0.1-0.2 0.2-0.4 0.3 0 0.1-0.1 0.1 0 0.1 0 0.2 0 0.2 0 0.5 0 0.9 0.3 1.4 0.3 0.5 0.9 0.5 0.4 0 0.6-0.1 0.3-0.1 0.4-0.4 0.2-0.2 0.2-0.5 0.1-0.3 0.1-0.6 0-0.8-0.3-1.2-0.3-0.4-0.8-0.4z"/><path  d="m53.1 64.3c0.1-1.4 1-2.4 1-2.4h-1-0.9c0 0 0.8 1 0.9 2.4z"/><path  d="m51.4 66.4c1.1 0.8 1.7 1.7 1.7 1.7 0 0 0.6-0.9 1.8-1.7 1.1-0.8 1.4-1.8 1-2.5-0.4-0.8-2.1-1.2-2.8 0.3-0.6-1.5-2.3-1.1-2.7-0.3-0.4 0.7-0.2 1.7 1 2.5z"/><path fill-rule="evenodd" d="m51.5 75.6v-0.3q0.8 0 1.4-0.3 0.5-0.3 0.9-1 0.4-0.6 0.6-1.4l-0.1-0.1q-0.4 0.3-0.8 0.5-0.4 0.1-0.9 0.1-0.5 0-0.9-0.2-0.4-0.3-0.6-0.7-0.2-0.4-0.2-1 0-0.7 0.3-1.1 0.2-0.5 0.7-0.8 0.5-0.3 1.3-0.3 1 0 1.6 0.7 0.5 0.6 0.5 1.9 0 0.9-0.2 1.7-0.3 0.7-0.8 1.3-0.5 0.5-1.2 0.9-0.6 0.3-1.4 0.3zm1.5-2.9q0.2 0 0.4-0.1 0.3 0 0.5-0.1 0.2-0.1 0.3-0.3 0.1-0.1 0.1-0.1 0.1-0.1 0.1-0.2 0-0.2 0-0.5 0-0.9-0.3-1.4-0.3-0.5-1-0.5-0.3 0-0.6 0.1-0.2 0.1-0.4 0.4-0.1 0.2-0.2 0.5-0.1 0.3-0.1 0.6 0 0.8 0.3 1.2 0.3 0.4 0.9 0.4z"/><path  d="m20 42c-0.2 2.9-1.8 4.9-1.8 4.9h1.8 1.9c0 0-1.6-2-1.9-4.9z"/><path  d="m23.5 37.8c-2.3-1.6-3.4-3.2-3.5-3.3 0 0.1-1.1 1.7-3.4 3.3-2.3 1.6-2.8 3.6-2 5.1 0.8 1.5 4.1 2.2 5.4-0.8 1.4 3 4.7 2.3 5.5 0.8 0.8-1.5 0.3-3.5-2-5.1z"/><path  d="m20 60.6c-0.2-2.8-1.8-4.8-1.8-4.8h1.8 1.9c0 0-1.6 2-1.9 4.8z"/><path  d="m23.5 64.9c-2.3 1.5-3.4 3.2-3.5 3.2 0 0-1.1-1.7-3.4-3.2-2.3-1.6-2.8-3.6-2-5.1 0.8-1.5 4.1-2.3 5.4 0.7 1.4-3 4.7-2.2 5.5-0.7 0.8 1.5 0.3 3.5-2 5.1z"/><path  d="m20 20.7c-0.2 2.9-1.8 4.9-1.8 4.9h1.8 1.9c0 0-1.6-2-1.9-4.9z"/><path  d="m23.5 16.5c-2.3-1.6-3.4-3.2-3.5-3.3 0 0.1-1.1 1.7-3.4 3.3-2.3 1.6-2.8 3.6-2 5.1 0.8 1.5 4.1 2.2 5.4-0.7 1.4 2.9 4.7 2.2 5.5 0.7 0.8-1.5 0.3-3.5-2-5.1z"/><path  d="m40 42c-0.2 2.9-1.8 4.9-1.8 4.9h1.8 1.8c0 0-1.6-2-1.8-4.9z"/><path  d="m43.4 37.8c-2.2-1.6-3.4-3.2-3.4-3.3 0 0.1-1.2 1.7-3.4 3.3-2.4 1.6-2.9 3.6-2.1 5.1 0.9 1.5 4.2 2.2 5.5-0.8 1.3 3 4.6 2.3 5.5 0.8 0.8-1.5 0.3-3.5-2.1-5.1z"/><path  d="m40 60.6c-0.2-2.8-1.8-4.8-1.8-4.8h1.8 1.8c0 0-1.6 2-1.8 4.8z"/><path  d="m43.4 64.9c-2.2 1.5-3.4 3.2-3.4 3.2 0 0-1.2-1.7-3.4-3.2-2.4-1.6-2.9-3.6-2.1-5.1 0.9-1.5 4.2-2.3 5.5 0.7 1.3-3 4.6-2.2 5.5-0.7 0.8 1.5 0.3 3.5-2.1 5.1z"/><path  d="m40 20.7c-0.2 2.9-1.8 4.9-1.8 4.9h1.8 1.8c0 0-1.6-2-1.8-4.9z"/><path  d="m43.4 16.5c-2.2-1.6-3.4-3.2-3.4-3.3 0 0.1-1.2 1.7-3.4 3.3-2.4 1.6-2.9 3.6-2.1 5.1 0.9 1.5 4.2 2.2 5.5-0.7 1.3 2.9 4.6 2.2 5.5 0.7 0.8-1.5 0.3-3.5-2.1-5.1z"/></svg>