<svg version="1.2" xmlns="http://www.w3.org/2000/svg" viewBox="0 0 63 85" width="63" height="85"><defs><linearGradient id="P" gradientUnits="userSpaceOnUse"/><radialGradient id="g1" cx="0" cy="0" r="1" href="#P" gradientTransform="matrix(111.619,0,0,111.619,29.126,-23.408)"><stop offset=".62" stop-color="#fff"/><stop offset="1" stop-color="#ababab"/></radialGradient><radialGradient id="g2" cx="0" cy="0" r="1" href="#P" gradientTransform="matrix(79.983,0,0,79.983,30.23,74.139)"><stop offset=".62" stop-color="#fff"/><stop offset="1" stop-color="#ababab"/></radialGradient><radialGradient id="g3" cx="0" cy="0" r="1" href="#P" gradientTransform="matrix(88.809,0,0,88.809,.052,2.872)"><stop offset=".1" stop-color="#fff"/><stop offset="1" stop-color="#ababab"/></radialGradient><radialGradient id="g4" cx="0" cy="0" r="1" href="#P" gradientTransform="matrix(75.641,0,0,75.641,17.471,25.371)"><stop stop-color="#fff"/><stop offset="1" stop-color="#fff"/></radialGradient><radialGradient id="g5" cx="0" cy="0" r="1" href="#P" gradientTransform="matrix(-23.536,0,0,-23.536,2.465,41.764)"><stop offset=".1" stop-color="#fff"/><stop offset="1" stop-color="#ababab"/></radialGradient></defs><style>.a{fill:#fff}.b{fill:#f1f1f1}.c{fill:#e2e2e2}.d{fill:#d4d4d4}.e{fill:#c5c5c5}.f{fill:#b7b7b7}.g{fill:#a8a8a8}.h{fill:#9a9a9a}.i{fill:#8b8b8b}.j{fill:#7d7d7d}.k{fill:#6e6e6e}.l{fill:#606060}.m{mix-blend-mode:multiply;fill:url(#g1)}.n{mix-blend-mode:multiply;fill:url(#g2)}.o{fill:url(#g3)}.p{mix-blend-mode:screen;fill:url(#g4)}.q{fill:url(#g5)}</style><g style="mix-blend-mode:multiply"><path class="a" d="m6.9 84.6q0 0 0 0h50.9q0 0 0.1 0c0.3 0 1.9-0.1 3.1-1.7q0.1-0.1 0.2-0.1 0-0.1 0-0.1 0.9-1.3 0.9-3.1v-71.4c0-3.6-2.5-5-4.2-5q-0.1 0-0.1 0h-50.9q0 0 0 0c-1.7 0-4.2 1.4-4.2 5v2.6q0 0 0 0.1v66.5q0 0.1 0 0.1v2.1c0 3.6 2.5 5 4.2 5z"/><path class="b" d="m6.7 84.4q0 0 0 0h50.9q0 0 0.1 0c0.3 0 1.9-0.1 3.1-1.7q0.1-0.1 0.1-0.2 0.1 0 0.1 0 0.8-1.3 0.8-3.1v-71.4c0-3.6-2.5-5-4.1-5q-0.1 0-0.1 0h-50.9q0 0 0 0c-1.7 0-4.2 1.4-4.2 5v2.6q0 0 0 0.1v66.5q0 0.1 0 0.1v2.1c0 3.6 2.5 4.9 4.2 5z"/><path class="c" d="m6.5 84.2q0 0 0 0h50.9q0 0 0 0c0.4 0 2-0.2 3.2-1.7q0.1-0.1 0.1-0.2 0 0 0.1 0 0.8-1.3 0.8-3.1v-71.4c0-3.6-2.5-5-4.2-5q0 0 0 0h-50.9q0 0 0 0c-1.7 0-4.2 1.4-4.2 5v2.6q0 0 0 0v66.6q0 0.1 0 0.1v2.1c0 3.6 2.5 4.9 4.2 5z"/><path class="d" d="m6.2 83.9q0.1 0 0.1 0h50.9q0 0 0 0c0.3 0 2-0.1 3.2-1.6q0-0.1 0.1-0.2 0 0 0 0 0.9-1.3 0.9-3.1v-71.5c0-3.5-2.5-4.9-4.2-5q0 0 0 0h-50.9q0 0-0.1 0c-1.6 0.1-4.1 1.5-4.1 5v2.6q0 0.1 0 0.1v66.6q0 0 0 0.1v2.1c0 3.5 2.5 4.9 4.1 4.9z"/><path class="e" d="m6 83.7q0 0 0.1 0h50.8q0.1 0 0.1 0c0.3 0 2-0.1 3.2-1.6q0-0.1 0.1-0.2 0 0 0-0.1 0.9-1.2 0.9-3.1v-71.4c0-3.6-2.5-4.9-4.2-5q0 0-0.1 0h-50.8q-0.1 0-0.1 0c-1.7 0.1-4.2 1.4-4.2 5v2.6q0 0.1 0 0.1v66.6q0 0 0 0.1v2c0 3.6 2.5 5 4.2 5z"/><path class="f" d="m5.8 83.5q0 0 0.1 0h50.8q0.1 0 0.1 0c0.3 0 2-0.1 3.1-1.6q0.1-0.1 0.2-0.2 0-0.1 0-0.1 0.9-1.2 0.9-3.1v-71.4c0-3.6-2.5-4.9-4.2-5q0 0-0.1 0h-50.8q-0.1 0-0.1 0c-1.7 0.1-4.2 1.4-4.2 5v2.6q0 0.1 0 0.1v66.6q0 0 0 0v2.1c0 3.6 2.5 5 4.2 5z"/><path class="g" d="m5.6 83.3q0 0 0 0h50.9q0 0 0.1 0c0.3 0 1.9-0.1 3.1-1.7q0.1-0.1 0.2-0.2 0 0 0 0 0.8-1.3 0.8-3.1v-71.4c0-3.6-2.5-5-4.1-5q-0.1 0-0.1 0h-50.9q0 0 0 0c-1.7 0-4.2 1.4-4.2 5v2.6q0 0 0 0.1v66.5q0 0.1 0 0.1v2.1c0 3.6 2.5 4.9 4.2 5z"/><path class="h" d="m5.4 83.1q0 0 0 0h50.9q0 0 0 0c0.4 0 2-0.2 3.2-1.7q0.1-0.1 0.1-0.2 0.1 0 0.1 0 0.8-1.3 0.8-3.1v-71.4c0-3.6-2.5-5-4.2-5q0 0 0 0h-50.9q0 0 0 0c-1.7 0-4.2 1.4-4.2 5v2.6q0 0 0 0.1v66.5q0 0.1 0 0.1v2.1c0 3.6 2.5 4.9 4.2 5z"/><path class="i" d="m5.1 82.9q0.1 0 0.1 0h50.9q0 0 0 0c0.3-0.1 2-0.2 3.2-1.7q0.1-0.1 0.1-0.2 0 0 0.1 0 0.8-1.3 0.8-3.1v-71.5c0-3.5-2.5-4.9-4.2-4.9q0 0 0 0h-50.9q0 0-0.1 0c-1.6 0-4.1 1.4-4.1 4.9v2.7q0 0 0 0v66.6q0 0 0 0.1v2.1c0 3.5 2.5 4.9 4.1 5z"/><path class="j" d="m4.9 82.6q0.1 0 0.1 0h50.8q0.1 0 0.1 0c0.3 0 2-0.1 3.2-1.6q0-0.1 0.1-0.2 0 0 0-0.1 0.9-1.2 0.9-3v-71.5c0-3.5-2.5-4.9-4.2-5q0 0-0.1 0h-50.8q0 0-0.1 0c-1.7 0.1-4.2 1.5-4.2 5v2.6q0 0.1 0 0.1v66.6q0 0 0 0.1v2.1c0 3.5 2.5 4.9 4.2 4.9z"/><path class="k" d="m4.7 82.4q0 0 0.1 0h50.8q0.1 0 0.1 0c0.3 0 2-0.1 3.1-1.6q0.1-0.1 0.2-0.2 0 0 0-0.1 0.9-1.2 0.9-3.1v-71.4c0-3.6-2.5-4.9-4.2-5q0 0-0.1 0h-50.8q-0.1 0-0.1 0c-1.7 0.1-4.2 1.4-4.2 5v2.6q0 0.1 0 0.1v66.6q0 0 0 0v2.1c0 3.6 2.5 5 4.2 5z"/><path class="l" d="m4.5 82.2q0 0 0 0h50.9q0 0 0.1 0c0.3 0 1.9-0.1 3.1-1.7q0.1-0.1 0.2-0.1 0-0.1 0-0.1 0.8-1.3 0.9-3.1v-71.4c0-3.6-2.5-5-4.2-5q-0.1 0-0.1 0h-50.9q0 0 0 0c-1.7 0-4.2 1.4-4.2 5v2.6q0 0 0 0.1v66.5q0 0.1 0 0.1v2.1c0 3.6 2.5 5 4.2 5z"/></g><path class="a" d="m4.5 82.2q0 0 0 0h50.9q0 0 0.1 0c0.3 0 1.9-0.1 3.1-1.7q0.1-0.1 0.2-0.1 0-0.1 0-0.1 0.8-1.3 0.9-3.1v-71.4c0-3.6-2.5-5-4.2-5q-0.1 0-0.1 0h-50.9q0 0 0 0c-1.7 0-4.2 1.4-4.2 5v2.6q0 0 0 0.1v66.5q0 0.1 0 0.1v2.1c0 3.6 2.5 5 4.2 5z"/><path class="a" d="m55.4 2.9h-24.4-2.1-24.4c0 0-2.1 0.1-2.1 2.9v19.2 33 19.2c0 2.8 2.1 2.9 2.1 2.9h24.4 2.1 24.4c0 0 2.1-0.1 2.1-2.9v-19.2-33-19.2c0-2.8-2.1-2.9-2.1-2.9z"/><path class="m" d="m34.9 44.6q-16.2 0-32.5 0v32.6c0 2.8 2.1 2.9 2.1 2.9h50.9c0 0 2.1-0.1 2.1-2.9v-32.6q-11.3 0-22.6 0z"/><path class="n" d="m2.4 41.4q7 0 13.9 0 20.1 0 40.1 0 0.6 0 1.1 0v-35.6c0-2.8-2.1-2.9-2.1-2.9h-50.9c0 0-2.1 0.1-2.1 2.9v19.2z"/><path class="o" d="m57.4 5.8v19.2 32.9 19.2c0 2.8-2.1 2.9-2.1 2.9h-24.4-2.1-24.4c0 0-0.5 0-1-0.3 0.6 0.4 1.1 0.4 1.1 0.4h24.4 2.1 24.4c0 0 2.1-0.1 2.1-2.9v-19.2-33-19.2c0-2.8-2.1-2.9-2.1-2.9h-0.1c0 0 2.1 0.1 2.1 2.9z"/><path class="p" d="m2.5 77.2v-19.2-32.9-19.2c0-2.8 2.2-2.9 2.2-2.9h24.4 2.1 24.4c0 0 0.4 0 0.9 0.3-0.5-0.4-1.1-0.4-1.1-0.4h-24.4-2.1-24.4c0 0-2.1 0.1-2.1 2.9v19.2 33 19.2c0 2.8 2.1 2.9 2.1 2.9h0.2c0 0-2.2-0.1-2.2-2.9z"/><path class="q" d="m2.4 8.5v66.5q0.1-0.2 0.1-0.4v-16.7-48.2q0-0.6-0.1-1.2z"/><path  d="m6.8 17.7c-0.1 1.5-0.9 2.5-0.9 2.5h0.9 0.9c0 0-0.8-1-0.9-2.5z"/><path  d="m8.5 15.6c-1.1-0.8-1.7-1.6-1.7-1.6 0 0-0.6 0.8-1.7 1.6-1.2 0.8-1.5 1.8-1.1 2.6 0.5 0.7 2.1 1.1 2.8-0.4 0.7 1.5 2.3 1.1 2.7 0.4 0.5-0.8 0.2-1.8-1-2.6z"/><path fill-rule="evenodd" d="m7.6 12.9v-0.2q0.2 0 0.4-0.1 0.1-0.1 0.1-0.2 0.1-0.1 0.1-0.2 0-0.2 0-0.4-0.1-0.2-0.2-0.4l-0.1-0.7h-2.3l-0.2 0.5q-0.1 0.4-0.1 0.6-0.1 0.2-0.1 0.3 0 0.3 0.2 0.4 0.1 0.2 0.4 0.2v0.2h-2.1v-0.2q0.3 0 0.5-0.3 0.2-0.3 0.4-0.8l2-5.4h0.8l1.7 5.5q0.1 0.3 0.2 0.5 0.1 0.2 0.2 0.3 0.1 0.2 0.3 0.2v0.2zm-1.8-2.6h2l-0.9-3.1z"/><path  d="m53 65.1c0.1-1.4 0.9-2.4 0.9-2.4h-0.9-0.9c0 0 0.8 1 0.9 2.4z"/><path  d="m51.3 67.3c1.1 0.8 1.7 1.6 1.7 1.6 0 0 0.6-0.8 1.8-1.6 1.1-0.8 1.4-1.8 1-2.6-0.5-0.8-2.1-1.1-2.8 0.4-0.6-1.5-2.3-1.2-2.7-0.4-0.4 0.8-0.2 1.8 1 2.6z"/><path fill-rule="evenodd" d="m52.2 69.9v0.3q-0.2 0-0.3 0.1-0.2 0-0.2 0.1-0.1 0.1-0.1 0.3 0 0.2 0.1 0.4 0 0.2 0.1 0.4l0.1 0.6h2.3l0.2-0.4q0.1-0.4 0.2-0.6 0-0.2 0-0.3 0-0.3-0.2-0.5-0.1-0.1-0.4-0.1v-0.3h2.1v0.3q-0.3 0-0.5 0.3-0.2 0.2-0.4 0.8l-2 5.4h-0.8l-1.7-5.5q-0.1-0.4-0.2-0.6-0.1-0.2-0.2-0.3-0.1-0.1-0.3-0.1v-0.3zm1.8 2.7h-2l0.9 3.1z"/><path fill-rule="evenodd" d="m43.1 40.7q-0.2 0-0.4 0c0.4-0.2 0.6-0.5 0.8-0.8 0.2-0.7-0.2-1.5-0.9-1.7-0.4-0.1-0.7-0.1-1 0.1 0.3-0.2 0.5-0.4 0.6-0.8 0.2-0.7-0.2-1.4-0.9-1.6-0.4-0.1-0.7-0.1-1.1 0.1 0.3-0.2 0.5-0.6 0.5-1 0-0.7-0.6-1.3-1.3-1.3q-0.4 0-0.7 0.2 0.3-0.4 0.3-0.9c0-0.7-0.6-1.3-1.3-1.3q-0.3 0-0.6 0.1 0.2-0.3 0.2-0.7c0-0.8-0.5-1.4-1.3-1.4q-0.3 0-0.6 0.2 0.3-0.4 0.3-0.8c0-0.8-0.6-1.4-1.3-1.4q-0.3 0-0.4 0.1 0.2-0.3 0.2-0.7c0-0.8-0.6-1.4-1.3-1.4q-0.4 0-0.7 0.2c0.2-0.2 0.3-0.5 0.3-0.9 0-0.6-0.4-1.2-1-1.3-0.3-0.6-0.8-1.2-1.5-1.1-0.6 0.1-1.1 0.5-1.2 1.1-0.6 0.1-1.1 0.7-1.1 1.3q0 0.5 0.3 0.9-0.3-0.2-0.6-0.2c-0.8 0-1.4 0.6-1.4 1.4q0 0.4 0.3 0.7-0.2-0.1-0.4-0.1c-0.8 0-1.4 0.6-1.4 1.4q0.1 0.4 0.3 0.8-0.3-0.2-0.6-0.2c-0.7 0-1.3 0.6-1.3 1.4q0 0.4 0.2 0.7-0.3-0.1-0.6-0.1c-0.7 0-1.3 0.6-1.3 1.3q0 0.5 0.3 0.9-0.3-0.2-0.6-0.2c-0.8 0-1.4 0.6-1.4 1.3 0 0.4 0.2 0.8 0.5 1-0.3-0.2-0.7-0.2-1.1-0.1-0.7 0.2-1.1 0.9-0.9 1.6 0.1 0.4 0.3 0.6 0.6 0.8-0.3-0.2-0.6-0.2-0.9-0.1-0.7 0.2-1.1 1-0.9 1.7 0.1 0.3 0.4 0.6 0.7 0.8q-0.2 0-0.3 0c-0.7 0.3-1.1 1-0.9 1.7 0.2 0.6 0.8 1 1.4 0.9q0 0.1 0 0.1c-0.4 0-0.8 0.3-1 0.7-0.3 0.6-0.1 1.4 0.5 1.8 0.4 0.2 0.9 0.2 1.3 0-0.3 0.3-0.4 0.6-0.3 1 0 0.7 0.7 1.2 1.4 1.2 0.5-0.1 0.9-0.4 1.1-0.8-0.1 0.4-0.1 0.7 0 1.1 0.4 0.6 1.2 0.9 1.8 0.6 0.3-0.2 0.6-0.5 0.7-0.8q0.1 0.5 0.4 0.8c0.6 0.4 1.4 0.3 1.9-0.2 0.2-0.3 0.3-0.6 0.3-1q0.2 0.3 0.5 0.4c0.7 0.2 1.4-0.1 1.7-0.8 0.1-0.3 0.1-0.7 0-1 0.5 0.2 1 0.1 1.3-0.4 0.2-0.3 0.3-0.7 0.2-1 0.2 0 0.5-0.1 0.6-0.3 0.2 0.2 0.4 0.3 0.7 0.3-0.1 0.3-0.1 0.7 0.1 1 0.3 0.5 0.8 0.6 1.3 0.4-0.1 0.3-0.1 0.7 0 1 0.3 0.7 1 1 1.7 0.8q0.3-0.1 0.5-0.4c0 0.4 0.1 0.7 0.3 1 0.5 0.5 1.3 0.6 1.9 0.2q0.4-0.3 0.5-0.8c0.1 0.3 0.3 0.6 0.6 0.8 0.7 0.3 1.5 0 1.8-0.6 0.2-0.4 0.2-0.7 0.1-1.1q0 0 0 0c0.2 0.4 0.5 0.7 1 0.8 0.7 0 1.4-0.5 1.5-1.2 0-0.4-0.1-0.7-0.3-1 0.3 0.2 0.8 0.2 1.2 0 0.6-0.4 0.9-1.2 0.5-1.8-0.2-0.4-0.6-0.6-0.9-0.7q0 0 0-0.1c0.6 0.1 1.2-0.3 1.4-0.9 0.2-0.7-0.2-1.4-0.9-1.7zm-1-2c0.6 0.1 0.9 0.7 0.7 1.3q-0.1 0.3-0.4 0.5-0.1-0.1-0.1-0.3 0-0.1 0.1-0.1c0.1-0.5-0.2-0.9-0.6-1.1q-0.1-0.2-0.2-0.3 0.3-0.1 0.5 0zm-5.6 4.7q-0.1-0.1-0.2-0.1 0 0 0 0c-0.2-0.2-0.5-0.2-0.7-0.1-0.2 0.1-0.3 0.4-0.2 0.6 0 0.1 0.2 0.2 0.3 0.3q0 0 0.1 0c0-0.1 0.1-0.1 0-0.1q0.1 0 0.1-0.1 0 0 0 0 0 0 0 0 0 0 0 0c0-0.1-0.1-0.2 0-0.3q0.1-0.1 0.2-0.1c0.3 0.2 0.5 0.6 0.1 0.9-0.2 0.1-0.4 0.1-0.6 0.2-0.5 0.1-0.9 0.1-1.2-0.2-0.5-0.4-0.5-1.2 0-1.6 0.2-0.2 0.5-0.2 0.7-0.3 0.4 0 0.7-0.2 1-0.3 1.5-0.8 1.2-2.9 0.2-3.9q-0.1-0.1-0.1-0.1 0 0 0.1 0c0.4 0 1-0.1 1.3-0.5 0.5-0.8-0.1-2-1.1-2-0.5 0-1.3 0.5-1.2 1-0.1 0.4 0.3 0.7 0.6 0.8 0.5 0 1-0.5 0.6-0.9-0.1-0.2-0.5-0.3-0.6-0.1-0.1 0.2 0 0.4 0.1 0.4q0 0.1-0.1 0.1c-0.1 0-0.3-0.1-0.4-0.2-0.1-0.1 0-0.2 0-0.3q0 0 0 0 0-0.1 0.2-0.2 0.3-0.1 0.5-0.1c0.4 0 1 0.1 1.1 0.6 0.1 0.5-0.2 0.9-0.7 1.1q-0.3 0.1-0.7 0.1c-0.9-0.7-2.3-1-3.3-0.3q-0.2 0-0.4 0 0.4-0.3 0.9-0.6c0.6-0.4 1.4-0.8 1.6-1.5 0.4-0.9 0.3-2.3-0.8-2.6-0.5-0.1-1 0.3-1.1 0.8-0.2-0.5-0.6-0.9-1-1 0.3-0.1 0.6-0.3 0.7-0.6 0.5-1-0.2-1.5-0.6-2.3q0 0 0 0c0.2 0.7 0.8 1.6-0.1 2.2q-0.3 0.2-0.6 0.3 0.1-0.1 0.2-0.2c0.3-0.4 0.4-0.8 0.4-1.2-0.1-1-1-1.6-1.4-2.4q-0.2-0.3-0.3-0.6-0.1 0.5-0.4 0.8c-0.4 0.7-1.2 1.3-1.2 2.2 0 0.4 0 0.8 0.3 1.2q0.1 0.1 0.2 0.2-0.3-0.1-0.6-0.3c-0.9-0.6-0.3-1.5-0.1-2.2q0 0 0 0c-0.4 0.8-1.1 1.3-0.6 2.3 0.2 0.3 0.4 0.5 0.8 0.6-0.5 0.1-0.9 0.5-1 1-0.2-0.5-0.7-0.9-1.2-0.8-1.1 0.3-1.2 1.7-0.8 2.6 0.2 0.7 1.1 1.1 1.6 1.5q0.5 0.3 0.9 0.6-0.2 0-0.4 0c-1-0.7-2.4-0.4-3.3 0.3q-0.4 0-0.7-0.1c-0.5-0.2-0.8-0.6-0.7-1.1 0.1-0.5 0.7-0.6 1.1-0.6q0.3 0 0.5 0.1 0.2 0.1 0.2 0.2 0 0 0 0c0.1 0.1 0.1 0.2 0 0.3-0.1 0.1-0.3 0.2-0.4 0.2q-0.1 0-0.1-0.1c0.1 0 0.2-0.2 0.1-0.4-0.1-0.2-0.4-0.1-0.6 0.1-0.4 0.4 0.1 0.9 0.6 0.9 0.4-0.1 0.7-0.4 0.7-0.8 0-0.5-0.7-1-1.3-1-0.9 0-1.6 1.2-1.1 2 0.3 0.4 0.9 0.5 1.3 0.5q0.1 0 0.2 0-0.1 0-0.2 0.1c-1 1-1.3 3.1 0.2 3.9 0.3 0.1 0.6 0.3 1 0.3 0.2 0.1 0.5 0.1 0.7 0.3 0.5 0.4 0.6 1.2 0.1 1.6-0.4 0.3-0.8 0.3-1.2 0.2-0.3-0.1-0.4-0.1-0.6-0.2-0.5-0.3-0.2-0.7 0-0.9q0.1 0 0.2 0.1c0.1 0.1 0 0.2 0 0.3q0 0 0 0 0 0 0 0 0 0 0 0 0 0.1 0.1 0.1c-0.1 0 0 0 0 0.1q0.1 0 0.1 0c0.2-0.1 0.3-0.2 0.3-0.3 0.1-0.2 0.1-0.5-0.2-0.6-0.2-0.1-0.5-0.1-0.7 0.1q0 0 0 0-0.1 0-0.2 0.1c-0.2 0.2-0.2 0.7-0.1 1q0.1 0.2 0.3 0.4c-1.3-0.2-2.3-0.8-2.8-2-1.3-2.9 0.3-5.5 3.7-9 3.9-4.2 5.3-6.4 5.3-6.5 0.1 0.1 1.4 2.3 5.4 6.5 3.3 3.5 4.9 6.1 3.7 9-0.5 1.2-1.6 1.8-2.9 2q0.2-0.2 0.3-0.4c0.2-0.3 0.1-0.8-0.1-1zm-17.8-5.1q0 0.1 0.1 0.1 0 0 0 0-0.1 0-0.1-0.1zm1.5-2.1q0 0 0 0 0 0 0 0 0 0 0 0zm1.7-2.1q0 0.1 0 0.1 0 0 0 0 0 0 0-0.1zm3.3-3.9q0.1 0.1 0.2 0.1 0 0-0.1 0.1 0-0.1-0.1-0.2zm1.8-1.9q0 0 0 0 0 0.1 0 0.1 0 0 0-0.1zm1.5-1.9q0-0.1-0.1-0.2 0.1 0.1 0.2 0.1 0 0.1-0.1 0.1zm3.1-0.1q0.1-0.1 0.3-0.1-0.1 0.1-0.2 0.2 0 0-0.1-0.1zm1.6 2q0 0 0.1 0-0.1 0-0.1 0.1 0-0.1 0-0.1zm1.7 2q0 0 0.1-0.1-0.1 0.1-0.1 0.1 0 0 0 0zm2.2 4.2c0-0.2 0.2-0.3 0.4-0.3 0.2 0 0.4 0.1 0.4 0.3 0 0.3-0.2 0.4-0.4 0.4-0.2 0-0.4-0.1-0.4-0.4zm1.8 2.2c0-0.2 0.2-0.3 0.4-0.3 0.2 0 0.4 0.1 0.4 0.3 0 0.2-0.2 0.4-0.4 0.4-0.2 0-0.4-0.2-0.4-0.4zm-4.1 9c0 0.2-0.2 0.4-0.4 0.4-0.2 0-0.4-0.2-0.4-0.4 0-0.2 0.2-0.4 0.4-0.4 0.2 0 0.4 0.2 0.4 0.4zm-2.2-0.9c0 0.1-0.1 0.3-0.2 0.3-0.2 0-0.3-0.2-0.3-0.3 0-0.2 0.1-0.3 0.3-0.3 0.1 0 0.2 0.1 0.2 0.3zm-4.4 0c0 0.1-0.2 0.3-0.3 0.3-0.2 0-0.3-0.2-0.3-0.3 0-0.2 0.1-0.3 0.3-0.3 0.1 0 0.3 0.1 0.3 0.3zm-2 0.9c0 0.2-0.2 0.4-0.4 0.4-0.2 0-0.4-0.2-0.4-0.4 0-0.2 0.2-0.4 0.4-0.4 0.2 0 0.4 0.2 0.4 0.4zm-5.6-9c0-0.2 0.2-0.3 0.4-0.3 0.2 0 0.4 0.1 0.4 0.3 0 0.2-0.2 0.4-0.4 0.4-0.2 0-0.4-0.2-0.4-0.4zm1.8-2.2c0-0.2 0.2-0.3 0.4-0.3 0.2 0 0.4 0.1 0.4 0.3 0 0.3-0.2 0.4-0.4 0.4-0.2 0-0.4-0.1-0.4-0.4zm3.7-4.1c0-0.2 0.2-0.4 0.4-0.4 0.2 0 0.3 0.2 0.3 0.4 0 0.2-0.1 0.4-0.3 0.4-0.2 0-0.4-0.2-0.4-0.4zm1.7-2c0-0.2 0.2-0.4 0.4-0.4 0.2 0 0.4 0.2 0.4 0.4 0 0.2-0.2 0.4-0.4 0.4-0.2 0-0.4-0.2-0.4-0.4zm2.3-3.7zm0 0zm0 0.9q0 0 0.1 0c0.2 0 0.3 0.2 0.3 0.4 0 0.2-0.1 0.4-0.3 0.4q-0.1 0-0.1 0 0 0 0 0c-0.2 0-0.4-0.2-0.4-0.4 0-0.2 0.2-0.4 0.4-0.4q0 0 0 0zm1.6 2.8c0-0.2 0.1-0.4 0.3-0.4 0.3 0 0.4 0.2 0.4 0.4 0 0.2-0.1 0.4-0.4 0.4-0.2 0-0.3-0.2-0.3-0.4zm1.7 2c0-0.2 0.2-0.4 0.4-0.4 0.2 0 0.4 0.2 0.4 0.4 0 0.2-0.2 0.4-0.4 0.4-0.2 0-0.4-0.2-0.4-0.4zm0.3 13.5q0.1 0.3 0.2 0.6c-0.5-0.3-1-0.7-1.4-1-0.8-0.6-1.6-1.6-1.8-2.7-0.2-1.1 0.6-2.7 1.9-2.6 0.9 0 2.3 0.4 1.9 1.7q-0.4 0.7-1.1 0.7-0.6 0.2-0.4-0.7c0 0 0 0 0 0-0.1-0.3-0.7-0.8-0.9-0.2-0.4 0.7 0.1 1.3 0.8 1.5 0.5 0.1 0.9 0 1.3-0.2-0.2 0.5-0.1 1 0.4 1.3q0 0.1 0.1 0.1c-0.7 0.2-1.2 0.8-1 1.5zm-6.4 0.3q0.2-0.1 0.4-0.3c1-0.6 1.8-1.5 2.2-2.8q0.1-0.3 0.1-0.7c0.1-0.7 0-1.3-0.3-1.9-0.5-0.7-1-1.4-1.4-2.1q-0.4-0.6-0.5-1.2-0.1-0.3-0.1-0.7 0-0.2 0-0.5c0.3-0.9 1.7-1.1 1.6-0.1-0.4 0-1 0.6-0.3 1 0.5 0.3 0.9 0 1.1-0.4 0.2 0.4 0.6 0.7 1.2 0.4 0.6-0.4 0-1-0.4-1-0.1-1 1.3-0.8 1.6 0.1q0 0.3 0 0.5 0 0.4-0.1 0.7-0.1 0.6-0.4 1.2c-0.4 0.7-1 1.4-1.4 2.1-0.4 0.6-0.4 1.2-0.3 1.9q-0.1 0.4 0.1 0.7c0.3 1.3 1.1 2.2 2.2 2.8q0.1 0.2 0.4 0.3c-1.2-0.5-2.2-1.3-2.9-2.3-0.7 1-1.7 1.8-2.8 2.3zm5.6-9.6c0.4 0.4 0.9 0 0.6-0.6q0 0 0 0c-0.5-1.3 1.2-0.9 1.1 0.2 0 0.6-0.2 0.9-0.4 1.4-0.4 0.7-0.9 1.1-1.5 1.5-0.5 0.3-0.9 0.6-1.2 1q-0.6 0.4-0.9 1 0.2-0.7 0.7-1.3c0.5-0.7 1.4-1.5 1.6-2.4q0-0.4 0-0.8zm2.4 6.9q0.1 0 0.1 0c0.1 0 0.2 0 0.3-0.1 0.4-0.7-0.4-1.1-1-0.9q0.2-0.3 0.3-0.7c0.1-0.9-0.5-1.6-1.2-1.9q-0.5-0.3-1-0.3c1.3-0.4 3.1 0.3 3.7 1.5 0.4 0.7 0.5 2.1-0.3 2.7-0.3 0.2-1.2 0.5-1.5 0q-0.7-1.2 0.6-0.9c-0.4 0-0.2 0.5 0 0.6zm-4.2-10.8c0 0.7-0.2 1.3-0.7 1.9q-0.2 0.3-0.3 0.6-0.1-0.3-0.3-0.6c-0.4-0.6-0.7-1.2-0.7-1.9q0-0.2 0.1-0.3c0.3-0.6 0.8-1.1 0.9-1.7 0.1 0.6 0.7 1.1 1 1.7q0 0.1 0 0.3zm-5.6 11.7q0.1 0 0.2-0.1c0.4-0.3 0.5-0.8 0.3-1.3 0.4 0.2 0.8 0.3 1.3 0.2 0.7-0.2 1.2-0.8 0.9-1.5-0.3-0.6-0.9-0.1-1 0.2 0 0 0 0 0 0q0.2 0.9-0.4 0.7-0.7 0-1.1-0.7c-0.4-1.3 1-1.7 1.9-1.7 1.3-0.1 2.1 1.5 1.9 2.6-0.2 1.1-0.9 2.1-1.8 2.7-0.4 0.3-0.9 0.7-1.4 1q0.1-0.3 0.2-0.6c0.2-0.7-0.3-1.3-1-1.5zm-0.3-2.6q0.1 0.4 0.3 0.7c-0.6-0.2-1.4 0.2-1 0.9 0.1 0.1 0.2 0.1 0.3 0.1q0 0 0.1 0c0.2-0.1 0.4-0.6 0.1-0.6q1.2-0.3 0.5 0.9c-0.3 0.5-1.1 0.2-1.5 0-0.8-0.6-0.7-2-0.3-2.7 0.6-1.2 2.4-1.9 3.7-1.5q-0.4 0-0.9 0.3c-0.8 0.3-1.4 1-1.3 1.9zm3.5-1.7c-0.3-0.4-0.7-0.7-1.2-1-0.6-0.4-1.1-0.8-1.4-1.5-0.3-0.5-0.4-0.8-0.5-1.4-0.1-1.1 1.6-1.5 1.1-0.2q0 0 0 0c-0.3 0.6 0.2 1 0.6 0.6q0 0.4 0 0.8c0.2 0.9 1.1 1.7 1.7 2.4q0.4 0.6 0.6 1.3-0.3-0.6-0.9-1zm1.4-11.2zm0 0zm-5.6 6c-0.2 0-0.4-0.1-0.4-0.3 0-0.2 0.2-0.4 0.4-0.4 0.2 0 0.4 0.2 0.4 0.4 0 0.2-0.2 0.3-0.4 0.3zm-3.4 12.2c0.2 0 0.4 0.2 0.4 0.5 0 0.2-0.2 0.4-0.4 0.4-0.3 0-0.5-0.2-0.5-0.4 0-0.3 0.2-0.5 0.5-0.5zm9.6-1.5c0-0.1 0.1-0.2 0.2-0.2 0.1 0 0.2 0.1 0.2 0.2 0 0.1-0.1 0.2-0.2 0.2-0.1 0-0.2-0.1-0.2-0.2zm8.5 1.5c0.2 0 0.5 0.2 0.5 0.5 0 0.2-0.3 0.4-0.5 0.4-0.3 0-0.5-0.2-0.5-0.4 0-0.3 0.2-0.5 0.5-0.5zm-3.5-12.2c-0.2 0-0.4-0.1-0.4-0.3 0-0.2 0.2-0.4 0.4-0.4 0.2 0 0.4 0.2 0.4 0.4 0 0.2-0.2 0.3-0.4 0.3zm-5.5-8.7q-0.1 0-0.1-0.1 0 0.1 0 0.1-0.2-0.2-0.5-0.4c0.1-0.1 0.4-0.1 0.6-0.1q0.2 0.1 0.3 0.2-0.2 0.1-0.3 0.3zm-10.1 19.6c0 0.3-0.2 0.5-0.5 0.5-0.3 0-0.5-0.2-0.5-0.5 0-0.3 0.2-0.5 0.5-0.5 0.3 0 0.5 0.2 0.5 0.5zm-0.4-4.5c-0.2 0-0.4-0.2-0.4-0.4 0-0.2 0.2-0.4 0.4-0.4 0.2 0 0.4 0.2 0.4 0.4 0 0.2-0.2 0.4-0.4 0.4zm-0.6 1.5c0.3 0 0.5 0.2 0.5 0.4 0 0.3-0.2 0.5-0.5 0.5-0.2 0-0.5-0.2-0.5-0.5 0-0.2 0.3-0.4 0.5-0.4zm3.8 5.4c0-0.2 0.2-0.4 0.4-0.4 0.2 0 0.3 0.2 0.3 0.4 0 0.2-0.1 0.4-0.3 0.4-0.2 0-0.4-0.2-0.4-0.4zm6.2-2.6c0-0.1 0.1-0.2 0.2-0.2 0.1 0 0.2 0.1 0.2 0.2 0 0.1-0.1 0.2-0.2 0.2-0.1 0-0.2-0.1-0.2-0.2zm7.5 2.6c0-0.2 0.2-0.4 0.4-0.4 0.2 0 0.4 0.2 0.4 0.4 0 0.2-0.2 0.4-0.4 0.4-0.2 0-0.4-0.2-0.4-0.4zm4.1-2.9c0.3 0 0.5 0.2 0.5 0.5 0 0.3-0.2 0.5-0.5 0.5-0.3 0-0.6-0.2-0.6-0.5 0-0.3 0.3-0.5 0.6-0.5zm-0.5-4.4c0-0.2 0.1-0.4 0.4-0.4 0.2 0 0.3 0.2 0.3 0.4 0 0.2-0.1 0.4-0.3 0.4-0.3 0-0.4-0.2-0.4-0.4zm0.9 2.8c-0.3 0-0.5-0.2-0.5-0.5 0-0.2 0.2-0.4 0.5-0.4 0.3 0 0.5 0.2 0.5 0.4 0 0.3-0.2 0.5-0.5 0.5zm-2.7-7.6q0 0 0 0 0 0 0 0.1 0 0 0-0.1zm1.6 2.1q0 0 0 0 0 0 0 0 0 0 0 0zm1.5 2.2q0-0.1 0-0.1 0 0 0 0.1 0 0 0 0zm-0.6-2.1c0.5 0.2 0.8 0.8 0.7 1.3q-0.1 0.3-0.3 0.5-0.1-0.2-0.2-0.4 0 0 0 0c0.1-0.4-0.1-0.9-0.6-1q0 0-0.1 0-0.1-0.2-0.2-0.3 0.3-0.2 0.7-0.1zm-1.8-2c0.5 0 1 0.4 1 1q0 0.4-0.2 0.7-0.1-0.2-0.2-0.3 0-0.1 0-0.2c0-0.4-0.4-0.8-0.8-0.8q-0.1 0-0.1 0-0.1-0.1-0.2-0.3 0.2-0.1 0.5-0.1zm-1.7-2.1c0.6 0 1 0.5 1 1.1q0 0.4-0.2 0.7-0.1-0.2-0.2-0.3 0-0.1 0-0.2c0-0.5-0.4-0.8-0.8-0.8q-0.1 0-0.2 0-0.1-0.1-0.2-0.3 0.3-0.1 0.6-0.2zm-1.7-1.9c0.6 0 1.1 0.5 1.1 1q0 0.5-0.3 0.8-0.1-0.1-0.2-0.2 0-0.2 0-0.3c0-0.5-0.3-0.9-0.8-0.9q-0.1 0-0.2 0.1-0.1-0.1-0.2-0.3 0.3-0.2 0.6-0.2zm-1.6-2c0.5 0 1 0.5 1 1.1 0 0.3-0.1 0.6-0.4 0.7q0 0-0.1-0.1 0.1-0.2 0.1-0.4c0-0.5-0.4-0.9-0.9-0.9q-0.1 0-0.2 0.1-0.1-0.1-0.2-0.2 0.3-0.3 0.7-0.3zm-1.5-2c0.5 0 1 0.5 1 1 0 0.4-0.2 0.7-0.5 0.9q0-0.1-0.1-0.1 0.2-0.2 0.2-0.5c0-0.5-0.4-0.9-0.8-0.9q-0.2 0-0.4 0.1-0.1-0.1-0.2-0.2c0.2-0.2 0.5-0.3 0.8-0.3zm-0.7-1c0 0.4-0.1 0.7-0.4 0.9q-0.1-0.1-0.1-0.2 0.1-0.2 0.1-0.5c0-0.4-0.3-0.8-0.8-0.8q-0.1 0-0.2 0-0.1-0.1-0.2-0.2 0.3-0.2 0.6-0.2c0.6 0 1 0.4 1 1zm-1.8-2.3c0.5 0 0.9 0.3 1.1 0.7q0 0 0 0-0.2 0-0.3 0c-0.2-0.2-0.6-0.4-0.8-0.4-0.3 0.1-0.6 0.2-0.7 0.5q-0.2-0.1-0.4-0.1 0 0 0 0c0.2-0.4 0.6-0.7 1.1-0.7zm-0.8 1.3q0.3 0 0.6 0.2-0.1 0.1-0.2 0.2-0.1 0-0.2 0c-0.4 0-0.8 0.4-0.8 0.8q0 0.3 0.1 0.5 0 0.1-0.1 0.2c-0.3-0.2-0.4-0.5-0.4-0.9 0-0.6 0.4-1 1-1zm-1.7 2c0.3 0 0.6 0.1 0.8 0.3q-0.1 0.1-0.2 0.2-0.1-0.1-0.3-0.1c-0.5 0-0.9 0.4-0.9 0.9q0 0.3 0.2 0.5 0 0.1-0.1 0.1c-0.3-0.1-0.5-0.5-0.5-0.9 0-0.5 0.5-1 1-1zm-1.4 2q0.4 0 0.6 0.3-0.1 0.1-0.2 0.2-0.1-0.1-0.2-0.1c-0.5 0-0.9 0.4-0.9 0.9q0 0.2 0.1 0.4 0 0.1-0.1 0.2c-0.2-0.2-0.4-0.5-0.4-0.8 0-0.6 0.5-1.1 1.1-1.1zm-1.7 2q0.4 0 0.6 0.3 0 0.1-0.1 0.2-0.2-0.1-0.3-0.1c-0.5 0-0.8 0.4-0.8 0.9q0 0.1 0 0.3 0 0.1-0.1 0.2c-0.2-0.2-0.4-0.5-0.4-0.8 0-0.5 0.5-1 1.1-1zm-1.7 1.9q0.4 0.1 0.6 0.3-0.1 0.1-0.2 0.2-0.1 0-0.2 0c-0.4 0-0.8 0.3-0.8 0.8q0 0.1 0 0.3-0.1 0.1-0.2 0.2-0.2-0.3-0.2-0.7c0-0.6 0.4-1.1 1-1.1zm-1.7 2.1q0.3 0 0.6 0.1-0.2 0.2-0.3 0.3 0 0 0 0c-0.5 0-0.9 0.4-0.9 0.8q0 0.1 0.1 0.2-0.1 0.2-0.2 0.3-0.3-0.3-0.3-0.7c0-0.6 0.5-1 1-1zm-1.8 2q0.4-0.1 0.8 0.1-0.1 0.1-0.2 0.3-0.1 0-0.2 0c-0.5 0.1-0.7 0.6-0.6 1q0 0 0 0.1-0.1 0.1-0.2 0.3-0.2-0.2-0.3-0.5c-0.1-0.5 0.2-1.1 0.7-1.3zm-1.9 3.7c-0.2-0.6 0.1-1.2 0.7-1.3q0.3-0.1 0.5 0-0.1 0.1-0.2 0.3 0 0 0 0c-0.4 0.2-0.7 0.6-0.5 1.1q0 0 0 0.1 0 0.2-0.1 0.4-0.3-0.2-0.4-0.6zm0.2 1.7c-0.2 0.2-0.3 0.6-0.2 0.9q0 0.2 0.2 0.4 0 0.1 0.1 0.2c-0.4-0.1-0.7-0.3-0.8-0.7-0.2-0.5 0.1-1.1 0.7-1.3q0 0 0.1 0 0 0.3-0.1 0.5zm0.2 3.8c-0.6-0.3-0.7-0.9-0.5-1.4q0.2-0.3 0.4-0.4 0.1 0.2 0.1 0.4 0 0 0 0c-0.2 0.4-0.1 0.9 0.3 1.1q0.1 0.1 0.2 0.1 0.1 0.2 0.2 0.3-0.4 0.1-0.7-0.1zm2 2c-0.5 0-1-0.4-1.1-1q0-0.3 0.1-0.5 0.2 0.2 0.3 0.4c0.1 0.4 0.5 0.6 0.9 0.6q0.2 0.1 0.4 0.2-0.2 0.2-0.6 0.3zm2.7 0.8c-0.5 0.3-1.1 0.1-1.4-0.4q-0.1-0.2-0.1-0.5 0.2 0.1 0.4 0.1c0.3 0.4 0.7 0.5 1.1 0.3q0.1 0 0.2-0.1 0.2 0 0.3 0c0 0.3-0.2 0.5-0.5 0.6zm2.7-0.1c-0.3 0.4-1 0.5-1.4 0.1q-0.4-0.2-0.4-0.6 0.1 0 0.3-0.1 0 0.2 0.2 0.3c0.3 0.3 0.8 0.2 1.1-0.2q0.2-0.1 0.2-0.4 0.1 0 0.2 0c0.1 0.3 0 0.6-0.2 0.9zm2.4-1.3c-0.2 0.6-0.8 0.8-1.4 0.6q-0.3-0.1-0.5-0.3 0.2-0.1 0.4-0.2 0 0 0.1 0.1c0.4 0.1 0.9-0.1 1-0.5q0.1-0.1 0.1-0.2 0.1-0.1 0.3-0.2 0.1 0.4 0 0.7zm1.5-1.4c-0.3 0.4-0.7 0.5-1 0.4q0.5-0.4 1-0.9 0.1 0 0.1 0 0 0.3-0.1 0.5zm0.8-1.3q-0.1 0.2-0.4 0.3 0.2-0.2 0.4-0.5 0 0.1 0 0.2zm0.4 0q0-0.1 0-0.2 0.2 0.3 0.4 0.5-0.3-0.1-0.4-0.3zm0.9 1.3q-0.2-0.2-0.2-0.5 0.1 0 0.1 0 0.5 0.5 1 0.9c-0.3 0.1-0.7 0-0.9-0.4zm2.8 2c-0.6 0.2-1.2 0-1.4-0.6q-0.1-0.3 0-0.7 0.2 0.1 0.3 0.2 0 0.1 0.1 0.2c0.1 0.4 0.6 0.6 1 0.5q0.1-0.1 0.1-0.1 0.2 0.1 0.4 0.1-0.2 0.3-0.5 0.4zm2.5 0.8c-0.5 0.4-1.1 0.3-1.5-0.1-0.2-0.3-0.3-0.6-0.2-0.9q0.1 0 0.2 0 0 0.3 0.2 0.4c0.3 0.4 0.8 0.5 1.2 0.2q0.1-0.1 0.1-0.3 0.2 0.1 0.3 0.1 0 0.4-0.3 0.6zm2.6-0.4c-0.3 0.5-0.9 0.7-1.4 0.4-0.3-0.1-0.4-0.3-0.5-0.6q0.1 0 0.3 0 0.1 0.1 0.2 0.1c0.4 0.2 0.8 0.1 1.1-0.2q0.2-0.1 0.4-0.2 0 0.3-0.1 0.5zm2.4-1.4c0 0.6-0.6 1-1.1 1q-0.4-0.1-0.6-0.3 0.2-0.1 0.4-0.2c0.4 0 0.8-0.2 0.9-0.6q0.2-0.2 0.3-0.4 0.1 0.3 0.1 0.5zm1.4-2.4c0.2 0.5 0.1 1.1-0.4 1.4q-0.4 0.2-0.8 0.1 0.1-0.1 0.2-0.3 0.1 0 0.2-0.1c0.4-0.2 0.5-0.7 0.3-1.1q0 0 0 0 0-0.2 0.1-0.4 0.2 0.1 0.4 0.4zm0.4-1.6c-0.1 0.4-0.4 0.6-0.7 0.7q0-0.1 0-0.2 0.2-0.2 0.2-0.4c0.1-0.3 0-0.6-0.2-0.8q0-0.3-0.1-0.6 0.1 0 0.1 0c0.6 0.2 0.9 0.8 0.7 1.3z"/><path  d="m30.1 27.3z"/><path  d="m30.1 27.3z"/><path  d="m21.7 39.1q0 0 0 0c-0.2 0.5-0.4 0.9-0.2 1.5 0.2 0.5 0.6 1.1 1.2 1.1 0.1 0 0.2-0.1 0.2-0.2-0.2-0.4-0.6-0.7-0.8-1.1-0.2-0.3-0.4-0.9-0.4-1.3z"/><path  d="m22.3 41.9c-0.4 0.1-0.7 0.3-0.9 0.7-0.2 0.3 0.3 0.5 0.5 0.2 0.1-0.3 0.5-0.4 0.8-0.5 0.2-0.1 0.5-0.1 0.7-0.3q0 0 0 0c-0.2 0-0.4-0.1-0.6-0.1q-0.2-0.1-0.5 0z"/><path  d="m27.3 42.2c-0.2-0.1-0.4-0.1-0.6 0q-0.2 0-0.3 0.1c-0.1 0.1-0.1 0.2-0.2 0.3q0 0 0 0c0.1 0 0.2 0 0.3 0q0.3 0.1 0.5 0.1c0.3 0.1 0.6-0.4 0.3-0.5z"/><path  d="m26.4 42.1q0 0 0 0c0.1 0 0 0 0.1 0q0.1-0.1 0.1-0.2c0.1-0.1 0.1-0.2 0-0.3-0.1 0-0.2 0.1-0.3 0.2q0 0 0 0.1 0 0 0 0 0 0 0 0c0 0 0 0.2-0.1 0.2q0 0 0 0c0.1 0.1 0.1 0 0.2 0z"/><path  d="m27.9 42.2c0.1 0 0.2-0.1 0.2-0.2 0-0.1 0-0.2-0.1-0.3q-0.1 0-0.3 0.1 0 0-0.1 0.1 0 0 0 0-0.1 0.1-0.1 0.1c0.2 0.1 0.2 0.2 0.4 0.2z"/><path  d="m21.5 41.8c0.1 0 0.2-0.2 0.1-0.2-0.1-0.2-0.3-0.3-0.4-0.5-0.2-0.2-0.3-0.5-0.3-0.7q0 0 0 0c-0.2 0.3-0.3 0.6-0.1 0.9 0.1 0.3 0.4 0.6 0.7 0.5z"/><path  d="m22.6 40.5c0.1 0.1 0.2 0 0.2-0.1q-0.1-0.2-0.2-0.4-0.1-0.2-0.1-0.3c0-0.1 0-0.2 0.1-0.3q-0.1 0-0.1 0c-0.1 0.2-0.2 0.3-0.2 0.6 0 0.2 0.1 0.4 0.3 0.5z"/><path  d="m37.5 41.7c0.6 0 1-0.6 1.2-1.1 0.2-0.6 0.1-1-0.1-1.5q-0.1 0-0.1 0c0.1 0.4-0.1 1-0.3 1.3-0.3 0.4-0.6 0.7-0.8 1.1-0.1 0.1 0 0.2 0.1 0.2z"/><path  d="m37.5 42.3c0.3 0.1 0.7 0.2 0.9 0.5 0.1 0.3 0.6 0.1 0.4-0.2-0.1-0.4-0.5-0.6-0.9-0.7q-0.3-0.1-0.5 0c-0.2 0-0.4 0.1-0.6 0.1q0 0 0 0c0.2 0.2 0.5 0.2 0.7 0.3z"/><path  d="m33.8 42.3q-0.1-0.1-0.3-0.1c-0.2-0.1-0.4-0.1-0.6 0-0.3 0.1 0 0.6 0.3 0.5q0.3 0 0.5-0.1c0.1 0 0.2 0 0.3 0q0 0 0 0c-0.1-0.1-0.1-0.2-0.2-0.3z"/><path  d="m34 42.1c0 0-0.1-0.2-0.1-0.2q0 0 0 0 0 0 0 0 0-0.1 0-0.1c0-0.1-0.1-0.2-0.2-0.2-0.1 0.1-0.2 0.2-0.1 0.3q0 0.1 0.2 0.2c0.1 0 0 0 0 0q0 0 0.1 0c0 0 0.1 0.1 0.1 0q0 0 0 0z"/><path  d="m32.6 41.9q0-0.1-0.1-0.1-0.1-0.1-0.3-0.1c-0.1 0.1-0.1 0.2-0.1 0.3 0 0.1 0.1 0.2 0.2 0.2 0.2 0 0.3-0.1 0.4-0.2q0 0 0-0.1-0.1 0-0.1 0z"/><path  d="m38.6 41.6c0 0 0 0.2 0.1 0.2 0.4 0.1 0.6-0.2 0.8-0.5 0.1-0.3 0-0.6-0.1-0.9q-0.1 0-0.1 0c0 0.2-0.1 0.5-0.2 0.7-0.2 0.2-0.4 0.3-0.5 0.5z"/><path  d="m37.6 40.5c0.2-0.1 0.3-0.3 0.3-0.5 0-0.3-0.1-0.4-0.2-0.6q0 0 0 0c0 0.1 0 0.2 0 0.3q0 0.1-0.1 0.3-0.1 0.2-0.2 0.4c0 0.1 0.1 0.2 0.2 0.1z"/><path  d="m29.5 31.1c0.1 0.7 0.6 1.3 0.6 1.3 0 0 0.5-0.6 0.6-1.3 0.1-0.7-0.6-1.5-0.6-1.5 0 0-0.7 0.8-0.6 1.5z"/><path  d="m30.1 34.9c0 0-1 1.2-0.8 2.2 0.1 0.9 0.8 1.8 0.8 1.8 0 0 0.7-0.9 0.8-1.8 0.1-1-0.8-2.2-0.8-2.2z"/><path  d="m32 36.1c0.2-0.5-0.2-1.2-0.2-1.2 0 0-0.7 0.5-0.7 1 0 0.5 0.2 1.1 0.2 1.1 0 0 0.5-0.4 0.7-0.9z"/><path  d="m28.4 34.9c0 0-0.3 0.7-0.2 1.2 0.2 0.5 0.7 0.9 0.7 0.9 0 0 0.3-0.6 0.2-1.1 0-0.5-0.7-1-0.7-1z"/><path fill-rule="evenodd" d="m36.8 49.6c-2.8 0-5.2-1.3-6.6-3.5 0-0.1-0.1-0.1-0.2 0-1.3 2.2-3.7 3.5-6.5 3.5-3.3 0-6.2-1.8-7.3-4.4-2-4.7 0.6-8.8 5.7-14.4 4.9-5.4 7.3-8.8 8-10.1l0.2-0.2 0.2 0.2c0.7 1.3 3.1 4.7 8 10.1 5.1 5.6 7.7 9.7 5.7 14.4-1.1 2.6-4 4.4-7.2 4.4zm-6.7-3.9q0.3 0 0.4 0.2c1.3 2.1 3.6 3.3 6.3 3.3v0.2-0.2c3.1 0 5.8-1.7 6.9-4.2 1.9-4.4-0.7-8.5-5.7-14-4.6-5-7-8.4-7.9-9.8-0.9 1.4-3.3 4.8-7.9 9.8-5 5.5-7.5 9.6-5.7 14 1.1 2.5 3.9 4.2 7 4.2 2.6 0 4.9-1.2 6.2-3.3q0.2-0.2 0.4-0.2z"/><path fill-rule="evenodd" d="m45.4 46.1c-1.3 2.9-4.5 4.9-8.2 4.9-2.2 0-4.3-0.7-5.8-2.1q0 0-0.1 0c1.3 9.7 5.7 16.2 5.7 16.2h-13.7c0 0 4.3-6.5 5.6-16.2q0 0 0 0-0.1 0-0.1 0c-1.5 1.4-3.5 2.1-5.8 2.1-3.6 0-6.9-2-8.2-4.9-2.1-5.2 0.7-9.8 6.3-16 6-6.6 8.3-10.4 8.7-11.1q0 0 0 0 0.1-0.1 0.1-0.1 0 0 0.1 0 0 0 0 0 0-0.1 0-0.1 0 0 0 0 0.1 0 0.1 0 0 0 0 0 0 0 0 0 0 0 0 0 0 0 0.1 0 0 0 0 0.1 0.1 0 0.2 0.1 0 0 0 0c0.4 0.7 2.8 4.6 8.8 11.1 5.6 6.2 8.4 10.8 6.2 16zm-15.2 5.4q-0.1-0.2-0.2-0.5 0 0.1 0 0.2 0 0 0 0 0 0 0 0.1c-0.4 2.3-1.1 4.6-2.3 6.7-0.7 1.2-1.5 2.2-1.5 3.6 0 1 0.6 1.9 1.5 2.4 1.7 0.8 3.3-2.1 1.4-2.8q-0.2-0.1-0.4 0c-0.2 0-0.5 0.1-0.8 0.1-0.4 0-0.7-0.2-0.7-0.6-0.1-0.3 0.1-0.5 0.3-0.6q0.2 0 0.4 0.1 0.1 0.1 0 0.2c0 0-0.1 0-0.1 0.1q0 0 0 0 0 0 0 0.1c0.2 0.2 0.6-0.3 0.4-0.5-0.2-0.4-0.8-0.3-1 0.1-0.3 0.3 0 0.9 0.3 1.1q0.1 0.1 0.4 0.2-0.3 0.2-0.5 0.5c-0.3 0.5 0.1 1.1 0.6 1.2 0 0.1 0 0 0 0-0.4-0.2-0.3-0.8 0-1.1q0-0.1 0.1-0.2c0 0.6 0.7 1.1 0.9 0.6 0.1-0.2-0.1-0.2-0.2-0.1-0.4-0.2 0.2-1.6 0.8-0.7 0.7 0.9-0.3 1.7-1 1.9-1.4 0.4-2.1-1-2.1-2.1-0.1-1.4 1.2-3 1.8-4.2 0.9-1.8 1.5-3.8 1.7-5.7 0.3 1.9 0.9 3.9 1.8 5.7 0.6 1.2 1.9 2.8 1.8 4.2 0 1.1-0.7 2.5-2.1 2.1-0.7-0.2-1.7-1-1-1.9 0.6-0.9 1.2 0.5 0.8 0.7-0.1-0.1-0.3-0.1-0.2 0.1 0.2 0.5 0.9 0 0.9-0.6q0.1 0.1 0.1 0.2c0.3 0.3 0.4 0.9 0 1.1 0 0 0 0.1 0 0 0.5-0.1 0.9-0.7 0.6-1.2q-0.2-0.3-0.5-0.5 0.2-0.1 0.4-0.2c0.3-0.2 0.6-0.8 0.3-1.1-0.2-0.4-0.8-0.5-1-0.1-0.2 0.2 0.2 0.7 0.4 0.5q0-0.1 0-0.1 0 0 0 0c0-0.1-0.1-0.1-0.1-0.1q-0.1-0.1 0-0.2 0.2-0.1 0.3-0.1c0.3 0.1 0.5 0.3 0.4 0.6 0 0.4-0.3 0.6-0.7 0.6-0.3 0-0.6-0.1-0.8-0.1q-0.2-0.1-0.4 0c-1.9 0.7-0.3 3.6 1.4 2.8 0.9-0.5 1.5-1.4 1.5-2.4 0-1.4-0.8-2.4-1.5-3.6-1.1-2-1.8-4.2-2.2-6.5zm-0.1 3.3q0 0.7 0.3 1.4c0.4 1.3 0.5 2.3 0 3.5 0 0.1 0.1 0.1 0.1 0.1 0.6-0.8 1.1-1.7 0.8-2.6-0.4-1.4-1.1-2.5-1.2-3.9q0 0 0 0 0 0 0 0 0 0 0 0 0 0 0 0 0 0 0 0 0 0 0 0c-0.1 1.4-0.8 2.5-1.2 3.9-0.3 0.9 0.1 1.8 0.7 2.6 0.1 0 0.1 0 0.1-0.1-0.5-1.2-0.4-2.2 0.1-3.5q0.2-0.7 0.3-1.4zm0.6 5.6c-0.3 0.4-0.5 0.9-0.5 1.4q0 0 0 0c0.2-1.1 1.5-1.4 1.7-2.4 0.2-0.7 0-1.2-0.4-1.7-0.1-0.1-0.1 0-0.1 0 0.8 1.2-0.2 1.8-0.7 2.7zm-2-2.7c0 0 0-0.1-0.1 0-0.4 0.5-0.6 1-0.4 1.7 0.2 1 1.5 1.3 1.7 2.4q0 0 0 0c0-0.5-0.2-1-0.5-1.4-0.5-0.9-1.5-1.5-0.7-2.7zm9.9-27c-5.3-5.7-7.7-9.3-8.5-10.5-0.8 1.2-3.2 4.8-8.4 10.5-5.3 5.7-8 9.9-6 14.7 1.1 2.6 4.1 4.4 7.4 4.4 2.9 0 5.4-1.3 6.8-3.5q0.1-0.1 0.2-0.1 0.2 0 0.3 0.1c1.4 2.2 3.8 3.5 6.7 3.5 3.3 0 6.3-1.8 7.4-4.4 2-4.8-0.6-9-5.9-14.7z"/></svg>