<svg version="1.2" xmlns="http://www.w3.org/2000/svg" viewBox="0 0 62 84" width="62" height="84"><defs><linearGradient id="P" gradientUnits="userSpaceOnUse"/><radialGradient id="g1" cx="0" cy="0" r="1" href="#P" gradientTransform="matrix(111.62,0,0,111.62,28.965,-23.95)"><stop offset=".62" stop-color="#fff"/><stop offset="1" stop-color="#ababab"/></radialGradient><radialGradient id="g2" cx="0" cy="0" r="1" href="#P" gradientTransform="matrix(79.983,0,0,79.983,30.07,73.598)"><stop offset=".62" stop-color="#fff"/><stop offset="1" stop-color="#ababab"/></radialGradient><radialGradient id="g3" cx="0" cy="0" r="1" href="#P" gradientTransform="matrix(88.809,0,0,88.809,-0.108,2.33)"><stop offset=".1" stop-color="#fff"/><stop offset="1" stop-color="#ababab"/></radialGradient><radialGradient id="g4" cx="0" cy="0" r="1" href="#P" gradientTransform="matrix(75.641,0,0,75.641,17.311,24.83)"><stop stop-color="#fff"/><stop offset="1" stop-color="#fff"/></radialGradient><radialGradient id="g5" cx="0" cy="0" r="1" href="#P" gradientTransform="matrix(-23.534,0,0,-23.534,2.305,41.222)"><stop offset=".1" stop-color="#fff"/><stop offset="1" stop-color="#ababab"/></radialGradient></defs><style>.a{fill:#fff}.b{fill:#f1f1f1}.c{fill:#e2e2e2}.d{fill:#d4d4d4}.e{fill:#c5c5c5}.f{fill:#b7b7b7}.g{fill:#a8a8a8}.h{fill:#9a9a9a}.i{fill:#8b8b8b}.j{fill:#7d7d7d}.k{fill:#6e6e6e}.l{fill:#606060}.m{mix-blend-mode:multiply;fill:url(#g1)}.n{mix-blend-mode:multiply;fill:url(#g2)}.o{fill:url(#g3)}.p{mix-blend-mode:screen;fill:url(#g4)}.q{fill:url(#g5)}.r{fill:#ff2601}</style><g style="mix-blend-mode:multiply"><path class="a" d="m6.7 84.1q0.1 0 0.1 0h50.9q0 0 0 0c0.3 0 2-0.2 3.2-1.7q1-1.3 1-3.3v-71.5c0-3.5-2.5-4.9-4.2-4.9q0 0 0 0h-0.2q0 0 0 0h-50.7q0 0-0.1 0c-1.7 0-4.2 1.4-4.2 4.9v2.7q0 0 0 0v66.6q0 0 0 0.1v2.1c0 3.5 2.5 4.9 4.2 5z"/><path class="b" d="m6.5 83.8q0 0 0.1 0h50.8q0.1 0 0.1 0c0.3 0 2-0.1 3.1-1.6q1.1-1.3 1.1-3.3v-71.5c0-3.5-2.5-4.9-4.2-5q0 0-0.1 0h-0.1q0 0 0 0h-50.7q-0.1 0-0.1 0c-1.7 0.1-4.2 1.5-4.2 5v2.6q0 0.1 0 0.1v66.6q0 0 0 0.1v2.1c0 3.5 2.5 4.9 4.2 4.9z"/><path class="c" d="m6.3 83.6q0 0 0 0h50.9q0 0 0.1 0c0.3 0 1.9-0.1 3.1-1.6q1.1-1.4 1.1-3.4v-71.4c0-3.6-2.5-4.9-4.2-5q-0.1 0-0.1 0h-0.1q0 0 0 0h-50.8q0 0 0 0c-1.7 0.1-4.2 1.4-4.2 5v2.6q0 0.1 0 0.1v66.6q0 0 0 0.1v2c0 3.6 2.5 5 4.2 5z"/><path class="d" d="m6.1 83.4q0 0 0 0h50.9q0 0 0.1 0c0.3 0 1.9-0.1 3.1-1.6q1-1.4 1-3.4v-71.4c0-3.6-2.5-4.9-4.1-5q-0.1 0-0.1 0h-0.1q0 0 0 0h-50.8q0 0 0 0c-1.7 0.1-4.2 1.4-4.2 5v2.6q0 0 0 0.1v66.5q0 0.1 0 0.1v2.1c0 3.6 2.5 5 4.2 5z"/><path class="e" d="m5.9 83.2q0 0 0 0h50.9q0 0 0 0c0.4 0 2-0.1 3.2-1.7q1-1.3 1-3.3v-71.4c0-3.6-2.5-5-4.2-5q0 0 0 0h-0.1q0 0-0.1 0h-50.7q0 0 0 0c-1.7 0-4.2 1.4-4.2 5v2.6q0 0 0 0.1v66.5q0 0.1 0 0.1v2.1c0 3.6 2.5 4.9 4.2 5z"/><path class="f" d="m5.6 83q0.1 0 0.1 0h50.9q0 0 0 0c0.3 0 2-0.2 3.2-1.7q1-1.3 1-3.3v-71.4c0-3.6-2.5-5-4.2-5q0 0 0 0h-0.2q0 0 0 0h-50.7q0 0-0.1 0c-1.6 0-4.1 1.4-4.1 5v2.6q0 0 0 0.1v66.5q0 0.1 0 0.1v2.1c0 3.6 2.5 4.9 4.1 5z"/><path class="g" d="m5.4 82.8q0 0 0.1 0h50.8q0.1 0 0.1 0c0.3-0.1 2-0.2 3.2-1.7q1-1.3 1-3.3v-71.5c0-3.5-2.5-4.9-4.2-4.9q0 0-0.1 0h-0.1q0 0 0 0h-50.7q-0.1 0-0.1 0c-1.7 0-4.2 1.4-4.2 4.9v2.7q0 0 0 0v66.6q0 0 0 0.1v2.1c0 3.5 2.5 4.9 4.2 5z"/><path class="h" d="m5.2 82.5q0 0 0.1 0h50.8q0.1 0 0.1 0c0.3 0 2-0.1 3.1-1.6q1.1-1.3 1.1-3.4v-71.4c0-3.6-2.5-4.9-4.2-5q0 0-0.1 0h-0.1q0 0 0 0h-50.7q-0.1 0-0.1 0c-1.7 0.1-4.2 1.4-4.2 5v2.6q0 0.1 0 0.1v66.6q0 0 0 0.1v2c0 3.6 2.5 5 4.2 5z"/><path class="i" d="m5 82.3q0 0 0 0h50.9q0 0 0.1 0c0.3 0 1.9-0.1 3.1-1.6q1-1.4 1-3.4v-71.4c0-3.6-2.5-4.9-4.1-5q-0.1 0-0.1 0h-0.1q0 0 0 0h-50.8q0 0 0 0c-1.7 0.1-4.2 1.4-4.2 5v2.6q0 0.1 0 0.1v66.6q0 0 0 0v2.1c0 3.6 2.5 5 4.2 5z"/><path class="j" d="m4.8 82.1q0 0 0 0h50.9q0 0 0 0c0.4 0 2-0.1 3.2-1.7q1-1.3 1-3.3v-71.4c0-3.6-2.5-5-4.2-5q0 0 0 0h-0.1q0 0-0.1 0h-50.7q0 0 0 0c-1.7 0-4.2 1.4-4.2 5v2.6q0 0 0 0.1v66.5q0 0.1 0 0.1v2.1c0 3.6 2.5 4.9 4.2 5z"/><path class="k" d="m4.5 81.9q0.1 0 0.1 0h50.9q0 0 0 0c0.3 0 2-0.2 3.2-1.7q1-1.3 1-3.3v-71.4c0-3.6-2.5-5-4.2-5q0 0 0 0h-0.1q-0.1 0-0.1 0h-50.7q0 0-0.1 0c-1.6 0-4.1 1.4-4.1 5v2.6q0 0 0 0.1v66.5q0 0.1 0 0.1v2.1c0 3.6 2.5 4.9 4.1 5z"/><path class="l" d="m4.3 81.7q0.1 0 0.1 0h50.9q0 0 0 0c0.3 0 2-0.2 3.2-1.7q1-1.3 1-3.3v-71.5c0-3.5-2.5-4.9-4.2-4.9q0 0 0 0h-0.2q0 0 0 0h-50.7q0 0-0.1 0c-1.7 0-4.2 1.4-4.2 4.9v2.7q0 0 0 0v66.6q0 0 0 0.1v2.1c0 3.5 2.5 4.9 4.2 5z"/></g><path class="a" d="m4.3 81.7q0.1 0 0.1 0h50.9q0 0 0 0c0.3 0 2-0.2 3.2-1.7q1-1.3 1-3.3v-71.5c0-3.5-2.5-4.9-4.2-4.9q0 0 0 0h-0.2q0 0 0 0h-50.7q0 0-0.1 0c-1.7 0-4.2 1.4-4.2 4.9v2.7q0 0 0 0v66.6q0 0 0 0.1v2.1c0 3.5 2.5 4.9 4.2 5z"/><path class="a" d="m55.3 2.4h-24.4-2.1-24.4c0 0-2.1 0-2.1 2.8v19.3 32.9 19.3c0 2.8 2.1 2.9 2.1 2.9h24.4 2.1 24.4c0 0 2.1-0.1 2.1-2.9v-19.3-32.9-19.3c0-2.8-2.1-2.8-2.1-2.8z"/><path class="m" d="m34.8 44q-16.3 0-32.5 0v32.7c0 2.8 2.1 2.9 2.1 2.9h50.9c0 0 2.1-0.1 2.1-2.9v-32.7q-11.3 0-22.6 0z"/><path class="n" d="m2.3 40.9q6.9 0 13.9 0 20 0 40.1 0 0.5 0 1.1 0v-35.7c0-2.8-2.1-2.8-2.1-2.8h-50.9c0 0-2.1 0-2.1 2.8v19.3z"/><path class="o" d="m57.3 5.2v19.3 32.8 19.3c0 2.8-2.2 2.8-2.2 2.8h-24.4-2.1-24.4c0 0-0.4 0-0.9-0.3 0.5 0.4 1.1 0.5 1.1 0.5h24.4 2.1 24.4c0 0 2.1-0.1 2.1-2.9v-19.3-32.9-19.3c0-2.8-2.1-2.8-2.1-2.8h-0.2c0 0 2.2 0 2.2 2.8z"/><path class="p" d="m2.4 76.7v-19.2-32.9-19.2c0-2.9 2.1-2.9 2.1-2.9h24.4 2.1 24.4c0 0 0.5 0 1 0.3-0.6-0.4-1.1-0.4-1.1-0.4h-24.4-2.1-24.4c0 0-2.1 0-2.1 2.8v19.3 32.9 19.3c0 2.8 2.1 2.9 2.1 2.9h0.1c0 0-2.1-0.1-2.1-2.9z"/><path class="q" d="m2.2 7.9v66.6q0.1-0.2 0.2-0.4v-16.8-48.2q-0.1-0.6-0.2-1.2z"/><path class="r" d="m8.9 16.8c-1.4-0.8-2.5-3.1-2.5-3.2q0 0 0 0c-0.1 0.1-1.2 2.4-2.6 3.2q0 0 0 0 0 0 0 0c1.4 0.8 2.5 3.1 2.6 3.2q0 0 0 0c0-0.1 1.1-2.4 2.5-3.2z"/><path class="r" d="m4.3 12.4v-1.1h0.6q0.2 0.5 0.5 0.8 0.3 0.2 0.7 0.2 0.7 0 1-0.4 0.3-0.4 0.3-1.1 0-0.6-0.1-0.9-0.2-0.3-0.5-0.5-0.3-0.1-0.7-0.1-0.3 0-0.6 0-0.2 0-0.5 0.1l-0.4-0.2v-3.2h2.7q0.2 0 0.3 0 0-0.1 0.1-0.1 0-0.1 0.1-0.2h0.4l-0.1 1.1h-2.8v2.1q0.2-0.1 0.5-0.1 0.3-0.1 0.6-0.1 0.6 0 1.1 0.3 0.4 0.2 0.6 0.6 0.3 0.5 0.3 1 0 0.7-0.3 1.2-0.3 0.4-0.8 0.7-0.5 0.2-1.2 0.2-0.8 0-1.8-0.3z"/><path class="r" d="m50.4 65c1.4 0.7 2.5 3.1 2.5 3.1q0 0 0 0c0.1 0 1.2-2.4 2.6-3.1q0 0 0 0 0 0 0 0c-1.4-0.8-2.5-3.2-2.6-3.2q0 0 0 0c0 0-1.1 2.4-2.5 3.2z"/><path class="r" d="m55 69.4v1h-0.6q-0.2-0.5-0.5-0.7-0.3-0.3-0.7-0.3-0.7 0-1 0.4-0.3 0.4-0.3 1.2 0 0.5 0.1 0.9 0.2 0.3 0.5 0.4 0.3 0.2 0.7 0.2 0.3 0 0.6 0 0.2-0.1 0.5-0.2l0.4 0.3v3.2h-2.7q-0.2 0-0.3 0 0 0-0.1 0.1 0 0-0.1 0.2h-0.4l0.1-1.1h2.8v-2.2q-0.2 0.1-0.5 0.2-0.3 0-0.6 0-0.6 0-1-0.2-0.5-0.2-0.7-0.7-0.3-0.4-0.3-1 0-0.6 0.3-1.1 0.3-0.5 0.8-0.7 0.5-0.3 1.2-0.3 0.8 0 1.8 0.4z"/><path class="r" d="m24.7 64.1c-2.8-1.5-5-6.2-5.1-6.3q0 0 0 0c0 0.1-2.3 4.8-5 6.3q0 0 0 0 0 0 0 0c2.7 1.5 5 6.2 5 6.4q0 0 0 0 0 0 0 0c0.1-0.2 2.3-4.9 5.1-6.4z"/><path class="r" d="m24.7 17.8q0 0 0 0c-2.8-1.5-5-6.2-5.1-6.3q0 0 0 0c0 0.1-2.3 4.8-5 6.3q0 0 0 0 0 0 0 0c2.7 1.5 5 6.2 5 6.3v0.1q0 0 0-0.1v0.1-0.1c0.1-0.1 2.3-4.8 5.1-6.3z"/><path class="r" d="m45.1 64.1c-2.8-1.5-5-6.2-5.1-6.3q0 0 0 0c-0.1 0.1-2.3 4.8-5.1 6.3q0 0 0 0 0 0 0 0c2.8 1.5 5 6.2 5.1 6.4q0 0 0 0 0 0 0 0c0.1-0.2 2.3-4.9 5.1-6.4z"/><path class="r" d="m45.1 17.8q0 0 0 0c-2.8-1.5-5-6.2-5.1-6.3q0 0 0 0c-0.1 0.1-2.3 4.8-5.1 6.3q0 0 0 0 0 0 0 0c2.8 1.5 5 6.2 5.1 6.3v0.1q0 0 0-0.1v0.1-0.1c0.1-0.1 2.3-4.8 5.1-6.3z"/><path class="r" d="m34.9 41q0 0 0 0c-2.8-1.6-5-6.2-5.1-6.4q0 0 0 0c-0.1 0.2-2.3 4.8-5 6.4h-0.1q0.1 0 0.1 0 0 0-0.1 0h0.1c2.7 1.5 4.9 6.2 5 6.3q0 0 0 0c0.1-0.1 2.3-4.8 5.1-6.3q0 0 0 0z"/></svg>