<svg version="1.2" xmlns="http://www.w3.org/2000/svg" viewBox="0 0 63 85" width="63" height="85"><defs><linearGradient id="P" gradientUnits="userSpaceOnUse"/><radialGradient id="g1" cx="0" cy="0" r="1" href="#P" gradientTransform="matrix(111.62,0,0,111.62,29.086,-23.675)"><stop offset=".62" stop-color="#fff"/><stop offset="1" stop-color="#ababab"/></radialGradient><radialGradient id="g2" cx="0" cy="0" r="1" href="#P" gradientTransform="matrix(79.983,0,0,79.983,30.19,73.873)"><stop offset=".62" stop-color="#fff"/><stop offset="1" stop-color="#ababab"/></radialGradient><radialGradient id="g3" cx="0" cy="0" r="1" href="#P" gradientTransform="matrix(88.809,0,0,88.809,.013,2.606)"><stop offset=".1" stop-color="#fff"/><stop offset="1" stop-color="#ababab"/></radialGradient><radialGradient id="g4" cx="0" cy="0" r="1" href="#P" gradientTransform="matrix(75.641,0,0,75.641,17.431,25.105)"><stop stop-color="#fff"/><stop offset="1" stop-color="#fff"/></radialGradient><radialGradient id="g5" cx="0" cy="0" r="1" href="#P" gradientTransform="matrix(-23.524,0,0,-23.524,2.425,41.498)"><stop offset=".1" stop-color="#fff"/><stop offset="1" stop-color="#ababab"/></radialGradient></defs><style>.a{fill:#fff}.b{fill:#f1f1f1}.c{fill:#e2e2e2}.d{fill:#d4d4d4}.e{fill:#c5c5c5}.f{fill:#b7b7b7}.g{fill:#a8a8a8}.h{fill:#9a9a9a}.i{fill:#8b8b8b}.j{fill:#7d7d7d}.k{fill:#6e6e6e}.l{fill:#606060}.m{mix-blend-mode:multiply;fill:url(#g1)}.n{mix-blend-mode:multiply;fill:url(#g2)}.o{fill:url(#g3)}.p{mix-blend-mode:screen;fill:url(#g4)}.q{fill:url(#g5)}.r{fill:#ff2601}</style><g style="mix-blend-mode:multiply"><path class="a" d="m6.8 84.3q0.1 0 0.1 0h50.9q0 0 0 0c0.4 0 2-0.1 3.2-1.6q1-1.3 1-3.4v-71.4c0-3.6-2.5-4.9-4.2-5q0 0 0 0h-0.1q-0.1 0-0.1 0h-50.7q0 0-0.1 0c-1.6 0.1-4.1 1.4-4.1 5v2.6q0 0.1 0 0.1v66.6q0 0 0 0.1v2c0 3.6 2.5 5 4.1 5z"/><path class="b" d="m6.6 84.1q0.1 0 0.1 0h50.9q0 0 0 0c0.3 0 2-0.1 3.2-1.6q1-1.4 1-3.4v-71.4c0-3.6-2.5-4.9-4.2-5q0 0 0 0h-0.2q0 0 0 0h-50.7q0 0-0.1 0c-1.6 0.1-4.2 1.4-4.2 5v2.6q0 0.1 0 0.1v66.6q0 0 0 0.1v2c0 3.6 2.6 5 4.2 5z"/><path class="c" d="m6.4 83.9q0 0 0.1 0h50.8q0.1 0 0.1 0c0.3 0 2-0.1 3.2-1.7q1-1.3 1-3.3v-71.4c0-3.6-2.5-4.9-4.2-5q0 0-0.1 0h-0.1q0 0 0 0h-50.7q-0.1 0-0.1 0c-1.7 0.1-4.2 1.4-4.2 5v2.6q0 0 0 0.1v66.5q0 0.1 0 0.1v2.1c0 3.6 2.5 4.9 4.2 5z"/><path class="d" d="m6.2 83.7q0 0 0.1 0h50.8q0 0 0.1 0c0.3 0 2-0.1 3.1-1.7q1.1-1.3 1.1-3.3v-71.4c0-3.6-2.5-5-4.2-5q-0.1 0-0.1 0h-0.1q0 0 0 0h-50.7q-0.1 0-0.1 0c-1.7 0-4.2 1.4-4.2 5v2.6q0 0 0 0.1v66.5q0 0.1 0 0.1v2.1c0 3.6 2.5 4.9 4.2 5z"/><path class="e" d="m6 83.5q0 0 0 0h50.9q0 0 0.1 0c0.3 0 1.9-0.2 3.1-1.7q1-1.3 1-3.3v-71.4c0-3.6-2.5-5-4.1-5q-0.1 0-0.1 0h-0.1q0 0 0 0h-50.8q0 0 0 0c-1.7 0-4.2 1.4-4.2 5v2.6q0 0 0 0v66.6q0 0.1 0 0.1v2.1c0 3.6 2.5 4.9 4.2 5z"/><path class="f" d="m5.8 83.2q0 0 0 0h50.9q0 0 0 0c0.4 0 2-0.1 3.2-1.6q1-1.3 1-3.3v-71.5c0-3.5-2.5-4.9-4.2-5q0 0 0 0h-0.1q0 0-0.1 0h-50.7q0 0 0 0c-1.7 0.1-4.2 1.5-4.2 5v2.6q0 0.1 0 0.1v66.6q0 0 0 0.1v2.1c0 3.5 2.5 4.9 4.2 4.9z"/><path class="g" d="m5.5 83q0.1 0 0.1 0h50.9q0 0 0 0c0.3 0 2-0.1 3.2-1.6q1-1.4 1-3.4v-71.4c0-3.6-2.5-4.9-4.2-5q0 0 0 0h-0.1q-0.1 0-0.1 0h-50.7q0 0-0.1 0c-1.6 0.1-4.1 1.4-4.1 5v2.6q0 0.1 0 0.1v66.6q0 0 0 0.1v2c0 3.6 2.5 5 4.1 5z"/><path class="h" d="m5.3 82.8q0 0 0.1 0h50.8q0.1 0 0.1 0c0.3 0 2-0.1 3.2-1.6q1-1.4 1-3.4v-71.4c0-3.6-2.5-4.9-4.2-5q0 0-0.1 0h-0.1q0 0 0 0h-50.7q-0.1 0-0.1 0c-1.7 0.1-4.2 1.4-4.2 5v2.6q0 0 0 0.1v66.6q0 0 0 0v2.1c0 3.6 2.5 5 4.2 5z"/><path class="i" d="m5.1 82.6q0 0 0.1 0h50.8q0.1 0 0.1 0c0.3 0 2-0.1 3.1-1.7q1.1-1.3 1.1-3.3v-71.4c0-3.6-2.5-5-4.2-5q0 0-0.1 0h-0.1q0 0 0 0h-50.7q-0.1 0-0.1 0c-1.7 0-4.2 1.4-4.2 5v2.6q0 0 0 0.1v66.5q0 0.1 0 0.1v2.1c0 3.6 2.5 4.9 4.2 5z"/><path class="j" d="m4.9 82.4q0 0 0 0h50.9q0 0 0.1 0c0.3 0 1.9-0.2 3.1-1.7q1-1.3 1-3.3v-71.4c0-3.6-2.5-5-4.1-5q-0.1 0-0.1 0h-0.1q0 0 0 0h-50.8q0 0 0 0c-1.7 0-4.2 1.4-4.2 5v2.6q0 0 0 0.1v66.5q0 0.1 0 0.1v2.1c0 3.6 2.5 4.9 4.2 5z"/><path class="k" d="m4.7 82.2q0 0 0 0h50.9q0 0 0 0c0.4-0.1 2-0.2 3.2-1.7q1-1.3 1-3.3v-71.5c0-3.5-2.5-4.9-4.2-4.9q0 0 0 0h-0.1q0 0-0.1 0h-50.7q0 0 0 0c-1.7 0-4.2 1.4-4.2 4.9v2.7q0 0 0 0v66.6q0 0 0 0.1v2.1c0 3.5 2.5 4.9 4.2 5z"/><path class="l" d="m4.4 81.9q0.1 0 0.1 0h50.9q0 0 0 0c0.4 0 2-0.1 3.2-1.6q1-1.3 1-3.4v-71.4c0-3.6-2.5-4.9-4.2-5q0 0 0 0h-0.1q-0.1 0-0.1 0h-50.7q0 0-0.1 0c-1.6 0.1-4.1 1.4-4.1 5v2.6q0 0.1 0 0.1v66.6q0 0 0 0.1v2c0 3.6 2.5 5 4.1 5z"/></g><path class="a" d="m4.4 81.9q0.1 0 0.1 0h50.9q0 0 0 0c0.4 0 2-0.1 3.2-1.6q1-1.3 1-3.4v-71.4c0-3.6-2.5-4.9-4.2-5q0 0 0 0h-0.1q-0.1 0-0.1 0h-50.7q0 0-0.1 0c-1.6 0.1-4.1 1.4-4.1 5v2.6q0 0.1 0 0.1v66.6q0 0 0 0.1v2c0 3.6 2.5 5 4.1 5z"/><path class="a" d="m55.4 2.6h-24.4-2.1-24.4c0 0-2.1 0.1-2.1 2.9v19.3 32.9 19.2c0 2.9 2.1 2.9 2.1 2.9h24.4 2.1 24.4c0 0 2.1 0 2.1-2.9v-19.2-32.9-19.3c0-2.8-2.1-2.9-2.1-2.9z"/><path class="m" d="m34.9 44.3q-16.3 0-32.5 0v32.6c0 2.9 2.1 2.9 2.1 2.9h50.9c0 0 2.1 0 2.1-2.9v-32.6q-11.3 0-22.6 0z"/><path class="n" d="m2.4 41.2q6.9 0 13.9 0 20 0 40.1 0 0.6 0 1.1 0v-35.7c0-2.8-2.1-2.9-2.1-2.9h-50.9c0 0-2.1 0.1-2.1 2.9v19.3z"/><path class="o" d="m57.4 5.5v19.2 32.9 19.2c0 2.9-2.1 2.9-2.1 2.9h-24.5-2-24.5c0 0-0.4 0-0.9-0.3 0.5 0.4 1.1 0.4 1.1 0.4h24.4 2.1 24.4c0 0 2.1 0 2.1-2.9v-19.2-32.9-19.3c0-2.8-2.1-2.9-2.1-2.9h-0.1c0 0 2.1 0.1 2.1 2.9z"/><path class="p" d="m2.5 77v-19.3-32.8-19.3c0-2.8 2.1-2.8 2.1-2.8h24.4 2.1 24.4c0 0 0.5 0 1 0.3-0.6-0.4-1.1-0.5-1.1-0.5h-24.4-2.1-24.4c0 0-2.1 0.1-2.1 2.9v19.3 32.9 19.2c0 2.9 2.1 2.9 2.1 2.9h0.1c0 0-2.1 0-2.1-2.8z"/><path class="q" d="m2.4 8.2v66.6q0-0.2 0.1-0.4v-16.8-48.2q-0.1-0.6-0.1-1.2z"/><path class="r" d="m9.5 17.1c-1.4-0.8-2.5-3.1-2.5-3.2-0.1 0.1-1.2 2.4-2.6 3.2 1.4 0.8 2.5 3.1 2.6 3.2q0 0 0 0c0-0.1 1.1-2.4 2.5-3.2z"/><path fill-rule="evenodd" class="r" d="m5.8 12.5v-0.3q0.7 0 1.2-0.3 0.5-0.3 0.8-0.8 0.3-0.6 0.4-1.6h-0.1q-0.4 0.3-0.8 0.4-0.4 0.1-0.8 0.1-0.6 0-1-0.2-0.4-0.2-0.5-0.7-0.2-0.4-0.2-1 0-0.4 0.1-0.8 0.2-0.4 0.4-0.7 0.3-0.3 0.8-0.5 0.4-0.2 1-0.2 1 0 1.5 0.8 0.6 0.7 0.6 2 0 1.2-0.4 2.1-0.4 0.9-1.1 1.4-0.8 0.5-1.7 0.6zm1-3q0.2 0 0.4 0 0.1-0.1 0.3-0.1 0.2-0.1 0.3-0.2 0.2-0.1 0.3-0.2 0 0 0.1-0.1 0 0 0-0.1 0-0.2 0-0.4 0-0.6-0.1-1.1-0.1-0.5-0.4-0.7-0.3-0.3-0.7-0.3-0.4 0-0.6 0.2-0.3 0.1-0.4 0.3-0.2 0.2-0.3 0.5 0 0.3 0 0.7 0 0.7 0.3 1.1 0.3 0.4 0.8 0.4z"/><path class="r" d="m50.6 65.2c1.4 0.8 2.5 3.1 2.6 3.2q0 0 0 0c0-0.1 1.1-2.4 2.5-3.2-1.4-0.7-2.5-3.1-2.5-3.2-0.1 0.1-1.2 2.5-2.6 3.2z"/><path fill-rule="evenodd" class="r" d="m54.3 69.8v0.3q-0.7 0-1.2 0.3-0.5 0.3-0.8 0.9-0.3 0.5-0.4 1.5h0.1q0.4-0.3 0.8-0.4 0.4-0.1 0.8-0.1 0.6 0 1 0.2 0.4 0.2 0.6 0.7 0.2 0.4 0.2 1 0 0.4-0.2 0.8-0.1 0.4-0.4 0.7-0.3 0.3-0.7 0.5-0.5 0.2-1 0.2-1.1 0-1.6-0.7-0.5-0.8-0.5-2.1 0-1.2 0.4-2.1 0.4-0.9 1.1-1.4 0.7-0.5 1.6-0.5zm-1 2.9q-0.2 0-0.3 0-0.2 0.1-0.4 0.1-0.1 0.1-0.3 0.2-0.1 0.1-0.3 0.2 0 0 0 0.1-0.1 0.1-0.1 0.2 0 0.1 0 0.3 0 0.6 0.1 1.1 0.2 0.5 0.4 0.7 0.3 0.3 0.7 0.3 0.4 0 0.6-0.1 0.3-0.2 0.4-0.4 0.2-0.2 0.3-0.5 0-0.3 0-0.7 0-0.7-0.2-1.1-0.3-0.4-0.9-0.4z"/><path class="r" d="m45.2 64.4c-2.8-1.5-5-6.2-5.1-6.4q0 0 0 0c-0.1 0.2-2.3 4.9-5 6.4q0 0 0 0 0 0 0 0c2.7 1.5 4.9 6.2 5 6.3q0 0 0 0 0 0 0 0c0.1-0.1 2.3-4.8 5.1-6.3z"/><path class="r" d="m45.2 18.1q0 0 0 0c-2.8-1.6-5-6.2-5.1-6.4q0 0 0 0c-0.1 0.2-2.3 4.8-5 6.4q0 0 0 0 0 0 0 0c2.7 1.5 4.9 6.2 5 6.3q0 0 0 0c0.1-0.1 2.3-4.8 5.1-6.3z"/><path class="r" d="m45.2 49c-2.8-1.6-5-6.2-5.1-6.4-0.1 0.2-2.3 4.8-5 6.4q0 0 0 0 0 0 0 0c2.7 1.5 4.9 6.1 5 6.3 0.1-0.2 2.3-4.8 5.1-6.3q0 0 0 0z"/><path class="r" d="m45.2 33.5c-2.8-1.5-5-6.2-5.1-6.3-0.1 0.1-2.3 4.8-5 6.3q0 0 0 0 0 0 0 0c2.7 1.6 4.9 6.2 5 6.4 0.1-0.2 2.3-4.8 5.1-6.4z"/><path class="r" d="m24.8 64.4c-2.8-1.5-5-6.2-5.1-6.4q0 0 0 0c0 0.2-2.2 4.9-5 6.4q0 0 0 0c2.8 1.5 5 6.2 5 6.3q0 0 0 0 0 0 0 0c0.1-0.1 2.3-4.8 5.1-6.3z"/><path class="r" d="m24.8 18.1q0 0 0 0c-2.8-1.6-5-6.2-5.1-6.4q0 0 0 0c0 0.2-2.2 4.8-5 6.4q0 0 0 0c2.8 1.5 5 6.2 5 6.3q0 0 0 0c0.1-0.1 2.3-4.8 5.1-6.3z"/><path class="r" d="m24.8 49c-2.8-1.6-5-6.2-5.1-6.4 0 0.2-2.2 4.8-5 6.4q0 0 0 0c2.8 1.5 5 6.1 5 6.3 0.1-0.2 2.3-4.8 5.1-6.3q0 0 0 0z"/><path class="r" d="m24.8 33.5c-2.8-1.5-5-6.2-5.1-6.3 0 0.1-2.2 4.8-5 6.3 2.8 1.6 5 6.2 5 6.4 0.1-0.2 2.3-4.8 5.1-6.4z"/><path class="r" d="m35 40.5c-2.8-1.5-5-6.2-5.1-6.3 0 0.1-2.3 4.8-5 6.3q0 0 0 0c2.7 1.5 5 6.2 5 6.3q0 0 0 0 0 0 0 0c0.1-0.1 2.3-4.8 5.1-6.3z"/></svg>