<svg version="1.2" xmlns="http://www.w3.org/2000/svg" viewBox="0 0 63 85" width="63" height="85"><defs><linearGradient id="P" gradientUnits="userSpaceOnUse"/><radialGradient id="g1" cx="0" cy="0" r="1" href="#P" gradientTransform="matrix(111.62,0,0,111.62,29.808,-23.669)"><stop offset=".62" stop-color="#fff"/><stop offset="1" stop-color="#ababab"/></radialGradient><radialGradient id="g2" cx="0" cy="0" r="1" href="#P" gradientTransform="matrix(79.982,0,0,79.982,30.912,73.879)"><stop offset=".62" stop-color="#fff"/><stop offset="1" stop-color="#ababab"/></radialGradient><radialGradient id="g3" cx="0" cy="0" r="1" href="#P" gradientTransform="matrix(88.809,0,0,88.809,.735,2.612)"><stop offset=".1" stop-color="#fff"/><stop offset="1" stop-color="#ababab"/></radialGradient><radialGradient id="g4" cx="0" cy="0" r="1" href="#P" gradientTransform="matrix(75.641,0,0,75.641,18.154,25.111)"><stop stop-color="#fff"/><stop offset="1" stop-color="#fff"/></radialGradient><radialGradient id="g5" cx="0" cy="0" r="1" href="#P" gradientTransform="matrix(-23.526,0,0,-23.526,3.147,41.504)"><stop offset=".1" stop-color="#fff"/><stop offset="1" stop-color="#ababab"/></radialGradient></defs><style>.a{fill:#fff}.b{fill:#f1f1f1}.c{fill:#e2e2e2}.d{fill:#d4d4d4}.e{fill:#c5c5c5}.f{fill:#b7b7b7}.g{fill:#a8a8a8}.h{fill:#9a9a9a}.i{fill:#8b8b8b}.j{fill:#7d7d7d}.k{fill:#6e6e6e}.l{fill:#606060}.m{mix-blend-mode:multiply;fill:url(#g1)}.n{mix-blend-mode:multiply;fill:url(#g2)}.o{fill:url(#g3)}.p{mix-blend-mode:screen;fill:url(#g4)}.q{fill:url(#g5)}.r{fill:#ff2601}</style><g style="mix-blend-mode:multiply"><path class="a" d="m62.7 7.9c0-3.5-2.5-4.9-4.1-5q-0.1 0-0.1 0h-0.1q0 0 0 0h-50.8q0 0 0 0c-1.7 0.1-4.2 1.5-4.2 5v2.6q0 0.1 0 0.1v66.6q0 0 0 0.1v2.1c0 3.5 2.5 4.9 4.2 4.9q0 0 0 0h50.9q0 0 0.1 0c0.3 0 1.9-0.1 3.1-1.6q1-1.3 1-3.3z"/><path class="b" d="m62.5 7.7c0-3.6-2.5-4.9-4.2-5q0 0 0 0h-0.1q-0.1 0-0.1 0h-50.7q0 0 0 0c-1.7 0.1-4.2 1.4-4.2 5v2.6q0 0.1 0 0.1v66.6q0 0 0 0v2.1c0 3.6 2.5 5 4.2 5q0 0 0 0h50.9q0 0 0 0c0.4 0 2-0.1 3.2-1.6q1-1.4 1-3.4z"/><path class="c" d="m62.3 7.5c0-3.6-2.5-4.9-4.2-5q0 0 0 0h-0.2q0 0 0 0h-50.7q0 0-0.1 0c-1.6 0.1-4.1 1.4-4.1 5v2.6q0 0 0 0.1v66.5q0 0.1 0 0.1v2.1c0 3.6 2.5 5 4.1 5q0.1 0 0.1 0h50.9q0 0 0 0c0.3 0 2-0.1 3.2-1.6q1-1.4 1-3.4z"/><path class="d" d="m62.1 7.3c0-3.6-2.5-5-4.2-5q0 0-0.1 0h-0.1q0 0 0 0h-50.7q-0.1 0-0.1 0c-1.7 0-4.2 1.4-4.2 5v2.6q0 0 0 0.1v66.5q0 0.1 0 0.1v2.1c0 3.6 2.5 4.9 4.2 5q0 0 0.1 0h50.8q0.1 0 0.1 0c0.3 0 2-0.1 3.2-1.7q1-1.3 1-3.3z"/><path class="e" d="m61.9 7.1c0-3.6-2.5-5-4.2-5q0 0-0.1 0h-0.1q0 0 0 0h-50.7q-0.1 0-0.1 0c-1.7 0-4.2 1.4-4.2 5v2.6q0 0 0 0.1v66.5q0 0.1 0 0.1v2.1c0 3.6 2.5 4.9 4.2 5q0 0 0.1 0h50.8q0.1 0 0.1 0c0.3 0 2-0.2 3.1-1.7q1.1-1.3 1.1-3.3z"/><path class="f" d="m61.6 6.8c0-3.5-2.5-4.9-4.1-4.9q-0.1 0-0.1 0h-0.1q0 0 0 0h-50.8q0 0 0 0c-1.7 0-4.2 1.4-4.2 4.9v2.7q0 0 0 0v66.6q0 0 0 0.1v2.1c0 3.5 2.5 4.9 4.2 5q0 0 0 0h50.9q0 0 0.1 0c0.3-0.1 1.9-0.2 3.1-1.7q1-1.3 1-3.3z"/><path class="g" d="m61.4 6.6c0-3.6-2.5-4.9-4.2-5q0 0 0 0h-0.1q0 0-0.1 0h-50.7q0 0 0 0c-1.7 0.1-4.2 1.4-4.2 5v2.6q0 0.1 0 0.1v66.6q0 0 0 0.1v2c0 3.6 2.5 5 4.2 5q0 0 0 0h50.9q0 0 0 0c0.4 0 2-0.1 3.2-1.6q1-1.3 1-3.4z"/><path class="h" d="m61.2 6.4c0-3.6-2.5-4.9-4.2-5q0 0 0 0h-0.1q-0.1 0-0.1 0h-50.7q0 0-0.1 0c-1.6 0.1-4.1 1.4-4.1 5v2.6q0 0.1 0 0.1v66.6q0 0 0 0v2.1c0 3.6 2.5 5 4.1 5q0.1 0 0.1 0h50.9q0 0 0 0c0.3 0 2-0.1 3.2-1.6q1-1.4 1-3.4z"/><path class="i" d="m61 6.2c0-3.6-2.5-5-4.2-5q0 0 0 0h-0.2q0 0 0 0h-50.7q0 0-0.1 0c-1.7 0-4.2 1.4-4.2 5v2.6q0 0 0 0.1v66.5q0 0.1 0 0.1v2.1c0 3.6 2.5 4.9 4.2 5q0.1 0 0.1 0h50.9q0 0 0 0c0.3 0 2-0.1 3.2-1.7q1-1.3 1-3.3z"/><path class="j" d="m60.8 6c0-3.6-2.5-5-4.2-5q0 0-0.1 0h-0.1q0 0 0 0h-50.7q-0.1 0-0.1 0c-1.7 0-4.2 1.4-4.2 5v2.6q0 0 0 0.1v66.5q0 0.1 0 0.1v2.1c0 3.6 2.5 4.9 4.2 5q0 0 0.1 0h50.8q0.1 0 0.1 0c0.3 0 2-0.2 3.1-1.7q1.1-1.3 1.1-3.3z"/><path class="k" d="m60.6 5.7c0-3.5-2.5-4.9-4.2-4.9q-0.1 0-0.1 0h-0.1q0 0 0 0h-50.8q0 0 0 0c-1.7 0-4.2 1.4-4.2 4.9v2.7q0 0 0 0v66.6q0 0 0 0.1v2.1c0 3.5 2.5 4.9 4.2 5q0 0 0 0h50.9q0 0 0.1 0c0.3-0.1 1.9-0.2 3.1-1.7q1-1.3 1.1-3.3z"/><path class="l" d="m60.3 5.5c0-3.5-2.5-4.9-4.1-5q-0.1 0-0.1 0h-0.1q0 0 0 0h-50.8q0 0 0 0c-1.7 0.1-4.2 1.5-4.2 5v2.6q0 0.1 0 0.1v66.6q0 0 0 0.1v2.1c0 3.5 2.5 4.9 4.2 4.9q0 0 0 0h50.9q0 0 0.1 0c0.3 0 1.9-0.1 3.1-1.6q1-1.3 1-3.3z"/></g><path class="a" d="m60.3 5.5c0-3.5-2.5-4.9-4.1-5q-0.1 0-0.1 0h-0.1q0 0 0 0h-50.8q0 0 0 0c-1.7 0.1-4.2 1.5-4.2 5v2.6q0 0.1 0 0.1v66.6q0 0 0 0.1v2.1c0 3.5 2.5 4.9 4.2 4.9q0 0 0 0h50.9q0 0 0.1 0c0.3 0 1.9-0.1 3.1-1.6q1-1.3 1-3.3z"/><path class="a" d="m56.1 2.6h-24.4-2.1-24.4c0 0-2.1 0.1-2.1 2.9v19.3 32.9 19.3c0 2.8 2.1 2.8 2.1 2.8h24.4 2.1 24.4c0 0 2.1 0 2.1-2.8v-19.3-32.9-19.3c0-2.8-2.1-2.9-2.1-2.9z"/><path class="m" d="m35.6 44.3q-16.3 0-32.5 0v32.7c0 2.8 2.1 2.8 2.1 2.8h50.9c0 0 2.1 0 2.1-2.8v-32.7q-11.3 0-22.6 0z"/><path class="n" d="m3.1 41.2q7 0 13.9 0 20.1 0 40.1 0 0.6 0 1.1 0v-35.7c0-2.8-2.1-2.9-2.1-2.9h-50.9c0 0-2.1 0.1-2.1 2.9v19.3z"/><path class="o" d="m58.1 5.5v19.3 32.8 19.2c0 2.9-2.1 2.9-2.1 2.9h-24.4-2.1-24.4c0 0-0.5 0-1-0.3 0.6 0.4 1.1 0.4 1.1 0.4h24.4 2.1 24.4c0 0 2.1 0 2.1-2.8v-19.3-32.9-19.3c0-2.8-2.1-2.9-2.1-2.9h-0.1c0 0 2.1 0.1 2.1 2.9z"/><path class="p" d="m3.2 77v-19.3-32.8-19.3c0-2.8 2.1-2.8 2.1-2.8h24.5 2 24.5c0 0 0.4 0 0.9 0.3-0.5-0.4-1.1-0.5-1.1-0.5h-24.4-2.1-24.4c0 0-2.1 0.1-2.1 2.9v19.3 32.9 19.3c0 2.8 2.1 2.8 2.1 2.8h0.1c0 0-2.1 0-2.1-2.8z"/><path class="q" d="m3.1 8.2v66.6q0-0.2 0.1-0.4v-16.8-48.2q-0.1-0.6-0.1-1.2z"/><path class="r" d="m9.2 17.6c-1.2 0.8-1.7 1.7-1.8 1.7 0 0-0.5-0.9-1.7-1.7-1.2-0.9-1.4-2-1-2.8 0.4-0.8 2.1-1.2 2.7 0.4 0.7-1.6 2.4-1.2 2.8-0.4 0.4 0.8 0.1 1.9-1 2.8z"/><path class="r" d="m9.6 6.2l-2.9 6.4h-0.7v-0.2l2.7-5.6h-2.2q-0.2 0-0.3 0-0.1 0-0.2 0.1-0.1 0.1-0.1 0.2-0.1 0.1-0.2 0.4h-0.4l0.1-1.5h4.2z"/><path class="r" d="m52.2 64.8c1.1-0.8 1.7-1.7 1.7-1.7 0 0 0.6 0.9 1.7 1.7 1.2 0.9 1.5 1.9 1.1 2.7-0.5 0.8-2.1 1.2-2.8-0.4-0.7 1.6-2.3 1.2-2.7 0.4-0.5-0.8-0.2-1.8 1-2.7z"/><path class="r" d="m51.8 76.2l2.8-6.5h0.7v0.3l-2.6 5.5v0.1h2.1q0.2 0 0.3 0 0.2-0.1 0.2-0.2 0.1 0 0.2-0.1 0-0.1 0.1-0.5h0.4l-0.1 1.6h-4.1z"/><path class="r" d="m23.9 20.9c-2.2 1.7-3.4 3.4-3.4 3.5 0-0.1-1.2-1.8-3.4-3.5-2.4-1.7-2.9-3.8-2.1-5.4 0.9-1.6 4.2-2.4 5.5 0.8 1.3-3.2 4.6-2.4 5.4-0.8 0.9 1.6 0.4 3.7-2 5.4z"/><path class="r" d="m17.1 61.5c2.2-1.7 3.4-3.5 3.4-3.5 0 0 1.2 1.8 3.4 3.5 2.4 1.7 2.9 3.8 2.1 5.4-0.9 1.6-4.2 2.4-5.5-0.8-1.3 3.2-4.6 2.4-5.5 0.8-0.8-1.6-0.3-3.7 2.1-5.4z"/><path class="r" d="m44.3 20.9c-2.3 1.7-3.4 3.4-3.4 3.5-0.1-0.1-1.2-1.8-3.5-3.5-2.3-1.7-2.8-3.8-2-5.4 0.8-1.6 4.1-2.4 5.5 0.8 1.3-3.2 4.6-2.4 5.4-0.8 0.8 1.6 0.3 3.7-2 5.4z"/><path class="r" d="m23.9 42.8c-2.2 1.7-3.4 3.5-3.4 3.5 0 0-1.2-1.8-3.4-3.5-2.4-1.7-2.9-3.8-2.1-5.4 0.9-1.6 4.2-2.3 5.5 0.8 1.3-3.1 4.6-2.4 5.4-0.8 0.9 1.6 0.4 3.7-2 5.4z"/><path class="r" d="m44.3 42.8c-2.3 1.7-3.4 3.5-3.4 3.5-0.1 0-1.2-1.8-3.5-3.5-2.3-1.7-2.8-3.8-2-5.4 0.8-1.6 4.1-2.3 5.5 0.8 1.3-3.1 4.6-2.4 5.4-0.8 0.8 1.6 0.3 3.7-2 5.4z"/><path class="r" d="m37.4 61.5c2.3-1.7 3.4-3.5 3.5-3.5 0 0 1.1 1.8 3.4 3.5 2.3 1.7 2.8 3.8 2 5.4-0.8 1.6-4.1 2.4-5.4-0.8-1.4 3.2-4.7 2.4-5.5 0.8-0.8-1.6-0.3-3.7 2-5.4z"/><path class="r" d="m34.1 32.1c-2.3 1.7-3.4 3.5-3.4 3.5-0.1 0-1.2-1.8-3.5-3.5-2.3-1.7-2.8-3.8-2-5.4 0.8-1.6 4.2-2.3 5.5 0.8 1.3-3.1 4.6-2.4 5.4-0.8 0.9 1.6 0.3 3.7-2 5.4z"/></svg>