<svg version="1.2" xmlns="http://www.w3.org/2000/svg" viewBox="0 0 63 85" width="63" height="85"><defs><linearGradient id="P" gradientUnits="userSpaceOnUse"/><radialGradient id="g1" cx="0" cy="0" r="1" href="#P" gradientTransform="matrix(111.62,0,0,111.62,29.319,-23.463)"><stop offset=".62" stop-color="#fff"/><stop offset="1" stop-color="#ababab"/></radialGradient><radialGradient id="g2" cx="0" cy="0" r="1" href="#P" gradientTransform="matrix(79.983,0,0,79.983,30.423,74.085)"><stop offset=".62" stop-color="#fff"/><stop offset="1" stop-color="#ababab"/></radialGradient><radialGradient id="g3" cx="0" cy="0" r="1" href="#P" gradientTransform="matrix(88.809,0,0,88.809,.245,2.818)"><stop offset=".1" stop-color="#fff"/><stop offset="1" stop-color="#ababab"/></radialGradient><radialGradient id="g4" cx="0" cy="0" r="1" href="#P" gradientTransform="matrix(75.641,0,0,75.641,17.664,25.318)"><stop stop-color="#fff"/><stop offset="1" stop-color="#fff"/></radialGradient><radialGradient id="g5" cx="0" cy="0" r="1" href="#P" gradientTransform="matrix(-23.534,0,0,-23.534,2.658,41.71)"><stop offset=".1" stop-color="#fff"/><stop offset="1" stop-color="#ababab"/></radialGradient></defs><style>.a{fill:#fff}.b{fill:#f1f1f1}.c{fill:#e2e2e2}.d{fill:#d4d4d4}.e{fill:#c5c5c5}.f{fill:#b7b7b7}.g{fill:#a8a8a8}.h{fill:#9a9a9a}.i{fill:#8b8b8b}.j{fill:#7d7d7d}.k{fill:#6e6e6e}.l{fill:#606060}.m{mix-blend-mode:multiply;fill:url(#g1)}.n{mix-blend-mode:multiply;fill:url(#g2)}.o{fill:url(#g3)}.p{mix-blend-mode:screen;fill:url(#g4)}.q{fill:url(#g5)}</style><g style="mix-blend-mode:multiply"><path class="a" d="m7.1 84.5q0 0 0 0h50.9q0 0 0.1 0c0.3 0 1.9-0.1 3.1-1.6q1-1.3 1-3.3v-71.5c0-3.5-2.5-4.9-4.1-4.9q-0.1-0.1-0.1-0.1h-0.1q0 0 0 0h-50.8q0 0 0 0.1c-1.7 0-4.2 1.4-4.2 4.9v2.6q0 0.1 0 0.1v66.6q0 0 0 0.1v2.1c0 3.5 2.5 4.9 4.2 4.9z"/><path class="b" d="m6.9 84.3q0 0 0 0h50.9q0 0 0 0c0.4 0 2-0.1 3.2-1.6q1-1.3 1-3.4v-71.4c0-3.6-2.5-4.9-4.2-5q0 0 0 0h-0.1q0 0-0.1 0h-50.7q0 0 0 0c-1.7 0.1-4.2 1.4-4.2 5v2.6q0 0.1 0 0.1v66.6q0 0 0 0.1v2c0 3.6 2.5 5 4.2 5z"/><path class="c" d="m6.6 84.1q0.1 0 0.1 0h50.9q0 0 0 0c0.3 0 2-0.1 3.2-1.6q1-1.4 1-3.4v-71.4c0-3.6-2.5-4.9-4.2-5q0 0 0 0h-0.1q-0.1 0-0.1 0h-50.7q0 0-0.1 0c-1.6 0.1-4.1 1.4-4.1 5v2.6q0 0.1 0 0.1v66.6q0 0 0 0v2.1c0 3.6 2.5 5 4.1 5z"/><path class="d" d="m6.4 83.9q0.1 0 0.1 0h50.9q0 0 0 0c0.3 0 2-0.1 3.2-1.7q1-1.3 1-3.3v-71.4c0-3.6-2.5-5-4.2-5q0 0 0 0h-0.2q0 0 0 0h-50.7q0 0-0.1 0c-1.7 0-4.2 1.4-4.2 5v2.6q0 0 0 0.1v66.5q0 0.1 0 0.1v2.1c0 3.6 2.5 4.9 4.2 5z"/><path class="e" d="m6.2 83.7q0 0 0.1 0h50.8q0.1 0 0.1 0c0.3 0 2-0.2 3.1-1.7q1.1-1.3 1.1-3.3v-71.4c0-3.6-2.5-5-4.2-5q0 0-0.1 0h-0.1q0 0 0 0h-50.7q-0.1 0-0.1 0c-1.7 0-4.2 1.4-4.2 5v2.6q0 0 0 0.1v66.5q0 0.1 0 0.1v2.1c0 3.6 2.5 4.9 4.2 5z"/><path class="f" d="m6 83.5q0 0 0 0h50.9q0 0 0.1 0c0.3-0.1 1.9-0.2 3.1-1.7q1.1-1.3 1.1-3.3v-71.5c0-3.5-2.5-4.9-4.2-4.9q-0.1 0-0.1 0h-0.1q0 0 0 0h-50.8q0 0 0 0c-1.7 0-4.2 1.4-4.2 4.9v2.7q0 0 0 0v66.6q0 0 0 0.1v2.1c0 3.5 2.5 4.9 4.2 5z"/><path class="g" d="m5.8 83.2q0 0 0 0h50.9q0 0 0.1 0c0.3 0 1.9-0.1 3.1-1.6q1-1.3 1-3.3v-71.5c0-3.5-2.5-4.9-4.1-5q-0.1 0-0.1 0h-0.1q0 0 0 0h-50.8q0 0 0 0c-1.7 0.1-4.2 1.5-4.2 5v2.6q0 0.1 0 0.1v66.6q0 0 0 0.1v2.1c0 3.5 2.5 4.9 4.2 4.9z"/><path class="h" d="m5.6 83q0 0 0 0h50.9q0 0 0 0c0.4 0 2-0.1 3.2-1.6q1-1.4 1-3.4v-71.4c0-3.6-2.5-4.9-4.2-5q0 0 0 0h-0.1q0 0-0.1 0h-50.7q0 0 0 0c-1.7 0.1-4.2 1.4-4.2 5v2.6q0 0.1 0 0.1v66.6q0 0 0 0.1v2c0 3.6 2.5 5 4.2 5z"/><path class="i" d="m5.3 82.8q0.1 0 0.1 0h50.9q0 0 0 0c0.3 0 2-0.1 3.2-1.7q1-1.3 1-3.3v-71.4c0-3.6-2.5-5-4.2-5q0 0 0 0h-0.2q0 0 0 0h-50.7q0 0-0.1 0c-1.6 0.1-4.1 1.4-4.1 5v2.6q0 0 0 0.1v66.5q0 0.1 0 0.1v2.1c0 3.6 2.5 5 4.1 5z"/><path class="j" d="m5.1 82.6q0 0 0.1 0h50.8q0.1 0 0.1 0c0.3 0 2-0.1 3.2-1.7q1-1.3 1-3.3v-71.4c0-3.6-2.5-5-4.2-5q0 0-0.1 0h-0.1q0 0 0 0h-50.7q-0.1 0-0.1 0c-1.7 0-4.2 1.4-4.2 5v2.6q0 0 0 0.1v66.5q0 0.1 0 0.1v2.1c0 3.6 2.5 4.9 4.2 5z"/><path class="k" d="m4.9 82.4q0 0 0.1 0h50.8q0.1 0 0.1 0c0.3 0 2-0.2 3.1-1.7q1.1-1.3 1.1-3.3v-71.4c0-3.6-2.5-5-4.2-5q0 0-0.1 0h-0.1q0 0 0 0h-50.7q-0.1 0-0.1 0c-1.7 0-4.2 1.4-4.2 5v2.6q0 0 0 0v66.6q0 0.1 0 0.1v2.1c0 3.6 2.5 4.9 4.2 5z"/><path class="l" d="m4.7 82.1q0 0 0 0h50.9q0 0 0.1 0c0.3 0 1.9-0.1 3.1-1.6q1-1.3 1-3.3v-71.5c0-3.5-2.5-4.9-4.1-5q-0.1 0-0.1 0h-0.1q0 0 0 0h-50.8q0 0 0 0c-1.7 0.1-4.2 1.5-4.2 5v2.6q0 0.1 0 0.1v66.6q0 0 0 0.1v2.1c0 3.5 2.5 4.9 4.2 4.9z"/></g><path class="a" d="m4.7 82.1q0 0 0 0h50.9q0 0 0.1 0c0.3 0 1.9-0.1 3.1-1.6q1-1.3 1-3.3v-71.5c0-3.5-2.5-4.9-4.1-5q-0.1 0-0.1 0h-0.1q0 0 0 0h-50.8q0 0 0 0c-1.7 0.1-4.2 1.5-4.2 5v2.6q0 0.1 0 0.1v66.6q0 0 0 0.1v2.1c0 3.5 2.5 4.9 4.2 4.9z"/><path class="a" d="m55.6 2.9h-24.4-2.1-24.4c0 0-2.1 0-2.1 2.8v19.3 32.9 19.3c0 2.8 2.1 2.8 2.1 2.8h24.4 2.1 24.4c0 0 2.1 0 2.1-2.8v-19.3-32.9-19.3c0-2.8-2.1-2.8-2.1-2.8z"/><path class="m" d="m35.1 44.5q-16.2 0-32.5 0v32.7c0 2.8 2.1 2.8 2.1 2.8h50.9c0 0 2.1 0 2.1-2.8v-32.7q-11.3 0-22.6 0z"/><path class="n" d="m2.6 41.4q7 0 13.9 0 20.1 0 40.1 0 0.6 0 1.1 0v-35.7c0-2.8-2.1-2.8-2.1-2.8h-50.9c0 0-2.1 0-2.1 2.8v19.3z"/><path class="o" d="m57.6 5.7v19.3 32.8 19.3c0 2.8-2.1 2.8-2.1 2.8h-24.4-2.1-24.4c0 0-0.5 0-1-0.3 0.6 0.4 1.1 0.4 1.1 0.4h24.4 2.1 24.4c0 0 2.1 0 2.1-2.8v-19.3-32.9-19.3c0-2.8-2.1-2.8-2.1-2.8h-0.1c0 0 2.1 0 2.1 2.8z"/><path class="p" d="m2.7 77.2v-19.3-32.8-19.3c0-2.8 2.2-2.8 2.2-2.8h24.4 2.1 24.4c0 0 0.4 0 0.9 0.3-0.5-0.4-1.1-0.4-1.1-0.4h-24.4-2.1-24.4c0 0-2.1 0-2.1 2.8v19.3 32.9 19.3c0 2.8 2.1 2.8 2.1 2.8h0.2c0 0-2.2 0-2.2-2.8z"/><path class="q" d="m2.6 8.4v66.6q0.1-0.2 0.1-0.4v-16.8-48.2q0-0.6-0.1-1.2z"/><path  d="m8.1 18.2c-0.1 1.4-0.9 2.4-0.9 2.4h0.9 0.9c0 0-0.8-1-0.9-2.4z"/><path  d="m9.5 16.6q-0.3 0-0.6 0.1 0 0 0 0c0.3-0.3 0.6-0.7 0.6-1.1 0-0.8-0.6-1.4-1.4-1.4-0.7 0-1.3 0.6-1.3 1.4 0 0.5 0.2 0.9 0.6 1.1q-0.3-0.1-0.6-0.1c-0.8 0-1.4 0.6-1.4 1.3 0 0.8 0.6 1.4 1.4 1.4 0.7 0 1.3-0.6 1.3-1.3q0 0 0 0c0 0.7 0.6 1.3 1.4 1.3 0.7 0 1.3-0.6 1.3-1.4 0-0.7-0.6-1.3-1.3-1.3z"/><path  d="m6.7 11.6q0 0.2 0 0.4 0.1 0.1 0.1 0.2 0.1 0.1 0.3 0.2 0.1 0 0.4 0 0.2 0.1 0.6 0.1v0.3h-3.6v-0.3q0.5 0 0.7-0.1 0.3 0 0.4-0.1 0.1-0.1 0.2-0.2 0-0.2 0-0.5v-4q0-0.2-0.1-0.3 0-0.1-0.2-0.1-0.1 0-0.4 0.2-0.3 0.2-0.7 0.4l-0.2-0.3 2.3-1.4h0.2q0 0.5 0 1.3z"/><path fill-rule="evenodd" d="m9.8 12.9q-1 0-1.5-0.8-0.5-0.8-0.5-2.5 0-0.9 0.1-1.6 0.2-0.6 0.5-1.1 0.3-0.4 0.7-0.6 0.4-0.2 0.8-0.2 1.1 0 1.6 0.8 0.5 0.9 0.5 2.5 0 1.7-0.5 2.6-0.6 0.9-1.7 0.9zm-1.1-3.5q0 1.6 0.3 2.4 0.3 0.7 0.9 0.7 0.6 0 0.9-0.7 0.3-0.7 0.3-2.2 0-1.1-0.2-1.8-0.1-0.7-0.4-1-0.2-0.3-0.6-0.3-0.3 0-0.6 0.2-0.2 0.2-0.3 0.6-0.2 0.4-0.2 0.9-0.1 0.5-0.1 1.2z"/><path  d="m52.4 64.5c0.1-1.4 0.9-2.4 0.9-2.4h-0.9-0.9c0 0 0.8 1 0.9 2.4z"/><path  d="m51 66.1q0.3 0 0.6-0.1 0 0 0 0c-0.4 0.3-0.6 0.7-0.6 1.1 0 0.7 0.6 1.3 1.4 1.3 0.7 0 1.3-0.6 1.3-1.3 0-0.5-0.2-0.9-0.6-1.1q0.3 0.1 0.6 0.1c0.8 0 1.4-0.6 1.4-1.3 0-0.8-0.6-1.4-1.4-1.4-0.7 0-1.3 0.6-1.3 1.3q0 0 0 0c0-0.7-0.6-1.3-1.4-1.3-0.7 0-1.3 0.6-1.3 1.4 0 0.7 0.6 1.3 1.3 1.3z"/><path  d="m53.8 71.1q0-0.3 0-0.4-0.1-0.1-0.1-0.2-0.1-0.1-0.3-0.2-0.1 0-0.4-0.1-0.2 0-0.6 0v-0.3h3.6v0.3q-0.5 0-0.7 0.1-0.3 0-0.4 0.1-0.1 0.1-0.2 0.2 0 0.2 0 0.5v4q0 0.2 0 0.3 0.1 0.1 0.2 0.1 0.2 0 0.5-0.2 0.3-0.2 0.7-0.4l0.2 0.3-2.3 1.4h-0.2q0-0.5 0-1.3z"/><path fill-rule="evenodd" d="m50.6 69.8q1.1 0 1.6 0.8 0.5 0.8 0.5 2.5 0 0.9-0.1 1.6-0.2 0.6-0.5 1.1-0.3 0.4-0.7 0.6-0.4 0.2-0.8 0.2-1.1 0-1.6-0.8-0.5-0.9-0.5-2.5 0-1.8 0.5-2.6 0.6-0.9 1.6-0.9zm1.2 3.5q0-1.6-0.3-2.4-0.3-0.7-0.9-0.7-0.6 0-0.9 0.7-0.3 0.7-0.3 2.2 0 1.1 0.2 1.8 0.1 0.7 0.4 1 0.2 0.3 0.6 0.3 0.3 0 0.6-0.2 0.2-0.2 0.3-0.6 0.2-0.4 0.2-0.9 0.1-0.6 0.1-1.2z"/><path  d="m30.2 55.4c-0.3-2.9-1.9-4.9-1.9-4.9h1.9 1.8c0 0-1.6 2-1.8 4.9z"/><path  d="m35.5 55.9c0-1.5-1.2-2.7-2.7-2.7-1.4 0-2.6 1.2-2.6 2.6q0 0 0 0c-0.1-1.4-1.3-2.6-2.7-2.6-1.5 0-2.7 1.2-2.7 2.7 0 1.5 1.2 2.7 2.7 2.7q0.7 0 1.2-0.3c-0.7 0.5-1.2 1.3-1.2 2.2 0 1.5 1.2 2.7 2.7 2.7 1.4 0 2.6-1.2 2.6-2.7 0-0.8-0.4-1.6-1-2.1q0 0 0 0 0.5 0.2 1 0.2c1.5 0 2.7-1.2 2.7-2.7z"/><path  d="m30.2 27.2c-0.3 2.8-1.9 4.8-1.9 4.8h1.9 1.8c0 0-1.6-2-1.8-4.8z"/><path  d="m32.8 24q-0.5 0-1 0.2 0 0 0 0c0.6-0.5 1-1.3 1-2.2 0-1.4-1.2-2.6-2.6-2.6-1.5 0-2.7 1.2-2.7 2.6 0 1 0.5 1.8 1.2 2.3q-0.5-0.3-1.2-0.3c-1.5 0-2.7 1.2-2.7 2.7 0 1.4 1.2 2.6 2.7 2.6 1.4 0 2.6-1.1 2.7-2.5q0 0 0 0c0 1.4 1.2 2.5 2.6 2.5 1.5 0 2.7-1.2 2.7-2.6 0-1.5-1.2-2.7-2.7-2.7z"/><path  d="m40.4 19.8c-0.3 2.8-1.9 4.8-1.9 4.8h1.9 1.8c0 0-1.6-2-1.8-4.8z"/><path  d="m43 16.6q-0.5 0-1 0.2 0 0 0 0c0.6-0.5 1-1.3 1-2.2 0-1.4-1.2-2.6-2.6-2.6-1.5 0-2.7 1.2-2.7 2.6 0 1 0.5 1.8 1.2 2.3q-0.6-0.3-1.2-0.3c-1.5 0-2.7 1.2-2.7 2.6 0 1.5 1.2 2.7 2.7 2.7 1.4 0 2.6-1.1 2.7-2.5q0 0 0 0c0 1.4 1.2 2.5 2.6 2.5 1.5 0 2.7-1.2 2.7-2.7 0-1.4-1.2-2.6-2.7-2.6z"/><path  d="m40.4 63.1c0.2-2.8 1.8-4.8 1.8-4.8h-1.8-1.9c0 0 1.6 2 1.9 4.8z"/><path  d="m37.7 66.3q0.5 0 1-0.2 0 0 0 0c-0.6 0.5-1 1.3-1 2.2 0 1.4 1.2 2.6 2.7 2.6 1.4 0 2.6-1.2 2.6-2.6 0-1-0.4-1.8-1.2-2.3q0.6 0.3 1.2 0.3c1.5 0 2.7-1.2 2.7-2.6 0-1.5-1.2-2.7-2.7-2.7-1.4 0-2.6 1.1-2.6 2.5q0 0 0 0c-0.1-1.4-1.3-2.5-2.7-2.5-1.5 0-2.7 1.2-2.7 2.7 0 1.4 1.2 2.6 2.7 2.6z"/><path  d="m40.4 35.2c-0.3 2.9-1.9 4.9-1.9 4.9h1.9 1.8c0 0-1.6-2-1.8-4.9z"/><path  d="m43 32q-0.5 0-1 0.2 0 0 0 0c0.6-0.5 1-1.3 1-2.1 0-1.5-1.2-2.7-2.6-2.7-1.5 0-2.7 1.2-2.7 2.7 0 0.9 0.5 1.7 1.2 2.2q-0.6-0.3-1.2-0.3c-1.5 0-2.7 1.2-2.7 2.7 0 1.5 1.2 2.6 2.7 2.6 1.4 0 2.6-1.1 2.7-2.5q0 0 0 0c0 1.4 1.2 2.5 2.6 2.5 1.5 0 2.7-1.1 2.7-2.6 0-1.5-1.2-2.7-2.7-2.7z"/><path  d="m40.4 47.7c-0.3-2.9-1.9-4.9-1.9-4.9h1.9 1.8c0 0-1.6 2-1.8 4.9z"/><path  d="m45.7 48.2c0-1.5-1.2-2.7-2.7-2.7-1.4 0-2.6 1.2-2.6 2.6q0 0 0 0c-0.1-1.4-1.3-2.6-2.7-2.6-1.5 0-2.7 1.2-2.7 2.7 0 1.5 1.2 2.7 2.7 2.7q0.6 0 1.2-0.3c-0.7 0.5-1.2 1.3-1.2 2.2 0 1.5 1.2 2.7 2.7 2.7 1.4 0 2.6-1.2 2.6-2.7 0-0.8-0.4-1.6-1-2.1q0 0 0 0 0.5 0.2 1 0.2c1.5 0 2.7-1.2 2.7-2.7z"/><path  d="m20 19.8c-0.3 2.8-1.9 4.8-1.9 4.8h1.9 1.8c0 0-1.6-2-1.8-4.8z"/><path  d="m22.7 16.6q-0.6 0-1.1 0.2 0 0 0 0c0.6-0.5 1.1-1.3 1.1-2.2 0-1.4-1.2-2.6-2.7-2.6-1.5 0-2.7 1.2-2.7 2.6 0 1 0.5 1.8 1.2 2.3q-0.5-0.3-1.2-0.3c-1.5 0-2.7 1.2-2.7 2.6 0 1.5 1.2 2.7 2.7 2.7 1.5 0 2.6-1.1 2.7-2.5q0 0 0 0c0.1 1.4 1.2 2.5 2.7 2.5 1.4 0 2.6-1.2 2.6-2.7 0-1.4-1.2-2.6-2.6-2.6z"/><path  d="m20 35.2c-0.3 2.9-1.9 4.9-1.9 4.9h1.9 1.8c0 0-1.6-2-1.8-4.9z"/><path  d="m22.7 32q-0.6 0-1.1 0.2 0 0 0 0c0.6-0.5 1.1-1.3 1.1-2.1 0-1.5-1.2-2.7-2.7-2.7-1.5 0-2.7 1.2-2.7 2.7 0 0.9 0.5 1.7 1.2 2.2q-0.5-0.3-1.2-0.3c-1.5 0-2.7 1.2-2.7 2.7 0 1.5 1.2 2.6 2.7 2.6 1.5 0 2.6-1.1 2.7-2.5q0 0 0 0c0.1 1.4 1.2 2.5 2.7 2.5 1.4 0 2.6-1.1 2.6-2.6 0-1.5-1.2-2.7-2.6-2.7z"/><path  d="m20 47.7c-0.3-2.9-1.9-4.9-1.9-4.9h1.9 1.8c0 0-1.6 2-1.8 4.9z"/><path  d="m25.3 48.2c0-1.5-1.2-2.7-2.6-2.7-1.5 0-2.6 1.2-2.7 2.6q0 0 0 0c-0.1-1.4-1.2-2.6-2.7-2.6-1.5 0-2.7 1.2-2.7 2.7 0 1.5 1.2 2.7 2.7 2.7q0.7 0 1.2-0.3c-0.7 0.5-1.2 1.3-1.2 2.2 0 1.5 1.2 2.7 2.7 2.7 1.5 0 2.7-1.2 2.7-2.7 0-0.8-0.5-1.6-1.1-2.1q0 0 0 0 0.5 0.2 1.1 0.2c1.4 0 2.6-1.2 2.6-2.7z"/><path  d="m20 63.1c0.2-2.8 1.8-4.8 1.8-4.8h-1.8-1.9c0 0 1.6 2 1.9 4.8z"/><path  d="m17.3 66.3q0.6 0 1-0.2 0.1 0 0.1 0c-0.7 0.5-1.1 1.3-1.1 2.2 0 1.4 1.2 2.6 2.7 2.6 1.5 0 2.7-1.2 2.7-2.6 0-1-0.5-1.8-1.2-2.3q0.5 0.3 1.2 0.3c1.4 0 2.6-1.2 2.6-2.6 0-1.5-1.2-2.7-2.6-2.7-1.5 0-2.6 1.1-2.7 2.5q0 0 0 0c-0.1-1.4-1.2-2.5-2.7-2.5-1.5 0-2.7 1.2-2.7 2.7 0 1.4 1.2 2.6 2.7 2.6z"/></svg>