<svg version="1.2" xmlns="http://www.w3.org/2000/svg" viewBox="0 0 63 84" width="63" height="84"><defs><linearGradient id="P" gradientUnits="userSpaceOnUse"/><radialGradient id="g1" cx="0" cy="0" r="1" href="#P" gradientTransform="matrix(111.62,0,0,111.62,29.795,-24.187)"><stop offset=".62" stop-color="#fff"/><stop offset="1" stop-color="#ababab"/></radialGradient><radialGradient id="g2" cx="0" cy="0" r="1" href="#P" gradientTransform="matrix(79.983,0,0,79.983,30.899,73.36)"><stop offset=".62" stop-color="#fff"/><stop offset="1" stop-color="#ababab"/></radialGradient><radialGradient id="g3" cx="0" cy="0" r="1" href="#P" gradientTransform="matrix(-23.526,0,0,-23.526,3.134,40.985)"><stop offset=".1" stop-color="#fff"/><stop offset="1" stop-color="#ababab"/></radialGradient><radialGradient id="g4" cx="0" cy="0" r="1" href="#P" gradientTransform="matrix(75.641,0,0,75.641,18.14,24.593)"><stop stop-color="#fff"/><stop offset="1" stop-color="#fff"/></radialGradient><radialGradient id="g5" cx="0" cy="0" r="1" href="#P" gradientTransform="matrix(88.809,0,0,88.809,.721,2.093)"><stop offset=".1" stop-color="#fff"/><stop offset="1" stop-color="#ababab"/></radialGradient></defs><style>.a{fill:#fff}.b{fill:#f1f1f1}.c{fill:#e2e2e2}.d{fill:#d4d4d4}.e{fill:#c5c5c5}.f{fill:#b7b7b7}.g{fill:#a8a8a8}.h{fill:#9a9a9a}.i{fill:#8b8b8b}.j{fill:#7d7d7d}.k{fill:#6e6e6e}.l{fill:#606060}.m{mix-blend-mode:multiply;fill:url(#g1)}.n{mix-blend-mode:multiply;fill:url(#g2)}.o{fill:url(#g3)}.p{mix-blend-mode:screen;fill:url(#g4)}.q{fill:url(#g5)}</style><g style="mix-blend-mode:multiply"><path class="a" d="m3.4 78.8c0 3.6 2.5 5 4.2 5q0 0 0 0h50.9q0 0 0 0c0.4 0 2-0.1 3.2-1.6q1-1.4 1-3.4v-71.4c0-3.6-2.5-4.9-4.2-5q0 0 0 0h-0.1q0 0-0.1 0h-50.7q0 0 0 0c-1.7 0.1-4.2 1.4-4.2 5v2.6q0 0.1 0 0.1v66.6q0 0 0 0z"/><path class="b" d="m3.2 78.6c0 3.6 2.5 5 4.1 5q0.1 0 0.1 0h50.9q0 0 0 0c0.3 0 2-0.1 3.2-1.6q1-1.4 1-3.4v-71.4c0-3.6-2.5-4.9-4.2-5q0 0 0 0h-0.1q-0.1 0-0.1 0h-50.7q0 0-0.1 0c-1.6 0.1-4.1 1.4-4.1 5v2.6q0 0 0 0.1v66.5q0 0.1 0 0.1z"/><path class="c" d="m2.9 78.4c0 3.6 2.5 4.9 4.2 5q0 0 0.1 0h50.8q0.1 0 0.1 0c0.3 0 2-0.1 3.2-1.7q1-1.3 1-3.3v-71.4c0-3.6-2.5-5-4.2-5q0 0-0.1 0h-0.1q0 0 0 0h-50.7q-0.1 0-0.1 0c-1.7 0-4.2 1.4-4.2 5v2.6q0 0 0 0.1v66.5q0 0.1 0 0.1z"/><path class="d" d="m2.7 78.2c0 3.6 2.5 4.9 4.2 5q0 0 0.1 0h50.8q0.1 0 0.1 0c0.3 0 2-0.2 3.1-1.7q1.1-1.3 1.1-3.3v-71.4c0-3.6-2.5-5-4.2-5q0 0-0.1 0h-0.1q0 0 0 0h-50.7q-0.1 0-0.1 0c-1.7 0-4.2 1.4-4.2 5v2.6q0 0 0 0.1v66.5q0 0.1 0 0.1z"/><path class="e" d="m2.5 78c0 3.5 2.5 4.9 4.2 5q0 0 0 0h50.9q0 0 0.1 0c0.3-0.1 1.9-0.2 3.1-1.7q1-1.3 1-3.3v-71.5c0-3.5-2.5-4.9-4.1-4.9q-0.1 0-0.1 0h-0.1q0 0 0 0h-50.8q0 0 0 0c-1.7 0-4.2 1.4-4.2 4.9v2.7q0 0 0 0v66.6q0 0 0 0.1z"/><path class="f" d="m2.3 77.7c0 3.6 2.5 5 4.2 5q0 0 0 0h50.9q0 0 0 0c0.4 0 2-0.1 3.2-1.6q1-1.3 1-3.4v-71.4c0-3.6-2.5-4.9-4.2-5q0 0 0 0h-0.1q0 0-0.1 0h-50.7q0 0 0 0c-1.7 0.1-4.2 1.4-4.2 5v2.6q0 0.1 0 0.1v66.6q0 0 0 0.1z"/><path class="g" d="m2.1 77.5c0 3.6 2.5 5 4.1 5q0.1 0 0.1 0h50.9q0 0 0 0c0.4 0 2-0.1 3.2-1.6q1-1.4 1-3.4v-71.4c0-3.6-2.5-4.9-4.2-5q0 0 0 0h-0.1q-0.1 0-0.1 0h-50.7q0 0-0.1 0c-1.6 0.1-4.1 1.4-4.1 5v2.6q0 0.1 0 0.1v66.6q0 0 0 0z"/><path class="h" d="m1.8 77.3c0 3.6 2.5 4.9 4.2 5q0.1 0 0.1 0h50.9q0 0 0 0c0.3 0 2-0.1 3.2-1.7q1-1.3 1-3.3v-71.4c0-3.6-2.5-5-4.2-5q0 0 0 0h-0.2q0 0 0 0h-50.7q0 0-0.1 0c-1.7 0-4.2 1.4-4.2 5v2.6q0 0 0 0.1v66.5q0 0.1 0 0.1z"/><path class="i" d="m1.6 77.1c0 3.6 2.5 4.9 4.2 5q0 0 0.1 0h50.8q0.1 0 0.1 0c0.3 0 2-0.2 3.2-1.7q1-1.3 1-3.3v-71.4c0-3.6-2.5-5-4.2-5q0 0-0.1 0h-0.1q0 0 0 0h-50.7q-0.1 0-0.1 0c-1.7 0-4.2 1.4-4.2 5v2.6q0 0 0 0.1v66.5q0 0.1 0 0.1z"/><path class="j" d="m1.4 76.9c0 3.5 2.5 4.9 4.2 5q0 0 0.1 0h50.8q0 0 0.1 0c0.3 0 2-0.2 3.1-1.7q1.1-1.3 1.1-3.3v-71.5c0-3.5-2.5-4.9-4.2-4.9q-0.1 0-0.1 0h-0.1q0 0 0 0h-50.7q-0.1 0-0.1 0c-1.7 0-4.2 1.4-4.2 4.9v2.7q0 0 0 0v66.6q0 0 0 0.1z"/><path class="k" d="m1.2 76.7c0 3.5 2.5 4.9 4.2 4.9q0 0 0 0h50.9q0 0 0.1 0c0.3 0 1.9-0.1 3.1-1.6q1-1.3 1-3.3v-71.5c0-3.5-2.5-4.9-4.1-5q-0.1 0-0.1 0h-0.1q0 0 0 0h-50.8q0 0 0 0c-1.7 0.1-4.2 1.5-4.2 5v2.6q0 0.1 0 0.1v66.6q0 0 0 0.1z"/><path class="l" d="m1 76.4c0 3.6 2.5 5 4.2 5q0 0 0 0h50.9q0 0 0 0c0.4 0 2-0.1 3.2-1.6q1-1.4 1-3.4v-71.4c0-3.6-2.5-4.9-4.2-5q0 0 0 0h-0.1q0 0-0.1 0h-50.7q0 0 0 0c-1.7 0.1-4.2 1.4-4.2 5v2.6q0 0.1 0 0.1v66.6q0 0 0 0z"/></g><path class="a" d="m1 76.4c0 3.6 2.5 5 4.2 5q0 0 0 0h50.9q0 0 0 0c0.4 0 2-0.1 3.2-1.6q1-1.4 1-3.4v-71.4c0-3.6-2.5-4.9-4.2-5q0 0 0 0h-0.1q0 0-0.1 0h-50.7q0 0 0 0c-1.7 0.1-4.2 1.4-4.2 5v2.6q0 0.1 0 0.1v66.6q0 0 0 0z"/><path class="a" d="m56.1 2.1h-24.4-2.1-24.4c0 0-2.1 0.1-2.1 2.9v19.3 32.9 19.2c0 2.9 2.1 2.9 2.1 2.9h24.4 2.1 24.4c0 0 2.1 0 2.1-2.9v-19.2-32.9-19.3c0-2.8-2.1-2.9-2.1-2.9z"/><path class="m" d="m35.6 43.8q-16.3 0-32.5 0v32.6c0 2.9 2.1 2.9 2.1 2.9h50.9c0 0 2.1 0 2.1-2.9v-32.6q-11.3 0-22.6 0z"/><path class="n" d="m3.1 40.6q6.9 0 13.9 0 20.1 0.1 40.1 0.1 0.6 0 1.1 0v-35.7c0-2.8-2.1-2.9-2.1-2.9h-50.9c0 0-2.1 0.1-2.1 2.9v19.3z"/><path class="o" d="m3.1 7.7v66.6q0-0.2 0.1-0.4v-16.8-48.2q-0.1-0.6-0.1-1.2z"/><path class="p" d="m3.2 76.4v-19.2-32.9-19.2c0-2.8 2.1-2.9 2.1-2.9h24.4 2.1 24.4c0 0 0.5 0.1 1 0.3-0.5-0.4-1.1-0.4-1.1-0.4h-24.4-2.1-24.4c0 0-2.1 0.1-2.1 2.9v19.3 32.9 19.2c0 2.9 2.1 2.9 2.1 2.9h0.1c0 0-2.1 0-2.1-2.9z"/><path class="q" d="m58.1 5v19.2 32.9 19.2c0 2.8-2.1 2.9-2.1 2.9h-24.5-2-24.5c0 0-0.4 0-0.9-0.3 0.5 0.4 1.1 0.4 1.1 0.4h24.4 2.1 24.4c0 0 2.1 0 2.1-2.9v-19.2-32.9-19.3c0-2.8-2.1-2.9-2.1-2.9h-0.1c0 0 2.1 0.1 2.1 2.9z"/><path  d="m7.3 17.5c-0.1 1.4-1 2.4-1 2.4h1 0.9c0 0-0.8-1-0.9-2.4z"/><path  d="m8.6 15.8q-0.3 0-0.5 0.2 0-0.1 0-0.1c0.3-0.2 0.5-0.6 0.5-1 0-0.8-0.6-1.4-1.3-1.4-0.8 0-1.4 0.6-1.4 1.4 0 0.4 0.3 0.8 0.6 1.1q-0.2-0.2-0.6-0.2c-0.7 0-1.3 0.6-1.3 1.4 0 0.7 0.6 1.3 1.3 1.3 0.7 0 1.3-0.5 1.4-1.2q0 0 0 0c0 0.7 0.6 1.2 1.3 1.2 0.8 0 1.4-0.6 1.4-1.3 0-0.8-0.6-1.4-1.4-1.4z"/><path  d="m5.3 6.8v-0.9q0.6-0.3 1.1-0.4 0.5-0.1 0.9-0.1 0.6 0 1 0.2 0.4 0.1 0.6 0.4 0.3 0.4 0.3 0.8 0 0.4-0.2 0.7-0.2 0.3-0.5 0.6-0.3 0.2-0.8 0.4v0.1q0.3 0 0.6 0.2 0.3 0.1 0.5 0.3 0.2 0.2 0.4 0.5 0.1 0.3 0.1 0.6 0 0.6-0.3 1-0.2 0.5-0.7 0.7-0.5 0.3-1.2 0.3-0.5 0-1-0.1-0.4-0.1-0.8-0.3v-1h0.5q0.2 0.5 0.5 0.7 0.3 0.3 0.8 0.3 0.6 0 0.9-0.4 0.3-0.3 0.3-1 0-0.7-0.4-1.1-0.4-0.4-1.2-0.4h-0.5v-0.4q0.7 0 1.1-0.2 0.5-0.3 0.7-0.6 0.2-0.3 0.2-0.7 0-0.6-0.3-0.9-0.3-0.3-0.8-0.3-0.5 0-0.8 0.3-0.2 0.2-0.4 0.7z"/><path  d="m53.9 63.8c0.1-1.5 0.9-2.5 0.9-2.5h-0.9-1c0 0 0.8 1 1 2.5z"/><path  d="m52.5 65.4q0.3 0 0.5-0.1 0 0 0 0c-0.3 0.3-0.5 0.6-0.5 1.1 0 0.7 0.6 1.3 1.4 1.3 0.7 0 1.3-0.6 1.3-1.3 0-0.5-0.2-0.9-0.6-1.1q0.3 0.1 0.6 0.1c0.7 0 1.3-0.6 1.3-1.3 0-0.8-0.6-1.4-1.3-1.4-0.7 0-1.3 0.6-1.3 1.3q0 0 0 0c-0.1-0.7-0.7-1.3-1.4-1.3-0.7 0-1.3 0.6-1.3 1.4 0 0.7 0.6 1.3 1.3 1.3z"/><path  d="m55.8 74.4v0.9q-0.6 0.3-1.1 0.4-0.5 0.2-0.9 0.2-0.6 0-1-0.2-0.4-0.2-0.6-0.5-0.2-0.3-0.2-0.8 0-0.4 0.1-0.7 0.2-0.3 0.5-0.5 0.3-0.3 0.8-0.5-0.3-0.1-0.6-0.2-0.3-0.2-0.5-0.4-0.2-0.2-0.3-0.4-0.2-0.3-0.2-0.7 0-0.6 0.3-1 0.2-0.4 0.7-0.7 0.5-0.2 1.3-0.2 0.4 0 0.9 0 0.5 0.1 0.9 0.3v1h-0.6q-0.2-0.5-0.5-0.7-0.3-0.2-0.7-0.2-0.7 0-1 0.3-0.3 0.4-0.3 1 0 0.7 0.4 1.1 0.4 0.4 1.3 0.4h0.4v0.4q-0.6 0.1-1.1 0.3-0.5 0.2-0.7 0.5-0.2 0.4-0.2 0.8 0 0.5 0.3 0.8 0.3 0.3 0.8 0.3 0.5 0 0.8-0.2 0.3-0.3 0.4-0.8z"/><path  d="m30.6 19c-0.2 2.9-1.8 4.8-1.8 4.8h1.8 1.9c0 0-1.6-1.9-1.9-4.8z"/><path  d="m33.3 15.8q-0.5 0-1 0.2 0 0 0 0c0.6-0.5 1-1.3 1-2.2 0-1.4-1.2-2.6-2.7-2.6-1.4 0-2.6 1.2-2.6 2.6 0 1 0.4 1.8 1.2 2.3q-0.6-0.3-1.2-0.3c-1.5 0-2.7 1.2-2.7 2.7 0 1.4 1.2 2.6 2.7 2.6 1.4 0 2.6-1.1 2.6-2.5q0 0 0 0c0.1 1.4 1.3 2.5 2.7 2.5 1.5 0 2.7-1.2 2.7-2.6 0-1.5-1.2-2.7-2.7-2.7z"/><path  d="m30.6 42.2c-0.2 2.8-1.8 4.8-1.8 4.8h1.8 1.9c0 0-1.6-2-1.9-4.8z"/><path  d="m33.3 38.9q-0.5 0-1 0.2 0 0 0 0c0.6-0.5 1-1.2 1-2.1 0-1.5-1.2-2.7-2.7-2.7-1.4 0-2.6 1.2-2.6 2.7 0 0.9 0.4 1.7 1.2 2.2q-0.6-0.3-1.2-0.3c-1.5 0-2.7 1.2-2.7 2.7 0 1.5 1.2 2.7 2.7 2.7 1.4 0 2.6-1.2 2.6-2.6q0 0 0 0c0.1 1.4 1.3 2.6 2.7 2.6 1.5 0 2.7-1.2 2.7-2.7 0-1.5-1.2-2.7-2.7-2.7z"/><path  d="m30.6 62.3c0.3-2.8 1.9-4.8 1.9-4.8h-1.9-1.8c0 0 1.6 2 1.8 4.8z"/><path  d="m28 65.5q0.5 0 1-0.2 0 0 0 0.1c-0.6 0.4-1 1.2-1 2.1 0 1.5 1.2 2.7 2.6 2.7 1.5 0 2.7-1.2 2.7-2.7 0-0.9-0.5-1.8-1.2-2.2q0.6 0.2 1.2 0.2c1.5 0 2.7-1.2 2.7-2.6 0-1.5-1.2-2.7-2.7-2.7-1.4 0-2.6 1.1-2.7 2.5q0 0 0 0c0-1.4-1.2-2.5-2.6-2.5-1.5 0-2.7 1.2-2.7 2.7 0 1.4 1.2 2.6 2.7 2.6z"/></svg>