<svg version="1.2" xmlns="http://www.w3.org/2000/svg" viewBox="0 0 63 84" width="63" height="84"><defs><linearGradient id="P" gradientUnits="userSpaceOnUse"/><radialGradient id="g1" cx="0" cy="0" r="1" href="#P" gradientTransform="matrix(111.62,0,0,111.62,29.782,-24.187)"><stop offset=".62" stop-color="#fff"/><stop offset="1" stop-color="#ababab"/></radialGradient><radialGradient id="g2" cx="0" cy="0" r="1" href="#P" gradientTransform="matrix(79.983,0,0,79.983,30.886,73.361)"><stop offset=".62" stop-color="#fff"/><stop offset="1" stop-color="#ababab"/></radialGradient><radialGradient id="g3" cx="0" cy="0" r="1" href="#P" gradientTransform="matrix(75.641,0,0,75.641,18.127,24.593)"><stop stop-color="#fff"/><stop offset="1" stop-color="#fff"/></radialGradient><radialGradient id="g4" cx="0" cy="0" r="1" href="#P" gradientTransform="matrix(-23.532,0,0,-23.532,3.121,40.985)"><stop offset=".1" stop-color="#fff"/><stop offset="1" stop-color="#ababab"/></radialGradient><radialGradient id="g5" cx="0" cy="0" r="1" href="#P" gradientTransform="matrix(88.809,0,0,88.809,.68,2.01)"><stop offset=".1" stop-color="#fff"/><stop offset="1" stop-color="#ababab"/></radialGradient></defs><style>.a{fill:#fff}.b{fill:#f1f1f1}.c{fill:#e2e2e2}.d{fill:#d4d4d4}.e{fill:#c5c5c5}.f{fill:#b7b7b7}.g{fill:#a8a8a8}.h{fill:#9a9a9a}.i{fill:#8b8b8b}.j{fill:#7d7d7d}.k{fill:#6e6e6e}.l{fill:#606060}.m{mix-blend-mode:multiply;fill:url(#g1)}.n{mix-blend-mode:multiply;fill:url(#g2)}.o{mix-blend-mode:screen;fill:url(#g3)}.p{fill:url(#g4)}.q{fill:url(#g5)}</style><g style="mix-blend-mode:multiply"><path class="a" d="m7.6 83.8h50.9q0 0 0 0c1.7 0 4.2-1.4 4.2-5v-71.4q0-1.1-0.3-2c-0.8-2.3-2.8-3-3.9-3.1q0 0-0.1 0h-0.1q-0.3 0-0.6 0.1h-50.1q0 0-0.1 0c-1.6 0.1-4.1 1.4-4.1 5v2.6q0 0.1 0 0.1v66.6q0 0 0 0.1v2c0 3.6 2.5 5 4.1 5q0.1 0 0.1 0z"/><path class="b" d="m7.4 83.6h50.9q0 0 0 0c1.7 0 4.2-1.4 4.2-5v-71.4q0-1.1-0.3-2c-0.8-2.4-2.8-3-3.9-3.1q0 0-0.1 0h-0.1q-0.3 0-0.6 0.1h-50.1q0 0-0.1 0c-1.7 0.1-4.2 1.4-4.2 5v2.6q0 0 0 0.1v66.5q0 0.1 0 0.1v2.1c0 3.6 2.5 5 4.2 5q0.1 0 0.1 0z"/><path class="c" d="m7.2 83.4h50.8q0.1 0 0.1 0c1.7-0.1 4.2-1.4 4.2-5v-71.4q0-1.1-0.3-2c-0.8-2.4-2.9-3.1-3.9-3.1q-0.1 0-0.1 0h-0.1q-0.3 0-0.6 0.1h-50.1q-0.1 0-0.1 0c-1.7 0-4.2 1.4-4.2 5v2.6q0 0 0 0.1v66.5q0 0.1 0 0.1v2.1c0 3.6 2.5 4.9 4.2 5q0 0 0.1 0z"/><path class="d" d="m6.9 83.2h50.9q0 0 0.1 0c1.7-0.1 4.2-1.4 4.2-5v-71.4q-0.1-1.1-0.4-2.1c-0.8-2.3-2.8-3-3.9-3q0 0 0 0h-0.1q-0.3 0-0.6 0.1h-50.2q0 0 0 0c-1.7 0-4.2 1.4-4.2 5v2.6q0 0 0 0.1v66.5q0 0.1 0 0.1v2.1c0 3.6 2.5 4.9 4.2 5q0 0 0 0z"/><path class="e" d="m6.7 83h50.9q0 0 0.1 0c1.6-0.1 4.1-1.5 4.1-5v-71.5q0-1.1-0.3-2c-0.8-2.3-2.8-3-3.9-3q0 0 0 0h-0.1q-0.4 0-0.6 0.1h-50.2q0 0 0 0c-1.7 0-4.2 1.4-4.2 4.9v2.6q0 0.1 0 0.1v66.6q0 0 0 0.1v2.1c0 3.5 2.5 4.9 4.2 5q0 0 0 0z"/><path class="f" d="m6.5 82.7h50.9q0 0 0 0c1.7 0 4.2-1.4 4.2-5v-71.4q0-1.1-0.3-2c-0.8-2.3-2.8-3-3.9-3q0-0.1 0-0.1h-0.2q-0.3 0.1-0.6 0.1h-50.1q0 0 0 0c-1.7 0.1-4.2 1.4-4.2 5v2.6q0 0.1 0 0.1v66.6q0 0 0 0.1v2c0 3.6 2.5 5 4.2 5q0 0 0 0z"/><path class="g" d="m6.3 82.5h50.9q0 0 0 0c1.7 0 4.2-1.4 4.2-5v-71.4q0-1.1-0.3-2c-0.8-2.4-2.8-3-3.9-3.1q0 0-0.1 0h-0.1q-0.3 0-0.6 0.1h-50.1q0 0-0.1 0c-1.6 0.1-4.1 1.4-4.1 5v2.6q0 0.1 0 0.1v66.6q0 0 0 0v2.1c0 3.6 2.5 5 4.1 5q0.1 0 0.1 0z"/><path class="h" d="m6.1 82.3h50.8q0.1 0 0.1 0c1.7-0.1 4.2-1.4 4.2-5v-71.4q0-1.1-0.3-2c-0.8-2.4-2.8-3.1-3.9-3.1q-0.1 0-0.1 0h-0.1q-0.3 0-0.6 0.1h-50.1q-0.1 0-0.1 0c-1.7 0-4.2 1.4-4.2 5v2.6q0 0 0 0.1v66.5q0 0.1 0 0.1v2.1c0 3.6 2.5 4.9 4.2 5q0 0 0.1 0z"/><path class="i" d="m5.9 82.1h50.8q0.1 0 0.1 0c1.7-0.1 4.2-1.4 4.2-5v-71.4q0-1.1-0.4-2c-0.7-2.4-2.8-3.1-3.8-3.1q-0.1 0-0.1 0h-0.1q-0.3 0-0.6 0.1h-50.1q-0.1 0-0.1 0c-1.7 0-4.2 1.4-4.2 5v2.6q0 0 0 0.1v66.5q0 0.1 0 0.1v2.1c0 3.6 2.5 4.9 4.2 5q0 0 0.1 0z"/><path class="j" d="m5.6 81.9h50.9q0 0 0.1 0c1.6-0.1 4.1-1.5 4.1-5v-71.5q0-1.1-0.3-2c-0.8-2.3-2.8-3-3.9-3q0 0 0 0h-0.1q-0.3 0-0.6 0.1h-50.2q0 0 0 0c-1.7 0-4.2 1.4-4.2 4.9v2.7q0 0 0 0v66.6q0 0 0 0.1v2.1c0 3.5 2.5 4.9 4.2 5q0 0 0 0z"/><path class="k" d="m5.4 81.6h50.9q0 0 0 0c1.7 0 4.2-1.4 4.2-4.9v-71.5q0-1.1-0.3-2c-0.8-2.3-2.8-3-3.9-3q0 0 0 0h-0.2q-0.3 0-0.5 0h-50.2q0 0 0 0c-1.7 0.1-4.2 1.5-4.2 5v2.6q0 0.1 0 0.1v66.6q0 0 0 0.1v2.1c0 3.5 2.5 4.9 4.2 4.9q0 0 0 0z"/><path class="l" d="m5.2 81.4h50.9q0 0 0 0c1.7 0 4.2-1.4 4.2-5v-71.4q0-1.1-0.3-2c-0.8-2.3-2.8-3-3.9-3.1q0 0-0.1 0h-0.1q-0.3 0-0.6 0.1h-50.1q0 0-0.1 0c-1.6 0.1-4.1 1.4-4.1 5v2.6q0 0.1 0 0.1v66.6q0 0 0 0.1v2c0 3.6 2.5 5 4.1 5q0.1 0 0.1 0z"/></g><path class="a" d="m5.2 81.4h50.9q0 0 0 0c1.7 0 4.2-1.4 4.2-5v-71.4q0-1.1-0.3-2c-0.8-2.3-2.8-3-3.9-3.1q0 0-0.1 0h-0.1q-0.3 0-0.6 0.1h-50.1q0 0-0.1 0c-1.6 0.1-4.1 1.4-4.1 5v2.6q0 0.1 0 0.1v66.6q0 0 0 0.1v2c0 3.6 2.5 5 4.1 5q0.1 0 0.1 0z"/><path class="a" d="m56.1 2.1h-24.4-2.1-24.4c0 0-2.1 0.1-2.1 2.9v19.3 32.9 19.2c0 2.9 2.1 2.9 2.1 2.9h24.4 2.1 24.4c0 0 2.1 0 2.1-2.9v-19.2-32.9-19.3c0-2.8-2.1-2.9-2.1-2.9z"/><path class="m" d="m35.6 43.8q-16.3 0-32.5 0v32.6c0 2.9 2.1 2.9 2.1 2.9h50.9c0 0 2.1 0 2.1-2.9v-32.6q-11.3 0-22.6 0z"/><path class="n" d="m3.1 40.6q6.9 0 13.9 0 20 0.1 40.1 0.1 0.6 0 1.1 0v-35.7c0-2.8-2.1-2.9-2.1-2.9h-50.9c0 0-2.1 0.1-2.1 2.9v19.3z"/><path class="o" d="m3.2 76.4v-19.2-32.9-19.2c0-2.8 2.1-2.9 2.1-2.9h24.4 2.1 24.4c0 0 0.5 0.1 1 0.3-0.6-0.4-1.1-0.4-1.1-0.4h-24.4-2.1-24.4c0 0-2.1 0.1-2.1 2.9v19.3 32.9 19.2c0 2.9 2.1 2.9 2.1 2.9h0.1c0 0-2.1 0-2.1-2.9z"/><path class="p" d="m3.1 7.7v66.6q0-0.2 0.1-0.4v-16.8-48.2q-0.1-0.6-0.1-1.2z"/><path class="q" d="m58.1 4.9v19.2 32.9 19.2c0 2.9-2.2 2.9-2.2 2.9h-24.4-2.1-24.4c0 0-0.5 0-0.9-0.3 0.5 0.4 1.1 0.4 1.1 0.4h24.4 2 24.4c0 0 2.2 0 2.2-2.8v-19.3-32.9-19.3c0-2.8-2.2-2.9-2.2-2.9h-0.1c0 0 2.2 0.1 2.2 2.9z"/><path  d="m7.1 17.4c-0.1 1.4-0.9 2.4-0.9 2.4h0.9 0.9c0 0-0.8-1-0.9-2.4z"/><path  d="m8.4 15.8q-0.2 0-0.5 0.1 0 0 0 0c0.3-0.3 0.5-0.7 0.5-1.1 0-0.8-0.6-1.4-1.3-1.4-0.8 0-1.4 0.6-1.4 1.4 0 0.5 0.3 0.9 0.6 1.1q-0.2-0.1-0.6-0.1c-0.7 0-1.3 0.6-1.3 1.3 0 0.8 0.6 1.4 1.3 1.4 0.8 0 1.4-0.6 1.4-1.3q0 0 0 0c0 0.7 0.6 1.3 1.3 1.3 0.8 0 1.4-0.6 1.4-1.4 0-0.7-0.6-1.3-1.4-1.3z"/><path fill-rule="evenodd" d="m6.8 11.7q0.3 0 0.4-0.1 0.1-0.1 0.2-0.3 0-0.2 0-0.5v-0.8h-2.7v-0.4l2.9-4.3h0.7v4.2h0.1q0.2 0 0.4 0 0.1-0.1 0.2-0.2 0-0.1 0.1-0.3h0.4l-0.1 1h-1.1v0.8q0 0.3 0 0.4 0 0.2 0 0.3 0.1 0.1 0.2 0.1 0.1 0.1 0.3 0.1v0.3h-2zm-1.3-2.3h1.9v-1.2q0-0.4 0-1 0-0.6 0.1-0.9h-0.1l-1.9 3.1z"/><path  d="m53.7 63.7c0.1-1.4 0.9-2.4 0.9-2.4h-0.9-0.9c0 0 0.8 1 0.9 2.4z"/><path  d="m52.4 65.3q0.2 0 0.5-0.1 0 0 0 0c-0.3 0.3-0.5 0.7-0.5 1.1 0 0.7 0.6 1.3 1.3 1.3 0.8 0 1.4-0.6 1.4-1.3 0-0.5-0.3-0.9-0.6-1.1q0.2 0.1 0.6 0.1c0.7 0 1.3-0.6 1.3-1.3 0-0.8-0.6-1.4-1.3-1.4-0.8 0-1.4 0.6-1.4 1.3q0 0 0 0c0-0.7-0.6-1.3-1.3-1.3-0.8 0-1.4 0.6-1.4 1.4 0 0.7 0.6 1.3 1.4 1.3z"/><path fill-rule="evenodd" d="m54 69.3q-0.3 0.1-0.4 0.2-0.1 0.1-0.2 0.3 0 0.1 0 0.5v0.8h2.7v0.4l-2.9 4.3h-0.7v-4.2h-0.1q-0.2 0-0.4 0-0.1 0.1-0.2 0.2 0 0.1-0.1 0.3h-0.4l0.1-1h1.1v-0.8q0-0.3 0-0.5 0-0.1 0-0.2-0.1-0.1-0.2-0.2-0.1 0-0.3-0.1v-0.2h2zm1.3 2.2h-1.9v1.3q0 0.4 0 1 0 0.6-0.1 0.8h0.1l1.9-3z"/><path  d="m40.8 18.9c-0.2 2.9-1.9 4.9-1.9 4.9h1.9 1.8c0 0-1.6-2-1.8-4.9z"/><path  d="m43.5 15.7q-0.6 0-1.1 0.2 0 0 0 0c0.6-0.5 1.1-1.3 1.1-2.1 0-1.5-1.2-2.7-2.7-2.7-1.5 0-2.7 1.2-2.7 2.7 0 0.9 0.5 1.7 1.2 2.2q-0.5-0.3-1.2-0.3c-1.5 0-2.7 1.2-2.7 2.7 0 1.4 1.2 2.6 2.7 2.6 1.5 0 2.6-1.1 2.7-2.5q0 0 0 0c0.1 1.4 1.2 2.5 2.7 2.5 1.4 0 2.6-1.2 2.6-2.6 0-1.5-1.2-2.7-2.6-2.7z"/><path  d="m40.8 62.2c0.2-2.8 1.8-4.8 1.8-4.8h-1.8-1.9c0 0 1.7 2 1.9 4.8z"/><path  d="m38.1 65.5q0.6-0.1 1.1-0.3 0 0.1 0 0.1c-0.7 0.5-1.1 1.2-1.1 2.1 0 1.5 1.2 2.7 2.7 2.7 1.5 0 2.7-1.2 2.7-2.7 0-0.9-0.5-1.8-1.2-2.2q0.5 0.2 1.2 0.3c1.4 0 2.6-1.2 2.6-2.7 0-1.5-1.2-2.7-2.6-2.7-1.5 0-2.6 1.1-2.7 2.6q0 0 0 0c-0.1-1.5-1.2-2.6-2.7-2.6-1.5 0-2.7 1.2-2.7 2.7 0 1.5 1.2 2.7 2.7 2.7z"/><path  d="m20.4 18.9c-0.2 2.9-1.8 4.9-1.8 4.9h1.8 1.9c0 0-1.6-2-1.9-4.9z"/><path  d="m23.1 15.7q-0.6 0-1 0.2-0.1 0-0.1 0c0.7-0.5 1.1-1.3 1.1-2.1 0-1.5-1.2-2.7-2.7-2.7-1.5 0-2.6 1.2-2.6 2.7 0 0.9 0.4 1.7 1.1 2.2q-0.5-0.3-1.1-0.3c-1.5 0-2.7 1.2-2.7 2.7 0 1.4 1.2 2.6 2.7 2.6 1.4 0 2.6-1.1 2.6-2.5q0 0 0 0c0.1 1.4 1.3 2.5 2.7 2.5 1.5 0 2.7-1.2 2.7-2.6 0-1.5-1.2-2.7-2.7-2.7z"/><path  d="m20.4 62.2c0.3-2.8 1.9-4.8 1.9-4.8h-1.9-1.8c0 0 1.6 2 1.8 4.8z"/><path  d="m17.8 65.5q0.5-0.1 1-0.3 0 0.1 0 0.1c-0.6 0.5-1 1.2-1 2.1 0 1.5 1.1 2.7 2.6 2.7 1.5 0 2.7-1.2 2.7-2.7 0-0.9-0.5-1.8-1.2-2.2q0.5 0.2 1.2 0.3c1.5 0 2.7-1.2 2.7-2.7 0-1.5-1.2-2.7-2.7-2.7-1.4 0-2.6 1.1-2.7 2.6q0 0 0 0c0-1.5-1.2-2.6-2.6-2.6-1.5 0-2.7 1.2-2.7 2.7 0 1.5 1.2 2.7 2.7 2.7z"/></svg>