<svg version="1.2" xmlns="http://www.w3.org/2000/svg" viewBox="0 0 63 85" width="63" height="85"><defs><linearGradient id="P" gradientUnits="userSpaceOnUse"/><radialGradient id="g1" cx="0" cy="0" r="1" href="#P" gradientTransform="matrix(111.62,0,0,111.62,29.372,-23.463)"><stop offset=".62" stop-color="#fff"/><stop offset="1" stop-color="#ababab"/></radialGradient><radialGradient id="g2" cx="0" cy="0" r="1" href="#P" gradientTransform="matrix(79.983,0,0,79.983,30.476,74.085)"><stop offset=".62" stop-color="#fff"/><stop offset="1" stop-color="#ababab"/></radialGradient><radialGradient id="g3" cx="0" cy="0" r="1" href="#P" gradientTransform="matrix(88.809,0,0,88.809,.299,2.818)"><stop offset=".1" stop-color="#fff"/><stop offset="1" stop-color="#ababab"/></radialGradient><radialGradient id="g4" cx="0" cy="0" r="1" href="#P" gradientTransform="matrix(75.641,0,0,75.641,17.717,25.318)"><stop stop-color="#fff"/><stop offset="1" stop-color="#fff"/></radialGradient><radialGradient id="g5" cx="0" cy="0" r="1" href="#P" gradientTransform="matrix(-23.534,0,0,-23.534,2.711,41.71)"><stop offset=".1" stop-color="#fff"/><stop offset="1" stop-color="#ababab"/></radialGradient></defs><style>.a{fill:#fff}.b{fill:#f1f1f1}.c{fill:#e2e2e2}.d{fill:#d4d4d4}.e{fill:#c5c5c5}.f{fill:#b7b7b7}.g{fill:#a8a8a8}.h{fill:#9a9a9a}.i{fill:#8b8b8b}.j{fill:#7d7d7d}.k{fill:#6e6e6e}.l{fill:#606060}.m{mix-blend-mode:multiply;fill:url(#g1)}.n{mix-blend-mode:multiply;fill:url(#g2)}.o{fill:url(#g3)}.p{mix-blend-mode:screen;fill:url(#g4)}.q{fill:url(#g5)}</style><g style="mix-blend-mode:multiply"><path class="a" d="m7.2 84.5h50.9q0 0 0 0c0.3 0 2-0.1 3.2-1.6q1-1.3 1-3.3v-71.5c0-3.5-2.5-4.9-4.2-4.9q0-0.1 0-0.1h-0.2q0 0 0 0h-50.7q0 0-0.1 0.1c-1.6 0-4.1 1.4-4.1 4.9v2.6q0 0.1 0 0.1v66.6q0 0 0 0.1v2.1c0 3.5 2.5 4.9 4.1 4.9q0.1 0 0.1 0z"/><path class="b" d="m7 84.3h50.8q0.1 0 0.1 0c0.3 0 2-0.1 3.2-1.6q1-1.3 1-3.4v-71.4c0-3.6-2.5-4.9-4.2-5q0 0-0.1 0h-0.1q0 0 0 0h-50.7q-0.1 0-0.1 0c-1.7 0.1-4.2 1.4-4.2 5v2.6q0 0.1 0 0.1v66.6q0 0 0 0.1v2c0 3.6 2.5 5 4.2 5q0 0 0.1 0z"/><path class="c" d="m6.8 84.1h50.8q0.1 0 0.1 0c0.3 0 2-0.1 3.1-1.6q1.1-1.4 1.1-3.4v-71.4c0-3.6-2.5-4.9-4.2-5q0 0-0.1 0h-0.1q0 0 0 0h-50.7q-0.1 0-0.1 0c-1.7 0.1-4.2 1.4-4.2 5v2.6q0 0.1 0 0.1v66.6q0 0 0 0v2.1c0 3.6 2.5 5 4.2 5q0 0 0.1 0z"/><path class="d" d="m6.5 83.9h50.9q0 0 0.1 0c0.3 0 1.9-0.1 3.1-1.7q1-1.3 1-3.3v-71.4c0-3.6-2.5-5-4.1-5q-0.1 0-0.1 0h-0.1q0 0 0 0h-50.8q0 0 0 0c-1.7 0-4.2 1.4-4.2 5v2.6q0 0 0 0.1v66.5q0 0.1 0 0.1v2.1c0 3.6 2.5 4.9 4.2 5q0 0 0 0z"/><path class="e" d="m6.3 83.7h50.9q0 0 0 0c0.4 0 2-0.2 3.2-1.7q1-1.3 1-3.3v-71.4c0-3.6-2.5-5-4.2-5q0 0 0 0h-0.1q0 0-0.1 0h-50.7q0 0 0 0c-1.7 0-4.2 1.4-4.2 5v2.6q0 0 0 0.1v66.5q0 0.1 0 0.1v2.1c0 3.6 2.5 4.9 4.2 5q0 0 0 0z"/><path class="f" d="m6.1 83.5h50.9q0 0 0 0c0.3-0.1 2-0.2 3.2-1.7q1-1.3 1-3.3v-71.5c0-3.5-2.5-4.9-4.2-4.9q0 0 0 0h-0.1q-0.1 0-0.1 0h-50.7q0 0-0.1 0c-1.6 0-4.1 1.4-4.1 4.9v2.7q0 0 0 0v66.6q0 0 0 0.1v2.1c0 3.5 2.5 4.9 4.1 5q0.1 0 0.1 0z"/><path class="g" d="m5.9 83.2h50.9q0 0 0 0c0.3 0 2-0.1 3.2-1.6q1-1.3 1-3.3v-71.5c0-3.5-2.5-4.9-4.2-5q0 0 0 0h-0.2q0 0 0 0h-50.7q0 0-0.1 0c-1.7 0.1-4.2 1.5-4.2 5v2.6q0 0.1 0 0.1v66.6q0 0 0 0.1v2.1c0 3.5 2.5 4.9 4.2 4.9q0.1 0 0.1 0z"/><path class="h" d="m5.7 83h50.8q0.1 0 0.1 0c0.3 0 2-0.1 3.1-1.6q1.1-1.4 1.1-3.4v-71.4c0-3.6-2.5-4.9-4.2-5q0 0-0.1 0h-0.1q0 0 0 0h-50.7q-0.1 0-0.1 0c-1.7 0.1-4.2 1.4-4.2 5v2.6q0 0.1 0 0.1v66.6q0 0 0 0.1v2c0 3.6 2.5 5 4.2 5q0 0 0.1 0z"/><path class="i" d="m5.4 82.8h50.9q0 0 0.1 0c0.3 0 1.9-0.1 3.1-1.7q1.1-1.3 1.1-3.3v-71.4c0-3.6-2.5-5-4.2-5q-0.1 0-0.1 0h-0.1q0 0 0 0h-50.8q0 0 0 0c-1.7 0.1-4.2 1.4-4.2 5v2.6q0 0 0 0.1v66.5q0 0.1 0 0.1v2.1c0 3.6 2.5 5 4.2 5q0 0 0 0z"/><path class="j" d="m5.2 82.6h50.9q0 0 0.1 0c0.3 0 1.9-0.1 3.1-1.7q1-1.3 1-3.3v-71.4c0-3.6-2.5-5-4.1-5q-0.1 0-0.1 0h-0.1q0 0 0 0h-50.8q0 0 0 0c-1.7 0-4.2 1.4-4.2 5v2.6q0 0 0 0.1v66.5q0 0.1 0 0.1v2.1c0 3.6 2.5 4.9 4.2 5q0 0 0 0z"/><path class="k" d="m5 82.4h50.9q0 0 0 0c0.4 0 2-0.2 3.2-1.7q1-1.3 1-3.3v-71.4c0-3.6-2.5-5-4.2-5q0 0 0 0h-0.1q-0.1 0-0.1 0h-50.7q0 0 0 0c-1.7 0-4.2 1.4-4.2 5v2.6q0 0 0 0v66.6q0 0.1 0 0.1v2.1c0 3.6 2.5 4.9 4.2 5q0 0 0 0z"/><path class="l" d="m4.8 82.1h50.9q0 0 0 0c0.3 0 2-0.1 3.2-1.6q1-1.3 1-3.3v-71.5c0-3.5-2.5-4.9-4.2-5q0 0 0 0h-0.2q0 0 0 0h-50.7q0 0-0.1 0c-1.6 0.1-4.1 1.5-4.1 5v2.6q0 0.1 0 0.1v66.6q0 0 0 0.1v2.1c0 3.5 2.5 4.9 4.1 4.9q0.1 0 0.1 0z"/></g><path class="a" d="m4.8 82.1h50.9q0 0 0 0c0.3 0 2-0.1 3.2-1.6q1-1.3 1-3.3v-71.5c0-3.5-2.5-4.9-4.2-5q0 0 0 0h-0.2q0 0 0 0h-50.7q0 0-0.1 0c-1.6 0.1-4.1 1.5-4.1 5v2.6q0 0.1 0 0.1v66.6q0 0 0 0.1v2.1c0 3.5 2.5 4.9 4.1 4.9q0.1 0 0.1 0z"/><path class="a" d="m55.7 2.9h-24.4-2.1-24.4c0 0-2.1 0-2.1 2.8v19.3 32.9 19.3c0 2.8 2.1 2.8 2.1 2.8h24.4 2.1 24.4c0 0 2.1 0 2.1-2.8v-19.3-32.9-19.3c0-2.8-2.1-2.8-2.1-2.8z"/><path class="m" d="m35.2 44.5q-16.3 0-32.5 0v32.7c0 2.8 2.1 2.8 2.1 2.8h50.9c0 0 2.1 0 2.1-2.8v-32.7q-11.3 0-22.6 0z"/><path class="n" d="m2.7 41.4q6.9 0 13.9 0 20 0 40.1 0 0.5 0 1.1 0v-35.7c0-2.8-2.1-2.8-2.1-2.8h-50.9c0 0-2.1 0-2.1 2.8v19.3z"/><path class="o" d="m57.7 5.7v19.3 32.8 19.3c0 2.8-2.2 2.8-2.2 2.8h-24.4-2.1-24.4c0 0-0.4 0-0.9-0.3 0.5 0.4 1.1 0.4 1.1 0.4h24.4 2.1 24.4c0 0 2.1 0 2.1-2.8v-19.3-32.9-19.3c0-2.8-2.1-2.8-2.1-2.8h-0.2c0 0 2.2 0 2.2 2.8z"/><path class="p" d="m2.8 77.2v-19.3-32.8-19.3c0-2.8 2.1-2.8 2.1-2.8h24.4 2.1 24.4c0 0 0.5 0 1 0.3-0.6-0.4-1.1-0.4-1.1-0.4h-24.4-2.1-24.4c0 0-2.1 0-2.1 2.8v19.3 32.9 19.3c0 2.8 2.1 2.8 2.1 2.8h0.1c0 0-2.1 0-2.1-2.8z"/><path class="q" d="m2.7 8.4v66.6q0-0.2 0.1-0.4v-16.8-48.2q-0.1-0.6-0.1-1.2z"/><path  d="m6.8 18.2c-0.1 1.4-1 2.4-1 2.4h1 0.9c0 0-0.8-1-0.9-2.4z"/><path  d="m8.1 16.6q-0.3 0-0.5 0.1 0 0 0 0c0.3-0.3 0.5-0.7 0.5-1.1 0-0.8-0.6-1.4-1.3-1.4-0.8 0-1.4 0.6-1.4 1.4 0 0.5 0.3 0.9 0.6 1.1q-0.2-0.1-0.6-0.1c-0.7 0-1.3 0.6-1.3 1.3 0 0.8 0.6 1.4 1.3 1.4 0.8 0 1.3-0.6 1.4-1.3q0 0 0 0c0 0.7 0.6 1.3 1.3 1.3 0.8 0 1.4-0.6 1.4-1.4 0-0.7-0.6-1.3-1.4-1.3z"/><path fill-rule="evenodd" d="m8.4 6.4v0.2q-0.8 0-1.4 0.3-0.5 0.4-0.9 1-0.4 0.6-0.6 1.5h0.1q0.4-0.3 0.8-0.4 0.4-0.2 0.9-0.2 0.5 0 0.9 0.3 0.4 0.2 0.6 0.6 0.2 0.5 0.2 1.1 0 0.6-0.3 1.1-0.2 0.5-0.7 0.7-0.5 0.3-1.3 0.3-1 0-1.6-0.6-0.5-0.7-0.5-2 0-0.9 0.2-1.6 0.3-0.8 0.8-1.3 0.5-0.6 1.2-0.9 0.6-0.4 1.4-0.4zm-1.5 3q-0.2 0-0.4 0-0.3 0.1-0.5 0.2-0.1 0.1-0.3 0.2-0.1 0.1-0.1 0.1-0.1 0.1-0.1 0.3 0 0.1 0 0.4 0 1 0.3 1.4 0.3 0.5 1 0.5 0.3 0 0.6-0.1 0.2-0.1 0.4-0.3 0.1-0.3 0.2-0.6 0.1-0.3 0.1-0.6 0-0.7-0.3-1.1-0.3-0.4-0.9-0.4z"/><path  d="m53.4 64.5c0.1-1.4 0.9-2.4 0.9-2.4h-0.9-1c0 0 0.9 1 1 2.4z"/><path  d="m52 66.1q0.3 0 0.5-0.1 0.1 0 0.1 0c-0.4 0.3-0.6 0.7-0.6 1.1 0 0.7 0.6 1.3 1.4 1.3 0.7 0 1.3-0.6 1.3-1.3 0-0.5-0.2-0.9-0.6-1.1q0.3 0.1 0.6 0.1c0.8 0 1.4-0.6 1.4-1.3 0-0.8-0.6-1.4-1.4-1.4-0.7 0-1.3 0.6-1.3 1.3q0 0 0 0c-0.1-0.7-0.6-1.3-1.4-1.3-0.7 0-1.3 0.6-1.3 1.4 0 0.7 0.6 1.3 1.3 1.3z"/><path fill-rule="evenodd" d="m51.8 76.3v-0.2q0.7 0 1.3-0.3 0.6-0.4 1-1 0.3-0.6 0.5-1.5-0.5 0.3-0.9 0.4-0.3 0.2-0.8 0.2-0.6 0-1-0.3-0.3-0.2-0.5-0.6-0.2-0.5-0.2-1.1 0-0.6 0.2-1.1 0.3-0.5 0.8-0.7 0.5-0.3 1.2-0.3 1.1 0 1.6 0.6 0.6 0.7 0.6 2 0 0.9-0.3 1.6-0.3 0.8-0.8 1.3-0.5 0.6-1.1 0.9-0.7 0.3-1.4 0.4zm1.4-3q0.3 0 0.5 0 0.2-0.1 0.4-0.2 0.2-0.1 0.4-0.2 0-0.1 0.1-0.1 0-0.1 0-0.3 0-0.1 0-0.4 0-1-0.3-1.5-0.3-0.4-0.9-0.4-0.4 0-0.6 0.1-0.3 0.1-0.4 0.3-0.2 0.3-0.2 0.6-0.1 0.3-0.1 0.6 0 0.7 0.3 1.1 0.3 0.4 0.8 0.4z"/><path  d="m40.5 19.8c-0.3 2.8-1.9 4.8-1.9 4.8h1.9 1.8c0 0-1.6-2-1.8-4.8z"/><path  d="m43.1 16.6q-0.5 0-1 0.2 0 0 0 0c0.6-0.5 1-1.3 1-2.2 0-1.4-1.2-2.6-2.6-2.6-1.5 0-2.7 1.2-2.7 2.6 0 1 0.5 1.8 1.2 2.3q-0.6-0.3-1.2-0.3c-1.5 0-2.7 1.2-2.7 2.6 0 1.5 1.2 2.7 2.7 2.7 1.4 0 2.6-1.1 2.6-2.5q0.1 0 0.1 0c0 1.4 1.2 2.5 2.6 2.5 1.5 0 2.7-1.2 2.7-2.7 0-1.4-1.2-2.6-2.7-2.6z"/><path  d="m40.5 63.1c0.2-2.8 1.8-4.8 1.8-4.8h-1.8-1.9c0 0 1.6 2 1.9 4.8z"/><path  d="m37.8 66.3q0.5 0 1-0.2 0 0 0 0c-0.6 0.5-1 1.3-1 2.2 0 1.4 1.2 2.6 2.7 2.6 1.4 0 2.6-1.2 2.6-2.6 0-1-0.5-1.8-1.2-2.3q0.6 0.3 1.2 0.3c1.5 0 2.7-1.2 2.7-2.6 0-1.5-1.2-2.7-2.7-2.7-1.4 0-2.6 1.1-2.6 2.5q-0.1 0-0.1 0c0-1.4-1.2-2.5-2.6-2.5-1.5 0-2.7 1.2-2.7 2.7 0 1.4 1.2 2.6 2.7 2.6z"/><path  d="m20.1 19.8c-0.3 2.8-1.9 4.8-1.9 4.8h1.9 1.8c0 0-1.6-2-1.8-4.8z"/><path  d="m22.8 16.6q-0.6 0-1.1 0.2 0 0 0 0c0.6-0.5 1.1-1.3 1.1-2.2 0-1.4-1.2-2.6-2.7-2.6-1.5 0-2.7 1.2-2.7 2.6 0 1 0.5 1.8 1.2 2.3q-0.5-0.3-1.2-0.3c-1.5 0-2.7 1.2-2.7 2.6 0 1.5 1.2 2.7 2.7 2.7 1.4 0 2.6-1.1 2.7-2.5q0 0 0 0c0 1.4 1.2 2.5 2.7 2.5 1.4 0 2.6-1.2 2.6-2.7 0-1.4-1.2-2.6-2.6-2.6z"/><path  d="m40.5 42.9c-0.3 2.9-1.9 4.9-1.9 4.9h1.9 1.8c0 0-1.6-2-1.8-4.9z"/><path  d="m43.1 39.7q-0.5 0-1 0.2 0 0 0 0c0.6-0.5 1-1.3 1-2.1 0-1.5-1.2-2.7-2.6-2.7-1.5 0-2.7 1.2-2.7 2.7 0 0.9 0.5 1.7 1.2 2.2q-0.6-0.3-1.2-0.3c-1.5 0-2.7 1.2-2.7 2.7 0 1.5 1.2 2.7 2.7 2.7 1.4 0 2.6-1.2 2.6-2.6q0.1 0 0.1 0c0 1.4 1.2 2.6 2.6 2.6 1.5 0 2.7-1.2 2.7-2.7 0-1.5-1.2-2.7-2.7-2.7z"/><path  d="m20.1 42.9c-0.3 2.9-1.9 4.9-1.9 4.9h1.9 1.8c0 0-1.6-2-1.8-4.9z"/><path  d="m22.8 39.7q-0.6 0-1.1 0.2 0 0 0 0c0.6-0.5 1.1-1.3 1.1-2.1 0-1.5-1.2-2.7-2.7-2.7-1.5 0-2.7 1.2-2.7 2.7 0 0.9 0.5 1.7 1.2 2.2q-0.5-0.3-1.2-0.3c-1.5 0-2.7 1.2-2.7 2.7 0 1.5 1.2 2.7 2.7 2.7 1.4 0 2.6-1.2 2.7-2.6q0 0 0 0c0 1.4 1.2 2.6 2.7 2.6 1.4 0 2.6-1.2 2.6-2.7 0-1.5-1.2-2.7-2.6-2.7z"/><path  d="m20.1 63.1c0.2-2.8 1.8-4.8 1.8-4.8h-1.8-1.9c0 0 1.6 2 1.9 4.8z"/><path  d="m17.4 66.3q0.6 0 1-0.2 0.1 0 0.1 0c-0.7 0.5-1.1 1.3-1.1 2.2 0 1.4 1.2 2.6 2.7 2.6 1.5 0 2.7-1.2 2.7-2.6 0-1-0.5-1.8-1.2-2.3q0.5 0.3 1.2 0.3c1.4 0 2.6-1.2 2.6-2.6 0-1.5-1.2-2.7-2.6-2.7-1.5 0-2.7 1.1-2.7 2.5q0 0 0 0c-0.1-1.4-1.3-2.5-2.7-2.5-1.5 0-2.7 1.2-2.7 2.7 0 1.4 1.2 2.6 2.7 2.6z"/></svg>