<svg version="1.2" xmlns="http://www.w3.org/2000/svg" viewBox="0 0 62 84" width="62" height="84"><defs><linearGradient id="P" gradientUnits="userSpaceOnUse"/><radialGradient id="g1" cx="0" cy="0" r="1" href="#P" gradientTransform="matrix(111.62,0,0,111.62,28.821,-24.187)"><stop offset=".62" stop-color="#fff"/><stop offset="1" stop-color="#ababab"/></radialGradient><radialGradient id="g2" cx="0" cy="0" r="1" href="#P" gradientTransform="matrix(79.983,0,0,79.983,29.926,73.36)"><stop offset=".62" stop-color="#fff"/><stop offset="1" stop-color="#ababab"/></radialGradient><radialGradient id="g3" cx="0" cy="0" r="1" href="#P" gradientTransform="matrix(88.809,0,0,88.809,-0.252,2.093)"><stop offset=".1" stop-color="#fff"/><stop offset="1" stop-color="#ababab"/></radialGradient><radialGradient id="g4" cx="0" cy="0" r="1" href="#P" gradientTransform="matrix(75.641,0,0,75.641,17.167,24.593)"><stop stop-color="#fff"/><stop offset="1" stop-color="#fff"/></radialGradient><radialGradient id="g5" cx="0" cy="0" r="1" href="#P" gradientTransform="matrix(-23.534,0,0,-23.534,2.16,40.985)"><stop offset=".1" stop-color="#fff"/><stop offset="1" stop-color="#ababab"/></radialGradient></defs><style>.a{fill:#fff}.b{fill:#f1f1f1}.c{fill:#e2e2e2}.d{fill:#d4d4d4}.e{fill:#c5c5c5}.f{fill:#b7b7b7}.g{fill:#a8a8a8}.h{fill:#9a9a9a}.i{fill:#8b8b8b}.j{fill:#7d7d7d}.k{fill:#6e6e6e}.l{fill:#606060}.m{mix-blend-mode:multiply;fill:url(#g1)}.n{mix-blend-mode:multiply;fill:url(#g2)}.o{fill:url(#g3)}.p{mix-blend-mode:screen;fill:url(#g4)}.q{fill:url(#g5)}</style><g style="mix-blend-mode:multiply"><path class="a" d="m6.6 83.8q0 0 0 0h50.9q0 0 0.1 0c0.3 0 1.9-0.1 3.1-1.6q1-1.4 1-3.4v-71.4c0-3.6-2.5-4.9-4.1-5q-0.1 0-0.1 0h-0.1q0 0 0 0h-50.8q0 0 0 0c-1.7 0.1-4.2 1.4-4.2 5v2.6q0 0.1 0 0.1v66.6q0 0 0 0.1v2c0 3.6 2.5 5 4.2 5z"/><path class="b" d="m6.4 83.6q0 0 0 0h50.9q0 0 0 0c0.4 0 2-0.1 3.2-1.6q1-1.4 1-3.4v-71.4c0-3.6-2.5-4.9-4.2-5q0 0 0 0h-0.1q0 0-0.1 0h-50.7q0 0 0 0c-1.7 0.1-4.2 1.4-4.2 5v2.6q0 0 0 0.1v66.5q0 0.1 0 0.1v2.1c0 3.6 2.5 5 4.2 5z"/><path class="c" d="m6.1 83.4q0.1 0 0.1 0h50.9q0 0 0 0c0.3 0 2-0.1 3.2-1.7q1-1.3 1-3.3v-71.4c0-3.6-2.5-5-4.2-5q0 0 0 0h-0.1q-0.1 0-0.1 0h-50.7q0 0-0.1 0c-1.6 0-4.1 1.4-4.1 5v2.6q0 0 0 0.1v66.5q0 0.1 0 0.1v2.1c0 3.6 2.5 4.9 4.1 5z"/><path class="d" d="m5.9 83.2q0.1 0 0.1 0h50.9q0 0 0 0c0.3 0 2-0.2 3.2-1.7q1-1.3 1-3.3v-71.4c0-3.6-2.5-5-4.2-5q0 0 0 0h-0.2q0 0 0 0h-50.7q0 0-0.1 0c-1.7 0-4.2 1.4-4.2 5v2.6q0 0 0 0.1v66.5q0 0.1 0 0.1v2.1c0 3.6 2.5 4.9 4.2 5z"/><path class="e" d="m5.7 83q0 0 0.1 0h50.8q0.1 0 0.1 0c0.3-0.1 2-0.2 3.2-1.7q1-1.3 1-3.3v-71.5c0-3.5-2.5-4.9-4.2-4.9q0 0-0.1 0h-0.1q0 0 0 0h-50.7q-0.1 0-0.1 0c-1.7 0-4.2 1.4-4.2 4.9v2.6q0 0.1 0 0.1v66.6q0 0 0 0.1v2.1c0 3.5 2.5 4.9 4.2 5z"/><path class="f" d="m5.5 82.7q0 0 0 0h50.9q0 0 0.1 0c0.3 0 2-0.1 3.1-1.6q1.1-1.3 1.1-3.4v-71.4c0-3.6-2.5-4.9-4.2-5q-0.1 0-0.1 0h-0.1q0 0 0 0h-50.8q0 0 0 0c-1.7 0.1-4.2 1.4-4.2 5v2.6q0 0.1 0 0.1v66.6q0 0 0 0.1v2c0 3.6 2.5 5 4.2 5z"/><path class="g" d="m5.3 82.5q0 0 0 0h50.9q0 0 0.1 0c0.3 0 1.9-0.1 3.1-1.6q1-1.4 1-3.4v-71.4c0-3.6-2.5-4.9-4.1-5q-0.1 0-0.1 0h-0.1q0 0 0 0h-50.8q0 0 0 0c-1.7 0.1-4.2 1.4-4.2 5v2.6q0 0.1 0 0.1v66.6q0 0 0 0v2.1c0 3.6 2.5 5 4.2 5z"/><path class="h" d="m5.1 82.3q0 0 0 0h50.9q0 0 0 0c0.4 0 2-0.1 3.2-1.7q1-1.3 1-3.3v-71.4c0-3.6-2.5-5-4.2-5q0 0 0 0h-0.1q0 0-0.1 0h-50.7q0 0 0 0c-1.7 0-4.2 1.4-4.2 5v2.6q0 0 0 0.1v66.5q0 0.1 0 0.1v2.1c0 3.6 2.5 4.9 4.2 5z"/><path class="i" d="m4.8 82.1q0.1 0 0.1 0h50.9q0 0 0 0c0.3 0 2-0.2 3.2-1.7q1-1.3 1-3.3v-71.4c0-3.6-2.5-5-4.2-5q0 0 0 0h-0.2q0 0 0 0h-50.7q0 0-0.1 0c-1.6 0-4.1 1.4-4.1 5v2.6q0 0 0 0.1v66.5q0 0.1 0 0.1v2.1c0 3.6 2.5 4.9 4.1 5z"/><path class="j" d="m4.6 81.9q0 0 0.1 0h50.8q0.1 0 0.1 0c0.3 0 2-0.2 3.2-1.7q1-1.3 1-3.3v-71.5c0-3.5-2.5-4.9-4.2-4.9q0 0-0.1 0h-0.1q0 0 0 0h-50.7q-0.1 0-0.1 0c-1.7 0-4.2 1.4-4.2 4.9v2.7q0 0 0 0v66.6q0 0 0 0.1v2.1c0 3.5 2.5 4.9 4.2 5z"/><path class="k" d="m4.4 81.6q0 0 0.1 0h50.8q0.1 0 0.1 0c0.3 0 2-0.1 3.1-1.6q1.1-1.3 1.1-3.3v-71.5c0-3.5-2.5-4.9-4.2-5q0 0-0.1 0h-0.1q0 0 0 0h-50.7q-0.1 0-0.1 0c-1.7 0.1-4.2 1.5-4.2 5v2.6q0 0.1 0 0.1v66.6q0 0 0 0.1v2.1c0 3.5 2.5 4.9 4.2 4.9z"/><path class="l" d="m4.2 81.4q0 0 0 0h50.9q0 0 0.1 0c0.3 0 1.9-0.1 3.1-1.6q1-1.4 1-3.4v-71.4c0-3.6-2.5-4.9-4.1-5q-0.1 0-0.1 0h-0.1q0 0 0 0h-50.8q0 0 0 0c-1.7 0.1-4.2 1.4-4.2 5v2.6q0 0.1 0 0.1v66.6q0 0 0 0.1v2c0 3.6 2.5 5 4.2 5z"/></g><path class="a" d="m4.2 81.4q0 0 0 0h50.9q0 0 0.1 0c0.3 0 1.9-0.1 3.1-1.6q1-1.4 1-3.4v-71.4c0-3.6-2.5-4.9-4.1-5q-0.1 0-0.1 0h-0.1q0 0 0 0h-50.8q0 0 0 0c-1.7 0.1-4.2 1.4-4.2 5v2.6q0 0.1 0 0.1v66.6q0 0 0 0.1v2c0 3.6 2.5 5 4.2 5z"/><path class="a" d="m55.1 2.1h-24.4-2.1-24.4c0 0-2.1 0.1-2.1 2.9v19.3 32.9 19.2c0 2.9 2.1 2.9 2.1 2.9h24.4 2.1 24.4c0 0 2.1 0 2.1-2.9v-19.2-32.9-19.3c0-2.8-2.1-2.9-2.1-2.9z"/><path class="m" d="m34.6 43.8q-16.2 0-32.5 0v32.6c0 2.9 2.1 2.9 2.1 2.9h50.9c0 0 2.1 0 2.1-2.9v-32.6q-11.3 0-22.6 0z"/><path class="n" d="m2.1 40.6q7 0 13.9 0 20.1 0.1 40.1 0.1 0.6 0 1.1 0v-35.7c0-2.8-2.1-2.9-2.1-2.9h-50.9c0 0-2.1 0.1-2.1 2.9v19.3z"/><path class="o" d="m57.1 5v19.2 32.9 19.2c0 2.8-2.1 2.9-2.1 2.9h-24.4-2.1-24.4c0 0-0.5 0-1-0.3 0.6 0.4 1.1 0.4 1.1 0.4h24.4 2.1 24.4c0 0 2.1 0 2.1-2.9v-19.2-32.9-19.3c0-2.8-2.1-2.9-2.1-2.9h-0.1c0 0 2.1 0.1 2.1 2.9z"/><path class="p" d="m2.2 76.4v-19.2-32.9-19.2c0-2.8 2.2-2.9 2.2-2.9h24.4 2.1 24.4c0 0 0.4 0.1 0.9 0.3-0.5-0.4-1.1-0.4-1.1-0.4h-24.4-2.1-24.4c0 0-2.1 0.1-2.1 2.9v19.3 32.9 19.2c0 2.9 2.1 2.9 2.1 2.9h0.2c0 0-2.2 0-2.2-2.9z"/><path class="q" d="m2.1 7.7v66.6q0.1-0.2 0.1-0.4v-16.8-48.2q0-0.6-0.1-1.2z"/><path  d="m6.5 17.5c-0.1 1.4-0.9 2.4-0.9 2.4h0.9 0.9c0 0-0.8-1-0.9-2.4z"/><path  d="m7.8 15.8q-0.2 0-0.5 0.2 0-0.1 0-0.1c0.3-0.2 0.5-0.6 0.5-1 0-0.8-0.6-1.4-1.3-1.4-0.8 0-1.4 0.6-1.4 1.4 0 0.4 0.3 0.8 0.6 1.1q-0.2-0.2-0.6-0.2c-0.7 0-1.3 0.6-1.3 1.4 0 0.7 0.6 1.3 1.3 1.3 0.8 0 1.4-0.5 1.4-1.2q0 0 0 0c0 0.7 0.6 1.2 1.3 1.2 0.8 0 1.4-0.6 1.4-1.3 0-0.8-0.6-1.4-1.4-1.4z"/><path fill-rule="evenodd" d="m7.3 12.1v-0.2q0.2-0.1 0.3-0.1 0.2-0.1 0.2-0.2 0.1-0.1 0.1-0.3 0-0.1-0.1-0.3 0-0.2-0.1-0.5l-0.1-0.6h-2.3l-0.2 0.5q-0.1 0.3-0.1 0.5-0.1 0.2-0.1 0.4 0 0.3 0.2 0.4 0.1 0.1 0.4 0.2v0.2h-2.1v-0.2q0.3-0.1 0.5-0.3 0.2-0.3 0.4-0.8l2-5.4h0.8l1.7 5.4q0.1 0.4 0.2 0.6 0.1 0.2 0.2 0.3 0.1 0.1 0.3 0.2v0.2zm-1.8-2.6h2l-0.9-3.2z"/><path  d="m52.7 63.8c0.1-1.5 0.9-2.5 0.9-2.5h-0.9-0.9c0 0 0.8 1 0.9 2.5z"/><path  d="m51.4 65.4q0.2 0 0.5-0.1 0 0 0 0c-0.3 0.3-0.5 0.6-0.5 1.1 0 0.7 0.6 1.3 1.3 1.3 0.8 0 1.4-0.6 1.4-1.3 0-0.5-0.3-0.9-0.6-1.1q0.2 0.1 0.6 0.1c0.7 0 1.3-0.6 1.3-1.3 0-0.8-0.6-1.4-1.3-1.4-0.8 0-1.4 0.6-1.4 1.3q0 0 0 0c0-0.7-0.6-1.3-1.3-1.3-0.8 0-1.4 0.6-1.4 1.4 0 0.7 0.6 1.3 1.4 1.3z"/><path fill-rule="evenodd" d="m51.9 69.1v0.3q-0.2 0-0.4 0.1-0.1 0-0.1 0.1-0.1 0.1-0.1 0.3 0 0.2 0.1 0.4 0 0.2 0.1 0.4l0.1 0.6h2.3l0.2-0.4q0.1-0.4 0.1-0.6 0.1-0.2 0.1-0.3 0-0.3-0.2-0.4-0.1-0.2-0.4-0.2v-0.3h2.1v0.3q-0.3 0-0.5 0.3-0.2 0.3-0.4 0.8l-2 5.4h-0.8l-1.7-5.5q-0.1-0.4-0.2-0.6-0.1-0.2-0.2-0.3-0.1-0.1-0.3-0.1v-0.3zm1.8 2.7h-2l0.9 3.1z"/><path  d="m29.7 42.2c-0.3 2.8-1.9 4.8-1.9 4.8h1.9 1.8c0 0-1.6-2-1.8-4.8z"/><path  d="m32.3 38.9q-0.5 0-1 0.2 0 0 0 0c0.6-0.5 1-1.2 1-2.1 0-1.5-1.2-2.7-2.6-2.7-1.5 0-2.7 1.2-2.7 2.7 0 0.9 0.5 1.7 1.2 2.2q-0.6-0.3-1.2-0.3c-1.5 0-2.7 1.2-2.7 2.7 0 1.5 1.2 2.7 2.7 2.7 1.4 0 2.6-1.2 2.7-2.6q0 0 0 0c0 1.4 1.2 2.6 2.6 2.6 1.5 0 2.7-1.2 2.7-2.7 0-1.5-1.2-2.7-2.7-2.7z"/></svg>